<?xml version="1.0" encoding="UTF-8" standalone="no"?>
<!-- Generator: Adobe Illustrator 20.1.0, SVG Export Plug-In . SVG Version: 6.00 Build 0)  -->

<svg
   xmlns:dc="http://purl.org/dc/elements/1.1/"
   xmlns:cc="http://creativecommons.org/ns#"
   xmlns:rdf="http://www.w3.org/1999/02/22-rdf-syntax-ns#"
   xmlns:svg="http://www.w3.org/2000/svg"
   xmlns="http://www.w3.org/2000/svg"
   xmlns:sodipodi="http://sodipodi.sourceforge.net/DTD/sodipodi-0.dtd"
   xmlns:inkscape="http://www.inkscape.org/namespaces/inkscape"
   version="1.1"
   id="Layer_1"
   x="0px"
   y="0px"
   viewBox="0 0 904.889 63.999997"
   xml:space="preserve"
   inkscape:version="0.91 r13725"
   sodipodi:docname="bst_0.svg"
   width="904.88898"
   height="64"><metadata
     id="metadata83"><rdf:RDF><cc:Work
         rdf:about=""><dc:format>image/svg+xml</dc:format><dc:type
           rdf:resource="http://purl.org/dc/dcmitype/StillImage" /><dc:title></dc:title></cc:Work></rdf:RDF></metadata><defs
     id="defs81" /><sodipodi:namedview
     pagecolor="#ffffff"
     bordercolor="#666666"
     borderopacity="1"
     objecttolerance="10"
     gridtolerance="10"
     guidetolerance="10"
     inkscape:pageopacity="0"
     inkscape:pageshadow="2"
     inkscape:window-width="1920"
     inkscape:window-height="1138"
     id="namedview79"
     showgrid="false"
     inkscape:zoom="0.57137249"
     inkscape:cx="254.64999"
     inkscape:cy="17.950001"
     inkscape:window-x="1912"
     inkscape:window-y="-8"
     inkscape:window-maximized="1"
     inkscape:current-layer="Layer_1" /><style
     type="text/css"
     id="style3">
	.st0{fill:#010101;}
	.st1{fill:#A271B1;}
</style><path
     class="st0"
     d="m 43.985028,4.0870205 c -1.06662,0.35554 -2.31101,0.71108 -3.37763,1.24439 -2.48878,0.88885 -4.79979,1.7777 -7.28857,2.66655 -2.31101,0.88885 -4.79979,1.59993 -7.1108,2.4887805 -1.7777,0.71108 -3.73317,1.244389 -5.51087,1.95547 -3.19986,0.88885 -6.57749,1.7777 -9.95512,2.31101 -0.71108,0 -1.2443905,0.17777 -1.9554705,0.17777 -0.35554,-0.71108 -1.24439,-1.06662 -1.95547,-0.71108 -0.71108,0.17777 -1.06662,0.35554 -1.59993,0.71108 -0.88885,0.53331 -1.24439,1.42216 -1.06662,2.31101 0.17777,0.88885 1.06662,1.42216 1.95547,1.42216 0.71108,0 1.59993,0.17777 2.31101,0.17777 0.71108,0 1.5999305,0 2.3110105,-0.17777 1.7777,-0.17777 3.5554,-0.53331 5.3331,-0.88885 3.37763,-0.71108 6.57749,-1.7777 9.95512,-2.84432 2.48878,-0.88885 4.97756,-1.7777 7.46634,-2.48878 4.26648,-1.42216 8.53296,-2.8443205 12.62167,-4.2664805 0.88885,-0.35554 1.7777,-0.71108 2.84432,-0.88885 0.88885,-0.17777 1.59993,-1.06662 1.59993,-2.13324 0,-1.24439 -1.06662,-2.13324 -2.13324,-2.13324 0,0 0,0 0,0 -1.42216,0 -3.02209,0.53331 -4.44425,1.06662 l 0,0 z M 10.742038,14.753221 c 0,0 0,0 0,0 0,0 0,0 0,0 0,0 0,0 0,0 l 0,0 z"
     id="path5"
     inkscape:connector-curvature="0"
     style="fill:#010101" /><path
     class="st0"
     d="m 23.719248,18.130851 c 0.35554,5.86641 0.71108,11.91059 1.06662,17.777 0.17777,2.48878 0.35554,5.15533 0.35554,7.64411 0,1.06662 0.17777,2.13324 0.17777,3.19986 0,0.71108 0.17777,1.24439 0.17777,1.95547 0,0.71108 0.17777,1.42216 0.35554,2.13324 0,0.17777 0.17777,0.53331 0.17777,0.71108 0.17777,0.17777 0.17777,0.35554 0.35554,0.71108 0.17777,0.35554 0.53331,0.53331 0.71108,0.88885 0.88885,0.88885 2.13324,1.06662 3.19986,0.35554 0.53331,-0.35554 1.06662,-0.88885 1.24439,-1.59993 0.17777,-0.71108 0,-1.24439 -0.17777,-1.7777 -0.17777,-2.31101 -0.17777,-4.79979 -0.35554,-7.1108 -0.17777,-2.48878 -0.35554,-5.15533 -0.35554,-7.64411 -0.35554,-5.86641 -0.71108,-11.55505 -1.06662,-17.42146 0,-0.71108 -0.35554,-1.42216 -0.88885,-1.95547 -0.53331,-0.53331 -1.24439,-0.88885 -1.95547,-0.88885 -1.59993,0 -3.02209,1.42216 -3.02209,3.02209 l 0,0 z"
     id="path7"
     inkscape:connector-curvature="0"
     style="fill:#010101" /><path
     class="st0"
     d="m 51.629138,10.664511 c -0.53331,10.48843 -1.06662,20.97686 -1.59993,31.46529 -0.35554,1.7777 -0.35554,3.5554 -0.35554,5.3331 0,0.71108 0,1.42216 0,2.13324 0,0.17777 0,0.35554 0,0.53331 0,0.35554 0,0.71108 0,1.06662 0,0.35554 0,0.88885 0.17777,1.24439 0,0.53331 0.35554,1.06662 0.71108,1.59993 0.53331,0.53331 1.06662,0.71108 1.7777,0.71108 0.71108,0 1.24439,-0.17777 1.7777,-0.71108 0.53331,-0.53331 0.71108,-1.06662 0.71108,-1.7777 0.35554,-2.84432 0.35554,-5.51087 0.53331,-8.35519 0.17777,-2.13324 0.17777,-4.26648 0.35554,-6.39972 0.35554,-1.06662 0.71108,-2.13324 1.06662,-3.19986 0.53331,-1.24439 1.24439,-2.48878 2.13324,-3.5554 0.88885,-1.06662 1.7777,-1.95547 2.66655,-2.66655 0.53331,-0.35554 0.88885,-0.71108 1.59993,-0.88885 0.35554,-0.17777 0.88885,-0.17777 1.24439,-0.35554 0.35554,0 0.88885,0 1.24439,0 0.17777,0 0.53331,0.17777 0.71108,0.17777 0.53331,0.17777 0.88885,0.53331 1.24439,0.71108 0.35554,0.35554 0.71108,0.53331 0.88885,0.88885 0.53331,0.71108 0.88885,1.59993 1.24439,2.48878 0.35554,0.88885 0.53331,1.7777 0.71108,2.84432 0.17777,1.24439 0,2.31101 0,3.5554 -0.35554,2.31101 -0.88885,4.79979 -1.42216,7.1108 -0.35554,1.06662 0.35554,2.13324 1.42216,2.48878 1.06662,0.35554 2.13324,-0.35554 2.48878,-1.42216 0.35554,-1.42216 0.53331,-2.66655 0.88885,-4.08871 0.35554,-2.66655 0.88885,-5.15533 0.53331,-7.82188 -0.17777,-1.59993 -0.71108,-3.02209 -1.42216,-4.44425 -0.53331,-1.42216 -1.42216,-2.66655 -2.48878,-3.73317 -1.06662,-1.06662 -2.31101,-1.7777 -3.73317,-2.31101 -0.71108,-0.17777 -1.59993,-0.17777 -2.31101,-0.17777 -0.88885,0 -1.7777,0.17777 -2.66655,0.53331 -1.42216,0.53331 -2.66655,1.59993 -3.91094,2.48878 -0.71108,0.53331 -1.42216,1.24439 -1.95547,1.95547 0.17777,-2.31101 0.17777,-4.62202 0.35554,-6.93303 0.17777,-3.5554 0.35554,-6.93303 0.53331,-10.48843 0,-1.4221605 -1.24439,-2.4887805 -2.48878,-2.4887805 -1.42216,0 -2.48878,1.06662 -2.66655,2.4887805 l 0,0 z m 5.15533,23.46564 c 0,0 0,0.17777 -0.17777,0.17777 0.17777,0 0.17777,0 0.17777,-0.17777 l 0,0 z"
     id="path9"
     inkscape:connector-curvature="0"
     style="fill:#010101" /><path
     class="st0"
     d="m 92.516238,25.419421 c -0.53331,0.17777 -1.06662,0.35554 -1.59993,0.71108 -1.06662,0.53331 -1.7777,1.42216 -2.66655,2.31101 -0.88885,1.06662 -1.7777,2.13324 -2.48878,3.37763 -0.71108,1.06662 -1.24439,2.13324 -1.7777,3.19986 -0.35554,0.53331 -0.53331,1.24439 -0.53331,1.95547 0,0.53331 0,1.24439 0.17777,1.7777 0.17777,0.53331 0.35554,1.24439 0.71108,1.7777 0.35554,0.53331 0.71108,1.06662 1.06662,1.59993 0.88885,1.06662 1.95547,1.7777 3.02209,2.48878 1.06662,0.71108 2.31101,1.24439 3.5554,1.59993 1.42216,0.53331 2.66655,0.71108 4.08871,0.88885 1.24439,0.17777 2.66655,0.17777 3.91094,0 0.711082,0 1.422162,-0.17777 2.133242,-0.35554 0.71108,-0.17777 1.42216,-0.35554 2.13324,-0.53331 1.06662,-0.35554 1.7777,-1.42216 1.42216,-2.48878 -0.35554,-1.06662 -1.42216,-1.59993 -2.48878,-1.42216 -1.06662,0.17777 -1.95547,0.53331 -3.02209,0.53331 -1.599932,0.17777 -3.377632,0.17777 -4.977562,0 -1.42216,-0.17777 -2.66655,-0.53331 -4.08871,-1.06662 -0.88885,-0.35554 -1.59993,-0.88885 -2.31101,-1.42216 -0.35554,-0.35554 -0.71108,-0.71108 -1.06662,-1.06662 -0.35554,-0.35554 -0.53331,-0.88885 -0.71108,-1.24439 -0.17777,-0.35554 -0.17777,-0.53331 -0.17777,-0.88885 0,0 0,-0.17777 0,-0.17777 0,-0.35554 0.17777,-0.53331 0.35554,-0.88885 0.17777,-0.53331 0.35554,-0.88885 0.71108,-1.42216 0.53331,0 1.06662,0 1.42216,0 0.53331,0 1.24439,-0.17777 1.7777,-0.17777 1.24439,-0.17777 2.31101,-0.71108 3.19986,-1.42216 0.88885,-0.71108 1.7777,-1.59993 2.31101,-2.48878 0.35554,-0.53331 0.53331,-1.06662 0.71108,-1.59993 0.17777,-0.71108 0,-1.42216 -0.35554,-1.95547 -0.17777,-0.53331 -0.71108,-1.06662 -1.06662,-1.24439 -0.53331,-0.35554 -1.06662,-0.35554 -1.59993,-0.53331 0,0 -0.17777,0 -0.17777,0 -0.71108,-0.17777 -1.24439,0 -1.59993,0.17777 l 0,0 z m 1.42216,2.48878 c 0.17777,0 0.17777,0 0,0 0.17777,0 0.17777,0 0,0 l 0,0 z m 0.17777,0.17777 c 0,0.17777 0.17777,0.17777 0.17777,0.35554 0,0 0,0 0,0 0,0 0,0 0,0.17777 -0.17777,0.35554 -0.35554,0.71108 -0.71108,1.06662 -0.35554,0.35554 -0.71108,0.71108 -1.06662,1.06662 -0.35554,0.35554 -0.88885,0.53331 -1.42216,0.71108 -0.53331,0.17777 -0.88885,0.17777 -1.42216,0.35554 -0.17777,0 -0.35554,0 -0.35554,0 0.17777,-0.35554 0.35554,-0.53331 0.53331,-0.88885 0.71108,-0.71108 1.42216,-1.59993 2.13324,-2.13324 0.17777,-0.17777 0.53331,-0.35554 0.88885,-0.53331 0.35554,-0.17777 0.53331,-0.17777 0.88885,-0.17777 0.17777,0 0.35554,0 0.35554,0 l 0,0 z m 0.35554,0.53331 c 0,0 0,0 0,0 0,0 0,0 0,0 l 0,0 z m -7.46634,7.64411 c 0,0 0,0.17777 -0.17777,0.17777 0.17777,0 0.17777,-0.17777 0.17777,-0.17777 l 0,0 z"
     id="path11"
     inkscape:connector-curvature="0"
     style="fill:#010101" /><path
     class="st0"
     d="m 158.46891,22.219561 c 0,1.59993 1.42216,3.02209 3.02209,3.02209 1.59993,0 3.02209,-1.42216 3.02209,-3.02209 0,-1.59993 -1.42216,-3.02209 -3.02209,-3.02209 -1.59993,0.17777 -3.02209,1.42216 -3.02209,3.02209 l 0,0 z"
     id="path13"
     inkscape:connector-curvature="0"
     style="fill:#010101" /><path
     class="st0"
     d="m 157.58006,32.352451 c 0,4.79979 0,9.77735 0.35554,14.57714 0,0.71108 0.17777,1.24439 0.71108,1.59993 0.35554,0.35554 1.06662,0.71108 1.59993,0.71108 1.24439,0 2.31101,-1.06662 2.31101,-2.31101 0,-4.79979 0,-9.77735 0,-14.57714 0,-1.42216 -1.24439,-2.48878 -2.48878,-2.48878 -1.24439,0 -2.48878,1.06662 -2.48878,2.48878 l 0,0 z"
     id="path15"
     inkscape:connector-curvature="0"
     style="fill:#010101" /><path
     class="st0"
     d="m 204.33357,23.641721 c -0.71108,0.17777 -1.42216,0.53331 -1.95547,0.88885 -0.53331,0.35554 -0.88885,0.71108 -1.42216,1.06662 -0.53331,0.35554 -1.06662,0.88885 -1.59993,1.42216 -0.88885,0.88885 -1.7777,1.95547 -2.66655,3.02209 -0.17777,0.35554 -0.53331,0.53331 -0.71108,0.88885 -0.17777,-0.35554 -0.35554,-0.71108 -0.53331,-1.06662 -0.17777,-0.35554 -0.53331,-0.71108 -0.88885,-1.06662 -0.35554,-0.35554 -0.71108,-0.71108 -1.06662,-0.88885 -0.88885,-0.71108 -1.7777,-0.88885 -2.84432,-1.06662 -0.88885,-0.17777 -1.59993,0 -2.48878,0.17777 -0.53331,0.17777 -0.88885,0.35554 -1.24439,0.53331 -0.53331,0.17777 -1.06662,0.71108 -1.59993,1.06662 -0.71108,0.53331 -1.24439,1.06662 -1.7777,1.7777 -0.17777,0.17777 -0.35554,0.35554 -0.53331,0.53331 -0.17777,-1.24439 -1.42216,-2.31101 -2.66655,-2.31101 -1.59993,0 -2.66655,1.24439 -2.66655,2.66655 0,2.31101 -0.17777,4.62202 -0.35554,6.93303 0,0.88885 0,1.7777 -0.17777,2.84432 0,0.35554 0,0.71108 0,1.24439 0,1.24439 -0.17777,2.48878 0,3.5554 0.35554,1.24439 1.42216,1.95547 2.66655,1.95547 1.24439,0 2.31101,-0.88885 2.66655,-1.95547 0.53331,-2.48878 1.24439,-4.97756 2.13324,-7.28857 0.71108,-1.7777 1.59993,-3.5554 2.84432,-5.15533 0.35554,-0.53331 0.88885,-0.88885 1.42216,-1.42216 0.17777,-0.17777 0.35554,-0.35554 0.71108,-0.35554 0.17777,0 0.35554,0 0.35554,-0.17777 0.17777,0 0.35554,0 0.53331,0 0.17777,0 0.17777,0 0.35554,0.17777 0,0 0.17777,0 0.17777,0.17777 0.17777,0.17777 0.35554,0.35554 0.35554,0.35554 0.17777,0.17777 0.17777,0.35554 0.35554,0.53331 0.35554,0.71108 0.53331,1.59993 0.53331,2.31101 0,0.71108 0.17777,1.24439 0.17777,1.95547 0,0.17777 -0.17777,0.17777 -0.17777,0.35554 -0.35554,0.71108 -0.53331,1.59993 -0.53331,2.31101 0,0.71108 0,1.42216 0.17777,2.13324 0.17777,0.71108 0.88885,1.42216 1.59993,1.59993 0.88885,0.17777 1.59993,0 2.31101,-0.53331 0.71108,-0.71108 1.06662,-1.42216 1.24439,-2.48878 0,-0.71108 0.17777,-1.42216 0,-2.13324 0.88885,-1.7777 1.95547,-3.5554 3.19986,-5.15533 1.24439,-1.59993 2.48878,-3.02209 4.08871,-4.26648 0.17777,-0.17777 0.35554,-0.17777 0.71108,-0.35554 0.17777,-0.17777 0.53331,-0.17777 0.71108,-0.17777 0,0 0,0 0,0 0,0 0.17777,0 0.17777,0 0.17777,0.17777 0.53331,0.35554 0.71108,0.53331 0.17777,0.17777 0.35554,0.35554 0.53331,0.53331 0.35554,0.35554 0.53331,0.88885 0.71108,1.42216 0.35554,1.06662 0.71108,1.95547 0.88885,3.02209 0.17777,1.7777 0.17777,3.73317 0,5.51087 0,0.88885 -0.17777,1.7777 -0.35554,2.66655 -0.17777,1.59993 -0.35554,3.19986 -0.53331,4.79979 0,-0.17777 0,-0.35554 0,-0.53331 0,0.17777 0,0.35554 0,0.35554 0,0.71108 -0.17777,1.24439 0.17777,1.7777 0.35554,0.53331 0.71108,0.88885 1.42216,1.06662 1.06662,0.35554 2.48878,-0.35554 2.84432,-1.59993 0.53331,-2.31101 0.71108,-4.44425 0.88885,-6.75526 0.17777,-1.7777 0.17777,-3.5554 0.17777,-5.3331 0,-1.42216 -0.17777,-2.84432 -0.53331,-4.08871 -0.17777,-1.24439 -0.71108,-2.48878 -1.24439,-3.73317 -0.53331,-1.06662 -1.24439,-2.13324 -2.31101,-2.84432 -0.53331,-0.35554 -0.88885,-0.71108 -1.42216,-0.88885 -0.71108,-0.35554 -1.42216,-0.53331 -2.31101,-0.53331 0,0 -0.17777,0 -0.17777,0 -0.17777,-0.35554 -0.71108,-0.17777 -1.06662,0 l 0,0 z"
     id="path17"
     inkscape:connector-curvature="0"
     style="fill:#010101" /><path
     class="st0"
     d="m 229.75468,26.663811 c -0.53331,0.53331 -0.71108,1.06662 -0.71108,1.7777 -0.88885,12.4439 -1.7777,24.8878 -2.48878,37.3317 0,0.53331 0,1.24439 -0.17777,1.7777 -0.17777,1.42216 -0.35554,3.02209 0.17777,4.44425 0.17777,0.88885 0.88885,1.42216 1.59993,1.59993 0.88885,0.35554 2.13324,-0.17777 2.66655,-1.06662 0.17777,-0.35554 0.35554,-0.88885 0.35554,-1.24439 0,0 0,0 0,0 0,0 0,0 0,0 0,0 0,0 0,0 0,0 0,0 0,0 0,0 0,-0.17777 0,-0.17777 0,-0.17777 0,-0.17777 0,-0.35554 0,0 0,0.17777 0,0.17777 0,-0.35554 0,-0.71108 -0.17777,-1.24439 0,-0.71108 0.17777,-1.59993 0.17777,-2.31101 0,-0.71108 0,-1.42216 0.17777,-2.13324 0,-1.24439 0.17777,-2.48878 0.17777,-3.5554 0.17777,-3.19986 0.35554,-6.22195 0.53331,-9.42181 0.35554,-5.3331 0.71108,-10.48843 1.06662,-15.82153 0.17777,-2.66655 0.35554,-5.3331 0.53331,-7.99965 0.17777,-1.24439 -1.24439,-2.48878 -2.48878,-2.48878 -0.35554,0 -0.88885,0.17777 -1.42216,0.71108 l 0,0 z m 1.59993,44.62027 c 0,0 0,0 0,0 0,0 0,0 0,0 0,0 0,0 0,0 l 0,0 z"
     id="path19"
     inkscape:connector-curvature="0"
     style="fill:#010101" /><path
     class="st0"
     d="m 241.4875,24.175031 c -1.06662,0 -2.31101,0.17777 -3.37763,0.53331 -2.13324,0.71108 -4.08871,1.7777 -5.51087,3.37763 -0.88885,0.71108 -1.42216,1.59993 -1.95547,2.66655 -0.17777,0.53331 -0.35554,0.88885 -0.53331,1.42216 -0.17777,0.53331 -0.35554,1.06662 -0.35554,1.7777 0,0.35554 0.17777,0.88885 0.53331,1.06662 0.35554,0.35554 0.71108,0.53331 1.06662,0.53331 0.35554,0 0.88885,-0.17777 1.06662,-0.53331 0.35554,-0.35554 0.35554,-0.71108 0.53331,-1.06662 0,0 0,-0.17777 0,-0.17777 0.17777,-0.53331 0.35554,-0.88885 0.35554,-1.42216 0.17777,-0.35554 0.35554,-0.71108 0.71108,-1.06662 0.53331,-0.53331 0.88885,-1.06662 1.59993,-1.42216 0.88885,-0.53331 1.7777,-1.06662 2.66655,-1.59993 0.71108,-0.35554 1.59993,-0.53331 2.48878,-0.71108 0.71108,0 1.42216,-0.17777 2.31101,0 0.53331,0 0.88885,0.17777 1.42216,0.35554 0.53331,0.17777 0.88885,0.53331 1.42216,0.88885 0.35554,0.17777 0.53331,0.53331 0.88885,0.88885 0.17777,0.35554 0.53331,0.71108 0.71108,1.06662 0.17777,0.35554 0.17777,0.71108 0.35554,1.06662 0,0.71108 0,1.24439 0,1.95547 -0.17777,0.88885 -0.35554,1.7777 -0.71108,2.48878 -0.35554,0.88885 -0.88885,1.59993 -1.42216,2.31101 -0.71108,0.71108 -1.24439,1.59993 -1.95547,2.13324 -0.88885,0.71108 -1.7777,1.59993 -2.66655,2.31101 -0.17777,0.17777 -0.53331,0.35554 -0.71108,0.53331 -0.53331,0.35554 -0.88885,0.71108 -1.42216,0.88885 -0.17777,0 -0.35554,0.17777 -0.53331,0.17777 -0.17777,0 -0.35554,0 -0.35554,0 -0.53331,0 -0.88885,0.17777 -1.24439,0.53331 -0.35554,0.35554 -0.53331,0.71108 -0.53331,1.24439 0,0.88885 0.71108,1.7777 1.7777,1.7777 0.53331,0 1.06662,0 1.59993,0 0.53331,-0.17777 1.06662,-0.35554 1.42216,-0.53331 1.06662,-0.53331 1.95547,-1.24439 2.84432,-1.95547 0.71108,-0.71108 1.59993,-1.24439 2.31101,-1.95547 0.88885,-0.71108 1.59993,-1.59993 2.31101,-2.66655 1.42216,-1.7777 2.31101,-3.73317 2.66655,-6.04418 0.17777,-1.06662 0.35554,-2.13324 0.17777,-3.19986 -0.17777,-1.24439 -0.53331,-2.31101 -1.06662,-3.19986 -1.06662,-1.95547 -3.02209,-3.19986 -5.15533,-3.91094 -0.88885,-0.35554 -1.7777,-0.35554 -2.66655,-0.35554 -0.71108,-0.17777 -0.88885,-0.17777 -1.06662,-0.17777 l 0,0 z"
     id="path21"
     inkscape:connector-curvature="0"
     style="fill:#010101" /><path
     class="st0"
     d="m 263.70875,26.663811 c -0.71108,0.17777 -1.06662,0.71108 -1.59993,1.06662 -0.53331,0.53331 -0.71108,1.42216 -0.35554,2.13324 0.17777,0.35554 0.53331,0.53331 0.71108,0.71108 -0.71108,0.71108 -1.24439,1.59993 -1.7777,2.31101 -0.71108,0.88885 -1.42216,1.95547 -1.95547,3.02209 -0.35554,0.53331 -0.53331,1.06662 -0.71108,1.59993 -0.17777,0.35554 -0.35554,0.71108 -0.35554,1.06662 -0.17777,0.35554 -0.17777,0.71108 -0.17777,1.06662 0,0.53331 0,1.06662 0.17777,1.59993 0.17777,0.71108 0.53331,1.24439 1.06662,1.7777 0.35554,0.35554 0.88885,0.71108 1.24439,1.06662 0.53331,0.35554 1.24439,0.53331 1.7777,0.71108 1.24439,0.17777 2.66655,0 3.91094,-0.35554 1.24439,-0.35554 2.31101,-1.06662 3.37763,-1.7777 1.06662,-0.71108 1.7777,-1.59993 2.84432,-2.48878 0.53331,-0.35554 0.88885,-0.88885 1.24439,-1.42216 0.35554,-0.53331 0.71108,-1.24439 1.06662,-1.95547 0,-0.17777 0.17777,-0.53331 0.17777,-0.88885 0,-0.35554 0,-0.53331 0,-0.88885 0,-0.71108 -0.17777,-1.42216 -0.53331,-2.13324 -0.53331,-1.06662 -1.24439,-2.13324 -2.13324,-3.02209 -0.17777,-0.17777 -0.17777,-0.17777 -0.35554,-0.35554 0.17777,-0.88885 -0.35554,-2.13324 -1.42216,-2.31101 -0.35554,0 -0.53331,-0.17777 -0.88885,-0.17777 -0.17777,0 -0.35554,0 -0.71108,0 -0.71108,-0.53331 -1.59993,-0.88885 -2.48878,-1.06662 -0.35554,0 -0.53331,0 -0.88885,0 -0.35554,0.53331 -0.71108,0.53331 -1.24439,0.71108 l 0,0 z m 3.73317,5.3331 c 0.71108,0.53331 1.24439,1.24439 1.7777,1.95547 0.35554,0.35554 0.53331,0.88885 0.88885,1.42216 0,0.17777 0,0.17777 0.17777,0.35554 0,0.17777 0,0.35554 0,0.35554 0,0.17777 0,0.17777 0,0.35554 -0.17777,0.17777 -0.17777,0.35554 -0.35554,0.53331 -0.35554,0.53331 -0.88885,0.88885 -1.42216,1.42216 -0.53331,0.35554 -0.88885,0.88885 -1.42216,1.24439 -0.71108,0.53331 -1.42216,0.88885 -2.13324,1.24439 -0.35554,0.17777 -0.71108,0.17777 -1.24439,0.35554 -0.35554,0 -0.71108,0 -1.06662,0 -0.17777,0 -0.35554,0 -0.35554,-0.17777 -0.17777,0 -0.35554,-0.17777 -0.53331,-0.35554 0,0 -0.17777,-0.17777 -0.17777,-0.17777 0,-0.17777 0,-0.53331 0,-0.71108 0,-0.17777 0.17777,-0.53331 0.17777,-0.71108 0.35554,-0.88885 0.88885,-1.7777 1.42216,-2.48878 0.53331,-0.71108 0.88885,-1.42216 1.42216,-2.13324 0.53331,-0.71108 1.06662,-1.24439 1.7777,-1.7777 0.17777,-0.35554 0.53331,-0.53331 1.06662,-0.71108 l 0,0 z m -6.04418,8.17742 c 0,0 0,0.17777 0,0.17777 0,0 0,-0.17777 0,-0.17777 l 0,0 z m -0.17777,0 c 0,0 0,0.17777 0,0 0,0.17777 0,0 0,0 l 0,0 z"
     id="path23"
     inkscape:connector-curvature="0"
     style="fill:#010101" /><path
     class="st0"
     d="m 299.08498,20.619631 c -1.7777,0.35554 -3.37763,0.88885 -5.15533,1.7777 -2.48878,1.06662 -4.79979,2.84432 -6.57749,4.97756 -1.42216,1.59993 -2.66655,3.5554 -3.73317,5.51087 -0.53331,-1.42216 -1.06662,-2.66655 -1.7777,-3.91094 -0.53331,-1.06662 -1.95547,-1.42216 -3.02209,-0.71108 -1.06662,0.53331 -1.42216,1.95547 -0.71108,3.02209 0.35554,0.71108 0.71108,1.42216 1.06662,2.31101 0.71108,1.59993 1.06662,3.19986 1.59993,4.79979 0.17777,0.71108 0.53331,1.42216 0.71108,2.13324 0,0.17777 0,0.35554 0,0.53331 0,0.71108 0.17777,1.59993 0.35554,2.31101 0.35554,0.88885 1.06662,1.59993 2.13324,1.59993 1.24439,0 2.31101,-1.06662 2.31101,-2.31101 0,-0.71108 0,-1.42216 -0.17777,-1.95547 0,0 0,-0.17777 0,-0.17777 0,-0.17777 0,-0.17777 0,-0.35554 0.17777,-1.24439 0.53331,-2.48878 1.06662,-3.73317 0.71108,-1.7777 1.7777,-3.19986 2.84432,-4.79979 0.88885,-1.24439 2.13324,-2.31101 3.19986,-3.19986 1.24439,-0.88885 2.48878,-1.59993 3.91094,-2.31101 1.06662,-0.35554 1.95547,-0.71108 3.02209,-1.06662 1.06662,-0.35554 1.7777,-1.59993 1.59993,-2.66655 -0.35554,-1.06662 -1.24439,-1.59993 -2.13324,-1.59993 -0.17777,-0.35554 -0.35554,-0.35554 -0.53331,-0.17777 l 0,0 z"
     id="path25"
     inkscape:connector-curvature="0"
     style="fill:#010101" /><path
     class="st0"
     d="m 315.43982,6.9313405 c -0.53331,0.53331 -0.88885,1.24439 -0.88885,2.13324 -0.53331,6.5774905 -1.06662,13.3327505 -1.42216,19.9102405 0,0.88885 -0.17777,1.7777 -0.17777,2.66655 -0.17777,2.13324 -0.53331,4.44425 -0.35554,6.57749 0,0.71108 0.17777,1.42216 0.35554,2.13324 0.17777,0.71108 0.53331,1.42216 0.88885,2.13324 0.53331,1.24439 1.59993,2.31101 2.84432,3.02209 1.42216,0.53331 2.84432,0.88885 4.26648,0.71108 0.88885,0 1.7777,-0.17777 2.48878,-0.35554 0.71108,-0.17777 1.42216,-0.53331 1.95547,-0.88885 0.88885,-0.53331 1.42216,-1.7777 1.06662,-2.84432 -0.35554,-1.24439 -1.7777,-2.13324 -3.02209,-1.7777 -0.35554,0 -0.53331,0.17777 -0.88885,0.17777 -0.53331,0 -1.24439,0 -1.7777,0 -0.53331,-0.17777 -1.06662,-0.17777 -1.59993,-0.35554 -0.17777,-0.17777 -0.17777,-0.35554 -0.35554,-0.71108 -0.17777,-0.53331 -0.35554,-1.06662 -0.35554,-1.59993 -0.17777,-2.13324 0.17777,-4.08871 0.35554,-6.22195 0,-0.35554 0,-0.71108 0,-1.24439 0.17777,-2.13324 0.35554,-4.26648 0.53331,-6.39972 0.35554,-5.15533 0.71108,-10.13289 1.06662,-15.2882205 0.17777,-1.59993 -1.42216,-3.02209 -3.02209,-3.02209 -0.71108,0.35554 -1.42216,0.71108 -1.95547,1.24439 l 0,0 z m 3.5554,33.0652205 c 0,0 0,0 0,0 0,0 0,0 0,0 l 0,0 z m 0,0 c 0,0 0.17777,0.17777 0.17777,0.17777 -0.17777,0 -0.17777,-0.17777 -0.17777,-0.17777 l 0,0 z"
     id="path27"
     inkscape:connector-curvature="0"
     style="fill:#010101" /><path
     class="st0"
     d="m 330.01696,15.464301 c -2.84432,1.42216 -5.3331,3.37763 -7.99965,5.15533 -1.06662,0.71108 -2.13324,1.59993 -3.19986,2.31101 -1.7777,1.24439 -3.5554,2.48878 -5.3331,3.91094 -0.35554,0.35554 -0.71108,0.53331 -0.88885,1.06662 -0.17777,0.53331 0,1.06662 0.17777,1.42216 0.17777,0.35554 0.71108,0.71108 1.06662,0.88885 0.35554,0.17777 1.06662,0.17777 1.42216,-0.17777 2.84432,-2.13324 5.51087,-4.08871 8.35519,-6.22195 2.48878,-1.95547 5.15533,-3.91094 7.82188,-5.68864 0.71108,-0.53331 1.06662,-1.42216 0.53331,-2.13324 -0.35554,-0.53331 -0.88885,-0.71108 -1.42216,-0.71108 0,0 -0.17777,0 -0.53331,0.17777 l 0,0 z"
     id="path29"
     inkscape:connector-curvature="0"
     style="fill:#010101" /><path
     class="st0"
     d="m 346.90511,22.752871 c -0.35554,0 -0.53331,0 -0.88885,0.17777 -0.53331,0.17777 -0.88885,0.35554 -1.42216,0.53331 -0.53331,0.17777 -0.88885,0.53331 -1.42216,0.88885 -1.06662,0.71108 -1.7777,1.59993 -2.66655,2.48878 -0.88885,0.88885 -1.59993,1.7777 -2.31101,2.84432 -0.71108,0.88885 -1.42216,1.95547 -2.13324,3.02209 -0.71108,1.06662 -1.24439,2.13324 -1.42216,3.37763 -0.17777,0.53331 -0.17777,1.06662 -0.17777,1.7777 0,0.71108 0.17777,1.42216 0.53331,2.13324 0.17777,0.53331 0.71108,0.88885 1.06662,1.24439 0.53331,0.53331 1.24439,0.71108 1.95547,0.88885 1.24439,0.35554 2.66655,0.17777 3.73317,-0.35554 1.24439,-0.53331 2.31101,-1.24439 3.37763,-2.13324 0.88885,-0.71108 1.59993,-1.7777 2.31101,-2.84432 0.71108,-1.06662 1.42216,-2.31101 1.95547,-3.5554 0,0 0,0.17777 0.17777,0.17777 0.53331,1.24439 1.24439,2.48878 2.13324,3.73317 0.88885,1.06662 1.7777,2.13324 2.84432,3.19986 0.35554,0.35554 0.88885,0.71108 1.59993,0.71108 0.53331,0 1.06662,-0.17777 1.59993,-0.71108 0.88885,-0.88885 0.88885,-2.13324 0,-3.02209 -1.06662,-1.06662 -1.95547,-2.13324 -2.84432,-3.19986 -1.06662,-1.42216 -1.7777,-2.84432 -2.48878,-4.44425 -0.35554,-1.06662 -0.71108,-1.95547 -1.59993,-2.66655 0,-0.17777 -0.17777,-0.35554 -0.17777,-0.71108 -0.53331,-0.88885 -0.88885,-1.95547 -1.59993,-2.66655 -0.17777,-0.17777 -0.17777,-0.17777 -0.35554,-0.35554 -0.17777,-0.17777 -0.53331,-0.53331 -0.88885,-0.53331 -0.35554,0 -0.53331,0 -0.88885,0 0,0 0,0 0,0 l 0,0 z m 0.17777,3.19986 c 0,0 0.17777,0 0.17777,0 0,0 0,0 -0.17777,0 l 0,0 z m -0.35554,0 c 0.17777,0.17777 0.17777,0.17777 0,0 0.17777,0.17777 0.17777,0.17777 0,0 0,0 0,0 0,0 l 0,0 z m 0,0 c 0.17777,0.17777 0.35554,0.35554 0.35554,0.71108 0.17777,0.35554 0.35554,0.71108 0.53331,1.06662 0,0 0,0.17777 -0.17777,0.17777 -0.17777,0.35554 -0.17777,0.53331 -0.35554,0.88885 -0.35554,0.71108 -0.53331,1.24439 -0.88885,1.95547 -0.88885,1.59993 -1.59993,3.19986 -2.66655,4.62202 -0.53331,0.53331 -1.06662,1.06662 -1.59993,1.59993 -0.53331,0.35554 -1.06662,0.71108 -1.59993,0.88885 -0.35554,0.17777 -0.53331,0.17777 -0.88885,0.17777 -0.17777,0 -0.35554,0 -0.71108,0 -0.17777,0 -0.17777,0 -0.35554,0 0,0 -0.17777,-0.17777 -0.17777,-0.17777 0,0 0,0 0,-0.17777 0,-0.17777 0,-0.17777 -0.17777,-0.35554 0,-0.17777 0,-0.53331 0,-0.71108 0,-0.35554 0.17777,-0.88885 0.35554,-1.24439 0.35554,-0.88885 0.88885,-1.59993 1.42216,-2.48878 0.53331,-0.88885 1.06662,-1.7777 1.7777,-2.48878 0.88885,-1.24439 1.7777,-2.31101 3.02209,-3.37763 0.53331,-0.35554 1.06662,-0.71108 1.7777,-1.06662 0.35554,0.17777 0.35554,0.17777 0.35554,0 l 0,0 z m 5.68864,3.91094 c 0,0 0,0 0,0 0,0 0,0 0,0 l 0,0 z m -13.51052,8.35519 c 0,0 0,0 0,0 0,0 0,0 0,0 l 0,0 z"
     id="path31"
     inkscape:connector-curvature="0"
     style="fill:#010101" /><path
     class="st0"
     d="m 371.2596,20.797401 c -0.17777,0.17777 -0.53331,0.35554 -0.71108,0.53331 -0.17777,0.17777 -0.35554,0.35554 -0.53331,0.53331 -0.35554,0.35554 -0.53331,0.71108 -0.88885,0.88885 -0.17777,-0.17777 -0.35554,-0.17777 -0.71108,-0.17777 -0.71108,-0.17777 -1.42216,0 -1.95547,0.17777 -0.53331,0.35554 -1.06662,0.88885 -1.24439,1.59993 -0.35554,2.31101 -0.71108,4.44425 -1.06662,6.75526 -0.17777,0.71108 -0.17777,1.42216 -0.35554,2.13324 -0.17777,0.88885 -0.53331,1.59993 -0.71108,2.48878 -0.35554,1.24439 -0.35554,2.31101 -0.53331,3.5554 0,1.06662 0.88885,2.13324 1.95547,2.48878 0.71108,0.17777 1.42216,0 1.95547,-0.17777 0.53331,-0.35554 0.88885,-0.88885 1.24439,-1.59993 0.17777,-0.35554 0.35554,-0.71108 0.35554,-1.24439 0.17777,-0.53331 0.17777,-1.24439 0.35554,-1.7777 0.17777,-0.71108 0.17777,-1.24439 0.35554,-1.95547 0,-0.53331 0.17777,-0.88885 0.17777,-1.42216 0.35554,-1.42216 0.88885,-2.66655 1.42216,-3.91094 0.71108,-1.42216 1.42216,-2.84432 2.31101,-4.08871 0.35554,-0.35554 0.53331,-0.71108 0.88885,-1.06662 0.17777,0 0.17777,0 0.35554,0 0,0 0.17777,0 0.17777,0 0,0 0.17777,0.17777 0.17777,0.17777 0.35554,0.35554 0.71108,0.71108 1.06662,1.06662 0.53331,0.71108 0.88885,1.59993 1.24439,2.48878 1.24439,2.84432 1.7777,6.04418 2.13324,9.24404 0,0.17777 0,0.35554 0,0.71108 0,0.53331 0.17777,1.06662 0.71108,1.59993 0.35554,0.35554 0.88885,0.71108 1.59993,0.71108 1.06662,0 2.31101,-1.06662 2.13324,-2.13324 -0.17777,-1.95547 -0.53331,-3.91094 -0.88885,-5.86641 -0.35554,-1.95547 -1.06662,-4.08871 -1.95547,-5.86641 -0.53331,-1.06662 -0.88885,-1.95547 -1.59993,-2.84432 -0.71108,-0.88885 -1.42216,-1.7777 -2.31101,-2.48878 -0.88885,-0.53331 -1.7777,-0.88885 -2.66655,-0.88885 -0.17777,0 -0.35554,0 -0.53331,0 -0.35554,-0.35554 -1.24439,0 -1.95547,0.35554 l 0,0 z"
     id="path33"
     inkscape:connector-curvature="0"
     style="fill:#010101" /><path
     class="st0"
     d="m 401.83604,19.019701 c -1.06662,0.35554 -1.7777,1.06662 -2.66655,1.59993 -0.88885,0.71108 -1.59993,1.59993 -2.31101,2.31101 -0.71108,0.88885 -1.59993,1.7777 -2.31101,2.84432 -0.71108,1.06662 -1.42216,1.95547 -2.13324,3.02209 -0.35554,0.53331 -0.71108,0.88885 -0.88885,1.42216 -0.35554,0.53331 -0.53331,1.06662 -0.71108,1.7777 -0.17777,0.53331 -0.35554,1.06662 -0.35554,1.59993 -0.17777,0.71108 -0.17777,1.24439 -0.17777,1.95547 0,1.24439 0.35554,2.31101 0.88885,3.37763 0.35554,0.53331 0.71108,1.06662 1.06662,1.42216 0.35554,0.35554 0.71108,0.71108 1.06662,1.06662 0.88885,0.71108 1.95547,1.42216 3.02209,1.95547 1.06662,0.53331 2.31101,0.88885 3.5554,1.06662 0.71108,0.17777 1.42216,0.17777 1.95547,0.17777 0.71108,0 1.24439,0 1.95547,0 1.42216,-0.17777 2.84432,-0.17777 4.26648,-0.53331 0.35554,-0.17777 0.71108,-0.35554 1.06662,-0.53331 0.35554,-0.35554 0.71108,-1.06662 0.71108,-1.59993 0,-0.53331 -0.17777,-1.24439 -0.71108,-1.59993 -0.35554,-0.35554 -1.06662,-0.71108 -1.59993,-0.71108 -0.88885,0.17777 -1.95547,0.17777 -2.84432,0.35554 -1.24439,0 -2.31101,0.17777 -3.5554,0 -0.88885,-0.17777 -1.59993,-0.35554 -2.31101,-0.53331 -0.88885,-0.35554 -1.7777,-0.88885 -2.48878,-1.42216 -0.35554,-0.35554 -0.88885,-0.71108 -1.24439,-1.06662 -0.17777,-0.17777 -0.35554,-0.53331 -0.35554,-0.71108 -0.17777,-0.35554 -0.17777,-0.71108 -0.35554,-1.24439 0,-0.35554 0,-0.71108 0,-1.24439 0.17777,-0.53331 0.17777,-0.88885 0.35554,-1.42216 0.53331,-1.06662 1.06662,-1.95547 1.59993,-2.84432 0.53331,-1.06662 1.24439,-2.13324 1.95547,-3.02209 1.06662,-1.24439 2.13324,-2.66655 3.37763,-3.73317 0.53331,-0.35554 1.06662,-0.71108 1.59993,-0.88885 0.35554,-0.17777 0.53331,-0.17777 0.88885,-0.35554 0,0 0,0 0,0 0,0.17777 0,0.17777 0,0.35554 0,0.17777 0,0.53331 0,0.71108 0,0.88885 0.71108,1.59993 1.59993,1.59993 0.88885,0 1.59993,-0.71108 1.59993,-1.59993 0,-0.53331 0,-1.06662 -0.17777,-1.42216 -0.17777,-0.53331 -0.35554,-0.88885 -0.53331,-1.42216 -0.35554,-0.88885 -1.42216,-1.59993 -2.31101,-1.59993 0,0 0,0 -0.17777,0 -0.53331,0.17777 -1.42216,0.35554 -2.31101,0.88885 l 0,0 z m 2.66655,3.02209 c 0,0 0,0 0,0 0,0 0,0 0,0 l 0,0 z"
     id="path35"
     inkscape:connector-curvature="0"
     style="fill:#010101" /><path
     class="st0"
     d="m 427.07938,20.975171 c -0.71108,0.17777 -1.59993,0.53331 -2.31101,0.88885 -1.42216,0.88885 -2.84432,1.95547 -3.91094,3.37763 -1.06662,1.24439 -1.7777,2.48878 -2.48878,3.91094 -0.71108,-0.17777 -1.24439,-0.17777 -1.95547,-0.53331 -0.17777,0 -0.17777,-0.17777 -0.35554,-0.17777 -0.88885,-0.53331 -2.13324,-0.17777 -2.66655,0.71108 -0.53331,0.88885 -0.17777,2.13324 0.71108,2.66655 1.06662,0.53331 2.31101,0.88885 3.37763,1.06662 0,0.53331 0,1.06662 0.17777,1.59993 0.17777,0.71108 0.35554,1.42216 0.71108,2.13324 0.35554,0.71108 0.71108,1.24439 1.24439,1.7777 0.35554,0.53331 0.88885,1.06662 1.59993,1.42216 0.71108,0.53331 1.42216,1.06662 2.13324,1.59993 1.24439,0.71108 2.84432,1.24439 4.26648,1.7777 1.7777,0.53331 3.37763,0.71108 5.15533,0.71108 1.7777,0 3.37763,-0.17777 5.15533,-0.53331 1.7777,-0.35554 3.5554,-0.71108 5.3331,-1.24439 3.73317,-1.06662 7.46634,-1.95547 11.19951,-3.19986 0.53331,-0.17777 1.06662,-0.53331 1.42216,-1.06662 0.35554,-0.53331 0.35554,-1.24439 0.17777,-1.7777 -0.35554,-1.24439 -1.7777,-2.13324 -3.02209,-1.59993 -1.95547,0.71108 -3.91094,1.06662 -5.86641,1.59993 -1.42216,0.35554 -2.66655,0.71108 -4.08871,1.06662 -1.24439,0.35554 -2.66655,0.71108 -4.08871,1.06662 -1.24439,0.35554 -2.48878,0.53331 -3.73317,0.71108 -1.59993,0.17777 -3.19986,0.17777 -4.79979,0 -1.42216,-0.17777 -2.84432,-0.53331 -4.08871,-1.06662 -0.88885,-0.35554 -1.7777,-1.06662 -2.66655,-1.59993 -0.35554,-0.35554 -0.71108,-0.71108 -1.06662,-1.06662 -0.17777,-0.17777 -0.17777,-0.35554 -0.35554,-0.53331 -0.17777,-0.35554 -0.17777,-0.71108 -0.35554,-1.06662 0,-0.17777 0,-0.17777 0,-0.35554 0.71108,0 1.24439,-0.17777 1.7777,-0.35554 1.59993,-0.35554 3.02209,-1.06662 4.26648,-1.95547 0.71108,-0.35554 1.24439,-0.88885 1.7777,-1.42216 0.53331,-0.53331 1.06662,-1.24439 1.59993,-1.7777 0.53331,-0.53331 1.06662,-1.24439 1.24439,-1.95547 0.17777,-0.71108 0.17777,-1.42216 0,-2.13324 -0.17777,-0.71108 -0.71108,-1.42216 -1.24439,-1.95547 -0.71108,-0.53331 -1.42216,-0.53331 -2.31101,-0.71108 -0.17777,0 -0.35554,0 -0.35554,0 -0.53331,-0.17777 -1.06662,0 -1.59993,0 l 0,0 z m 1.95547,3.91094 c 0,0 0,0 0,0 l 0,0 c 0,0 0,0 0,0 0,0 0,0 0,0 l 0,0 z m -0.35554,0 c -0.71108,0.88885 -1.42216,1.7777 -2.31101,2.66655 -0.71108,0.53331 -1.42216,0.88885 -2.13324,1.24439 -0.35554,0.17777 -0.53331,0.17777 -0.88885,0.35554 0.17777,-0.35554 0.53331,-0.71108 0.71108,-1.06662 0.53331,-0.53331 1.06662,-1.06662 1.59993,-1.59993 0.53331,-0.35554 1.24439,-0.71108 1.7777,-1.06662 0.35554,-0.17777 0.53331,-0.17777 0.88885,-0.17777 0.17777,-0.35554 0.35554,-0.35554 0.35554,-0.35554 l 0,0 z m 0.71108,0 c 0,0 0,0 0,0 0,0 0,0 0,0 l 0,0 z"
     id="path37"
     inkscape:connector-curvature="0"
     style="fill:#010101" /><path
     class="st0"
     d="m 503.16494,22.397331 c -0.17777,0 -0.35554,0 -0.53331,0 -0.71108,0 -1.42216,0 -1.95547,0.17777 -0.88885,0.17777 -1.7777,0.35554 -2.48878,0.88885 -2.66655,1.24439 -4.97756,3.37763 -6.04418,6.04418 -0.35554,0.71108 -0.53331,1.42216 -0.71108,2.13324 -0.17777,1.06662 -0.17777,1.95547 0,3.02209 0.17777,1.42216 0.71108,2.84432 1.59993,4.08871 0.88885,1.24439 1.7777,2.13324 3.02209,2.84432 1.24439,0.88885 2.84432,1.24439 4.44425,1.42216 1.59993,0.17777 3.37763,0 4.97756,-0.71108 1.42216,-0.71108 2.66655,-1.7777 3.73317,-3.19986 0.88885,-1.24439 1.59993,-2.66655 1.95547,-4.08871 0.35554,-1.7777 0.35554,-3.37763 -0.17777,-5.15533 -0.35554,-1.59993 -1.24439,-3.02209 -2.31101,-4.26648 -0.88885,-1.06662 -1.95547,-2.13324 -3.19986,-2.66655 -0.53331,-0.17777 -0.88885,-0.35554 -1.42216,-0.35554 -0.35554,-0.17777 -0.71108,-0.17777 -0.88885,-0.17777 l 0,0 z m -0.35554,5.51087 c 0,0 0.17777,0 0.17777,0 0.17777,0.17777 0.17777,0.17777 0.35554,0.35554 0.17777,0.17777 0.17777,0.35554 0.35554,0.53331 0,0.17777 0.17777,0.35554 0.17777,0.71108 0,0.17777 0,0.53331 0,0.71108 0,0.17777 0,0.35554 -0.17777,0.53331 -0.35554,1.24439 0.17777,2.48878 1.24439,3.02209 0,0.17777 -0.17777,0.35554 -0.17777,0.53331 -0.17777,0.35554 -0.53331,0.88885 -0.71108,1.24439 -0.17777,0.17777 -0.53331,0.53331 -0.71108,0.71108 -0.17777,0.17777 -0.53331,0.35554 -0.71108,0.35554 -0.17777,0 -0.35554,0.17777 -0.53331,0.17777 -0.53331,0 -0.88885,0 -1.42216,0 -0.35554,0 -0.71108,-0.17777 -1.06662,-0.35554 -0.35554,-0.17777 -0.71108,-0.35554 -0.88885,-0.53331 -0.17777,-0.17777 -0.53331,-0.53331 -0.71108,-0.71108 -0.17777,-0.35554 -0.35554,-0.53331 -0.53331,-0.88885 -0.17777,-0.35554 -0.17777,-0.71108 -0.35554,-1.06662 0,-0.35554 0,-0.71108 0,-0.88885 0,-0.17777 0.17777,-0.53331 0.17777,-0.71108 0.17777,-0.53331 0.53331,-0.88885 0.88885,-1.42216 0.35554,-0.35554 0.71108,-0.71108 1.06662,-1.06662 0.53331,-0.35554 0.88885,-0.71108 1.42216,-0.88885 0.35554,-0.17777 0.71108,-0.17777 1.24439,-0.35554 0.17777,0 0.53331,0 0.88885,0 l 0,0 z m 1.06662,1.7777 c 0,0 0,0.17777 0,0.17777 0,0 0,0 0,-0.17777 l 0,0 z"
     id="path39"
     inkscape:connector-curvature="0"
     style="fill:#010101" /><path
     class="st0"
     d="m 527.51943,6.0424905 c -0.53331,0.35554 -1.06662,0.71108 -1.59993,1.24439 -0.53331,0.53331 -1.06662,1.24439 -1.59993,1.95547 -0.88885,1.2443905 -1.42216,2.4887805 -2.13324,3.9109405 -0.71108,1.59993 -1.24439,3.19986 -1.7777,4.79979 -0.35554,1.59993 -0.88885,3.19986 -1.06662,4.79979 -0.35554,1.95547 -0.71108,3.91094 -0.88885,5.86641 -0.35554,3.73317 -0.53331,7.46634 -0.71108,11.19951 -0.17777,2.48878 -0.35554,5.15533 -0.71108,7.64411 0,0.35554 -0.17777,0.88885 -0.17777,1.24439 -0.35554,1.42216 0.35554,2.84432 1.95547,3.37763 1.42216,0.35554 2.84432,-0.53331 3.37763,-1.95547 0.71108,-1.95547 0.88885,-3.91094 0.88885,-6.04418 0.17777,-1.42216 0.17777,-3.02209 0.17777,-4.44425 0,-1.42216 0,-2.84432 0,-4.26648 0,-3.37763 0.17777,-6.75526 0.71108,-10.13289 0.17777,-1.7777 0.71108,-3.37763 1.06662,-5.15533 0.35554,-1.59993 0.88885,-3.19986 1.42216,-4.62202 0.71108,-1.42216 1.42216,-3.02209 2.31101,-4.26648 0.17777,-0.17777 0.35554,-0.53331 0.71108,-0.71108 0,0 0.17777,-0.17777 0.17777,-0.17777 0,0 0.17777,0 0.17777,0 0.35554,0 0.53331,0.17777 0.88885,0.17777 0.17777,0 0.17777,0.17777 0.35554,0.17777 1.59993,1.42216 3.02209,3.02209 4.26648,4.79979 0.35554,0.53331 1.06662,0.71108 1.59993,0.71108 0.53331,0 1.24439,-0.17777 1.59993,-0.71108 0.35554,-0.35554 0.71108,-1.06662 0.71108,-1.59993 0,-0.71108 -0.35554,-1.06662 -0.71108,-1.59993 -0.88885,-1.24439 -1.95547,-2.3110105 -3.02209,-3.5554005 -0.53331,-0.53331 -0.88885,-0.88885 -1.42216,-1.42216 -0.71108,-0.71108 -1.42216,-1.06662 -2.31101,-1.42216 -0.71108,-0.17777 -1.42216,-0.35554 -2.13324,-0.35554 -0.17777,0 -0.17777,0 -0.35554,0 -0.35554,-0.17777 -1.06662,0.17777 -1.7777,0.53331 l 0,0 z m 2.84432,3.91094 c -0.17777,0 -0.17777,0 -0.35554,0 0.17777,0.1777705 0.17777,0.1777705 0.35554,0 l 0,0 z"
     id="path41"
     inkscape:connector-curvature="0"
     style="fill:#010101" /><path
     class="st0"
     d="m 533.0303,24.352801 c -2.31101,0.17777 -4.44425,0.53331 -6.75526,0.88885 -4.44425,0.71108 -8.8885,2.13324 -12.97721,4.44425 -0.88885,0.53331 -1.24439,1.7777 -0.71108,2.66655 0.53331,0.88885 1.7777,1.24439 2.66655,0.71108 1.06662,-0.53331 1.95547,-1.06662 3.02209,-1.42216 1.95547,-0.88885 4.08871,-1.42216 6.22195,-1.95547 1.24439,-0.35554 2.48878,-0.53331 3.73317,-0.71108 1.7777,-0.35554 3.5554,-0.71108 5.3331,-0.88885 0.35554,0 0.53331,-0.17777 0.88885,-0.53331 0.35554,-0.35554 0.53331,-0.88885 0.53331,-1.24439 0,-0.53331 -0.17777,-0.88885 -0.53331,-1.24439 -0.35554,-0.53331 -0.88885,-0.71108 -1.42216,-0.71108 0,0 0,0 0,0 l 0,0 z m -14.75491,7.28857 c 0,0 -0.17777,0 -0.17777,0 0.17777,0 0.17777,0 0.17777,0 l 0,0 z"
     id="path43"
     inkscape:connector-curvature="0"
     style="fill:#010101" /><path
     class="st0"
     d="m 570.362,7.4646505 c -0.71108,0.71108 -0.88885,1.42216 -1.06662,2.48878 -0.71108,7.9996505 -1.42216,15.9993005 -2.13324,23.9989505 -0.53331,6.93303 -1.24439,13.86606 -1.59993,20.62132 -0.17777,1.7777 1.59993,3.37763 3.37763,3.37763 0.88885,0 1.7777,-0.35554 2.31101,-1.06662 0.71108,-0.71108 0.88885,-1.42216 1.06662,-2.31101 1.24439,-14.93268 2.66655,-29.86536 3.91094,-44.7980405 0,-0.88885 -0.35554,-1.7777 -1.06662,-2.48878 -0.71108,-0.71108 -1.59993,-1.06662 -2.48878,-1.06662 -0.71108,0.17777 -1.59993,0.53331 -2.31101,1.24439 l 0,0 z"
     id="path45"
     inkscape:connector-curvature="0"
     style="fill:#010101" /><path
     class="st0"
     d="m 574.62848,21.864021 c -0.35554,0.17777 -0.71108,0.53331 -1.06662,0.88885 -0.53331,0.35554 -1.06662,0.71108 -1.42216,1.24439 -0.88885,0.71108 -1.59993,1.7777 -2.13324,2.66655 -0.35554,0.35554 -0.53331,0.88885 -0.71108,1.42216 -0.35554,0.53331 -0.53331,1.24439 -0.71108,1.95547 -0.17777,1.06662 0.35554,2.13324 1.24439,2.31101 0.88885,0.35554 2.13324,-0.35554 2.31101,-1.24439 0,-0.35554 0.17777,-0.71108 0.17777,-0.88885 0.35554,-0.71108 0.71108,-1.42216 1.06662,-1.95547 0.53331,-0.71108 1.24439,-1.24439 1.95547,-1.95547 0.53331,-0.35554 1.06662,-0.71108 1.59993,-1.06662 0.17777,0 0.35554,0 0.35554,0.17777 0.35554,0.17777 0.53331,0.35554 0.88885,0.53331 0.17777,0.17777 0.35554,0.35554 0.53331,0.53331 0.17777,0.17777 0.35554,0.35554 0.35554,0.71108 0.17777,0.71108 0.35554,1.42216 0.53331,2.13324 0.17777,0.88885 0.17777,1.59993 0,2.48878 -0.17777,1.06662 -0.53331,2.13324 -0.88885,3.19986 -0.71108,1.7777 -1.7777,3.37763 -3.02209,4.97756 -1.24439,1.59993 -2.66655,3.37763 -4.26648,4.79979 -0.17777,0.17777 -0.53331,0.35554 -0.88885,0.53331 -1.24439,0.71108 -1.59993,2.31101 -0.88885,3.37763 0.35554,0.53331 0.88885,0.88885 1.42216,1.06662 0.71108,0.17777 1.24439,0 1.95547,-0.17777 0.53331,-0.17777 0.88885,-0.53331 1.24439,-0.88885 0.35554,-0.35554 0.71108,-0.53331 1.06662,-0.88885 0.71108,-0.71108 1.24439,-1.42216 1.7777,-2.13324 0.53331,-0.71108 1.06662,-1.59993 1.7777,-2.31101 2.66655,-3.73317 4.97756,-7.99965 4.79979,-12.62167 0,-0.88885 -0.17777,-1.95547 -0.35554,-2.84432 -0.17777,-1.06662 -0.53331,-1.95547 -1.06662,-2.84432 -0.53331,-0.88885 -1.24439,-1.42216 -1.95547,-2.13324 -0.35554,-0.35554 -0.71108,-0.53331 -1.24439,-0.71108 -0.53331,-0.35554 -1.24439,-0.53331 -1.95547,-0.53331 0,0 -0.17777,0 -0.17777,0 -0.71108,-0.71108 -1.59993,-0.35554 -2.31101,0.17777 l 0,0 z m 2.13324,3.02209 c 0,0 0,0 0,0 0,0 0,0 0,0 l 0,0 z m 0.17777,0 c 0,0 -0.17777,0 -0.17777,0.17777 0,-0.17777 0,-0.17777 0.17777,-0.17777 l 0,0 z"
     id="path47"
     inkscape:connector-curvature="0"
     style="fill:#010101" /><path
     class="st0"
     d="m 599.69405,20.441861 c -1.24439,0.35554 -2.48878,1.42216 -3.37763,2.13324 -0.88885,0.88885 -1.7777,1.95547 -2.48878,3.02209 -0.35554,0 -0.53331,0.17777 -0.88885,0.35554 -0.53331,0.35554 -0.71108,0.71108 -0.88885,1.24439 -0.17777,0.53331 0,1.06662 0.17777,1.59993 -0.53331,1.59993 -0.88885,3.02209 -0.88885,4.79979 0,1.24439 0.17777,2.66655 0.71108,3.91094 0.53331,1.24439 1.24439,2.48878 2.31101,3.37763 0.88885,0.88885 1.95547,1.42216 3.19986,1.7777 1.24439,0.35554 2.48878,0.53331 3.73317,0.71108 1.42216,0.17777 2.84432,0 4.26648,0 0.71108,0 1.24439,-0.17777 1.59993,-0.71108 0.35554,-0.35554 0.71108,-1.06662 0.71108,-1.59993 0,-1.24439 -1.06662,-2.31101 -2.31101,-2.31101 -1.59993,0 -3.02209,0 -4.62202,-0.17777 -0.88885,-0.17777 -1.59993,-0.35554 -2.48878,-0.71108 -0.35554,-0.17777 -0.53331,-0.35554 -0.88885,-0.53331 -0.35554,-0.17777 -0.53331,-0.53331 -0.88885,-0.88885 -0.17777,-0.35554 -0.35554,-0.53331 -0.53331,-0.88885 -0.17777,-0.53331 -0.35554,-1.06662 -0.35554,-1.59993 0,-0.71108 0,-1.42216 0,-2.13324 0.17777,-0.53331 0.17777,-1.24439 0.53331,-1.7777 0.17777,0 0.35554,0 0.35554,0 1.42216,-0.17777 2.66655,-0.53331 3.91094,-1.06662 1.06662,-0.35554 1.95547,-1.06662 2.66655,-1.95547 0.53331,-0.53331 0.88885,-1.06662 1.06662,-1.59993 0.17777,-0.53331 0.35554,-1.06662 0.35554,-1.59993 0,-0.53331 -0.17777,-0.88885 -0.17777,-1.42216 0,-0.17777 -0.17777,-0.53331 -0.35554,-0.71108 -0.17777,-0.35554 -0.53331,-0.71108 -0.88885,-0.88885 -0.53331,-0.35554 -1.24439,-0.53331 -1.7777,-0.53331 -0.17777,0 -0.17777,0 -0.35554,0 -0.53331,0 -1.06662,0.17777 -1.42216,0.17777 l 0,0 z m 0.88885,3.19986 c 0,0 0,0.17777 0.17777,0.17777 -0.17777,-0.17777 -0.17777,-0.17777 -0.17777,-0.17777 l 0,0 z"
     id="path49"
     inkscape:connector-curvature="0"
     style="fill:#010101" /><path
     class="st0"
     d="m 615.51558,22.752871 c -0.53331,0.17777 -1.24439,0.35554 -1.7777,0.53331 -0.53331,0.17777 -1.06662,0.53331 -1.59993,0.71108 -0.53331,0.35554 -0.71108,1.06662 -0.35554,1.59993 0.35554,0.53331 1.06662,0.71108 1.59993,0.35554 0.53331,-0.17777 0.88885,-0.53331 1.42216,-0.71108 0.35554,-0.17777 0.88885,-0.35554 1.24439,-0.35554 0.71108,-0.17777 1.06662,-0.88885 0.88885,-1.59993 -0.17777,-0.53331 -0.71108,-0.88885 -1.24439,-0.88885 0,0.35554 0,0.35554 -0.17777,0.35554 l 0,0 z"
     id="path51"
     inkscape:connector-curvature="0"
     style="fill:#010101" /><path
     class="st0"
     d="m 613.0268,29.863671 c -0.35554,1.95547 -0.88885,3.91094 -1.24439,5.86641 -0.35554,1.95547 -0.88885,4.08871 -0.88885,6.04418 0,1.06662 0.88885,1.95547 1.95547,1.95547 1.06662,0 1.95547,-0.88885 1.95547,-1.95547 0,-0.35554 0,-0.71108 0,-1.06662 0.17777,-1.42216 0.53331,-2.84432 0.71108,-4.26648 0.35554,-1.7777 0.71108,-3.5554 1.06662,-5.51087 0.17777,-0.53331 0,-1.06662 -0.17777,-1.59993 -0.35554,-0.53331 -0.71108,-0.71108 -1.24439,-0.88885 -0.17777,0 -0.35554,0 -0.53331,0 -0.35554,0 -1.42216,0.53331 -1.59993,1.42216 l 0,0 z"
     id="path53"
     inkscape:connector-curvature="0"
     style="fill:#010101" /><path
     class="st0"
     d="m 632.5815,24.352801 c -0.88885,0.71108 -1.7777,1.42216 -2.66655,2.31101 -0.53331,0.53331 -1.06662,1.06662 -1.59993,1.59993 -0.17777,0.17777 -0.17777,0.17777 -0.35554,0.35554 -0.53331,-0.88885 -1.42216,-1.42216 -2.31101,-1.42216 -1.42216,0 -2.84432,1.24439 -2.84432,2.84432 0,1.59993 0.35554,3.02209 0.53331,4.62202 0.17777,0.71108 0.71108,1.24439 1.24439,1.59993 0.88885,0.53331 1.95547,0.53331 2.84432,0 0.88885,-0.53331 1.7777,-1.06662 2.48878,-1.7777 0.71108,-0.71108 1.24439,-1.42216 1.7777,-2.13324 0.53331,-0.71108 1.06662,-1.24439 1.59993,-1.7777 0.71108,-0.88885 1.59993,-1.7777 2.48878,-2.48878 0,0 0,0 0,0 0,0 0,0 0.17777,0 0,0 0.17777,0 0.17777,0 0,0 0.17777,0.17777 0.17777,0.17777 0.17777,0.17777 0.53331,0.53331 0.71108,0.71108 0.35554,0.53331 0.71108,1.06662 0.88885,1.7777 0.53331,1.24439 0.71108,2.48878 0.88885,3.91094 0.17777,1.06662 0.17777,1.95547 0.17777,3.02209 0,1.24439 1.06662,2.31101 2.31101,2.31101 1.24439,0 2.31101,-1.06662 2.31101,-2.31101 0.17777,-2.31101 -0.17777,-4.62202 -0.88885,-6.93303 -0.88885,-2.84432 -2.66655,-6.22195 -5.86641,-6.93303 -0.35554,-0.17777 -0.71108,-0.17777 -1.06662,-0.17777 -1.06662,-0.35554 -2.31101,0 -3.19986,0.71108 l 0,0 z m 3.37763,3.37763 c 0,0.17777 0,0.17777 0,0 0,0.17777 0,0.17777 0,0 l 0,0 z m 0.17777,0.17777 c 0,0 0,0 0,0 0,0 0,0 0,0 l 0,0 z m 0,0.17777 c 0,0 0.17777,0 0.17777,0.17777 0,-0.17777 -0.17777,-0.17777 -0.17777,-0.17777 l 0,0 z m -0.71108,0 c 0,0 0,0.17777 0,0 0,0.17777 0,0 0,0 l 0,0 z"
     id="path55"
     inkscape:connector-curvature="0"
     style="fill:#010101" /><path
     class="st0"
     d="m 658.89146,21.864021 c -1.06662,0.35554 -2.13324,0.88885 -3.19986,1.42216 -0.53331,0.35554 -0.88885,0.71108 -1.24439,0.88885 -0.53331,0.35554 -0.88885,0.71108 -1.24439,1.24439 -0.88885,1.06662 -1.24439,2.13324 -1.42216,3.5554 0,0.53331 0,1.06662 0,1.59993 0.17777,0.71108 0.35554,1.24439 0.71108,1.7777 0.17777,0.53331 0.71108,0.88885 1.06662,1.42216 0.35554,0.53331 1.06662,0.88885 1.59993,1.24439 0.53331,0.35554 1.06662,0.53331 1.59993,0.71108 0.71108,0.17777 1.42216,0.35554 2.13324,0.53331 1.59993,0.17777 3.02209,-0.17777 4.44425,-0.71108 0.35554,1.95547 0.71108,3.73317 1.06662,5.68864 0.17777,1.59993 0.17777,3.02209 0,4.62202 -0.17777,1.24439 -0.53331,2.31101 -0.88885,3.37763 -0.35554,0.88885 -0.88885,1.59993 -1.42216,2.48878 -0.88885,1.06662 -1.95547,2.13324 -3.02209,3.02209 -1.95547,1.42216 -3.91094,2.48878 -6.04418,3.37763 -2.31101,1.06662 -4.79979,1.95547 -7.28857,2.66655 -2.66655,0.71108 -5.3331,1.24439 -7.99965,1.7777 -1.95547,0.17777 -3.91094,0.53331 -5.86641,0.71108 -2.48878,0.35554 -4.97756,0.71108 -7.64411,0.71108 -0.71108,0 -1.24439,0.17777 -1.59993,0.71108 -0.53331,0.35554 -0.71108,1.06662 -0.71108,1.59993 0,1.24439 1.06662,2.48878 2.31101,2.31101 2.66655,-0.17777 5.51087,-0.35554 8.17742,-0.71108 3.02209,-0.35554 6.04418,-0.71108 9.06627,-1.24439 3.37763,-0.53331 6.93303,-1.59993 10.13289,-2.84432 1.59993,-0.53331 3.02209,-1.24439 4.62202,-1.95547 1.59993,-0.71108 3.02209,-1.42216 4.44425,-2.31101 1.42216,-0.88885 2.66655,-1.95547 3.73317,-3.02209 1.24439,-1.24439 2.31101,-2.48878 3.19986,-4.08871 0.71108,-1.42216 1.24439,-3.02209 1.7777,-4.44425 0.35554,-1.7777 0.53331,-3.5554 0.53331,-5.3331 -0.17777,-3.37763 -1.06662,-6.57749 -1.59993,-9.95512 0,-0.35554 -0.17777,-0.71108 -0.17777,-1.06662 0.17777,-0.35554 0.35554,-0.71108 0.53331,-1.24439 0.17777,-0.53331 0.17777,-1.24439 0.17777,-1.7777 0.17777,-0.53331 0.35554,-1.06662 0.35554,-1.59993 0.17777,-0.53331 0.17777,-1.06662 0.17777,-1.42216 0,-0.35554 0,-0.53331 0,-0.88885 0,-0.35554 -0.17777,-0.71108 -0.35554,-1.06662 -0.17777,-0.35554 -0.53331,-0.88885 -0.88885,-1.24439 -0.35554,-0.35554 -0.88885,-0.71108 -1.59993,-1.06662 -1.06662,-0.53331 -2.48878,-0.71108 -3.73317,-0.71108 -1.7777,0.88885 -2.84432,1.06662 -3.91094,1.24439 l 0,0 z m 4.44425,3.5554 c 0.35554,0 0.71108,0.17777 1.06662,0.35554 0,0 0.17777,0 0.17777,0.17777 0.17777,0.17777 0.17777,0.17777 0.35554,0.35554 0,0.35554 -0.17777,0.53331 -0.17777,0.88885 0,0 0,0 0,0 -0.53331,0.17777 -1.06662,0.53331 -1.42216,1.06662 -0.17777,0.35554 -0.35554,0.88885 -0.53331,1.24439 0,0.17777 -0.17777,0.53331 -0.17777,0.71108 -0.35554,0.35554 -0.88885,0.53331 -1.42216,0.71108 -0.53331,0.17777 -0.88885,0.35554 -1.42216,0.35554 -0.35554,0 -0.88885,0 -1.24439,0 -0.35554,0 -0.71108,-0.17777 -1.06662,-0.35554 -0.17777,0 -0.35554,-0.17777 -0.53331,-0.17777 -0.17777,-0.17777 -0.35554,-0.35554 -0.53331,-0.53331 -0.17777,-0.17777 -0.17777,-0.35554 -0.35554,-0.53331 0,0 0,0 0,-0.17777 0,-0.17777 0,-0.35554 0,-0.53331 0,-0.17777 0,-0.35554 0.17777,-0.53331 0,-0.17777 0.17777,-0.35554 0.17777,-0.35554 0.35554,-0.53331 0.88885,-0.88885 1.24439,-1.24439 0.53331,-0.35554 1.06662,-0.71108 1.59993,-0.88885 0.71108,-0.17777 1.24439,-0.35554 1.95547,-0.53331 0.88885,0 1.42216,0 2.13324,0 l 0,0 z m -10.31066,32.53191 c -0.17777,0 -0.35554,0.17777 -0.53331,0.17777 0.17777,0 0.35554,-0.17777 0.53331,-0.17777 l 0,0 z"
     id="path57"
     inkscape:connector-curvature="0"
     style="fill:#010101" /><path
     class="st0"
     d="m 699.06748,6.0424905 c -0.17777,4.9775605 -0.35554,9.9551205 -0.53331,14.9326805 0,2.31101 -0.17777,4.44425 -0.17777,6.75526 0,2.31101 0.35554,4.62202 1.06662,6.93303 0.35554,1.06662 0.71108,2.13324 1.24439,3.19986 0.17777,0.53331 0.53331,0.88885 0.71108,1.24439 0.35554,0.71108 0.71108,1.24439 1.24439,1.7777 0.17777,0 0.17777,0.17777 0.35554,0.35554 0.35554,0.35554 0.71108,0.53331 1.06662,0.71108 0.53331,0.35554 1.06662,0.35554 1.59993,0.53331 0.53331,0.17777 1.24439,0.17777 1.7777,0.17777 0.53331,0 1.24439,-0.17777 1.7777,-0.17777 1.06662,-0.17777 2.13324,-0.71108 3.02209,-1.24439 1.06662,-0.53331 2.13324,-1.42216 3.02209,-2.31101 1.42216,-1.42216 2.48878,-3.19986 3.73317,-4.79979 0.53331,-0.88885 1.06662,-1.7777 1.42216,-2.84432 0.53331,-1.24439 0.35554,-2.48878 0,-3.5554 -0.35554,-1.06662 -0.88885,-1.95547 -1.7777,-2.66655 -0.71108,-0.71108 -1.59993,-1.24439 -2.48878,-1.59993 -1.95547,-1.06662 -4.26648,-1.42216 -6.39972,-1.95547 -1.06662,-0.17777 -2.31101,-0.35554 -3.37763,-0.53331 -0.35554,0 -0.88885,0 -1.42216,-0.17777 0,-0.88885 0,-1.7777 0.17777,-2.48878 0.17777,-4.08871 0.35554,-7.999651 0.53331,-12.0883605 0,-1.59993 -1.42216,-3.02209 -3.02209,-3.02209 -2.13324,-0.35554 -3.37763,1.06662 -3.5554,2.84432 l 0,0 z m 6.04418,20.6213205 c 2.48878,0.35554 5.15533,0.71108 7.46634,1.59993 0.53331,0.17777 1.06662,0.53331 1.42216,0.88885 0,0 0,0 0.17777,0.17777 -0.35554,0.53331 -0.53331,0.88885 -0.88885,1.42216 -0.53331,0.71108 -1.06662,1.42216 -1.59993,2.13324 -0.71108,0.71108 -1.42216,1.42216 -2.13324,2.13324 -0.35554,0.35554 -0.88885,0.53331 -1.24439,0.71108 -0.35554,0.17777 -0.71108,0.17777 -0.88885,0.35554 -0.17777,0 -0.35554,0 -0.35554,0 -0.35554,-0.53331 -0.71108,-1.24439 -0.88885,-1.7777 -0.53331,-1.42216 -0.88885,-3.02209 -1.24439,-4.62202 -0.17777,-0.88885 -0.17777,-1.7777 -0.17777,-2.84432 0,0 0.17777,0 0.35554,-0.17777 l 0,0 z m 9.42181,3.02209 c 0,0 0,0.17777 0,0 0,0.17777 0,0 0,0 l 0,0 z m -7.64411,6.22195 c 0,0.17777 0,0.17777 0,0 0,0.17777 0,0.17777 0,0 0,0.17777 0,0.17777 0,0 l 0,0 z m 0.17777,0.17777 c 0,0 0,0 0,0 0,0 0,0 0,0 0,0 0,0 0,0 l 0,0 z m 0,0 c 0,0 0.17777,0 0,0 0.17777,0 0,0 0,0 0,0 0,0 0,0 l 0,0 z m 0.17777,0.35554 c 0,0 0.17777,0.17777 0.17777,0.17777 0,0 -0.17777,-0.17777 -0.17777,-0.17777 0,0 0,0 0,0 l 0,0 z"
     id="path59"
     inkscape:connector-curvature="0"
     style="fill:#010101" /><path
     class="st0"
     d="m 735.86587,19.375241 c -0.71108,0 -1.42216,0.17777 -2.13324,0.35554 -2.31101,0.71108 -4.26648,2.48878 -6.22195,4.08871 -0.71108,0.71108 -1.42216,1.42216 -2.13324,2.31101 -0.71108,0.88885 -1.59993,1.59993 -2.31101,2.48878 -0.35554,0.35554 -0.71108,0.88885 -1.06662,1.24439 -0.35554,0.53331 -0.71108,1.06662 -0.88885,1.7777 -0.17777,0.53331 -0.17777,1.06662 0,1.59993 0,0.35554 0,0.88885 0.17777,1.24439 0.17777,0.35554 0.35554,0.71108 0.53331,1.06662 0.53331,0.88885 1.24439,1.59993 2.31101,2.13324 1.06662,0.53331 2.31101,0.88885 3.5554,1.06662 2.48878,0.17777 4.97756,-0.53331 7.1108,-1.7777 1.59993,-1.06662 2.84432,-2.48878 3.91094,-4.08871 0.88885,1.59993 1.95547,3.19986 3.19986,4.62202 0.88885,1.06662 2.84432,1.06662 3.91094,0 0.53331,-0.53331 0.71108,-1.24439 0.71108,-1.95547 0,-0.71108 -0.35554,-1.42216 -0.71108,-1.95547 -0.17777,-0.17777 -0.35554,-0.35554 -0.35554,-0.53331 -1.42216,-1.95547 -2.48878,-4.08871 -3.5554,-6.22195 -0.17777,-0.53331 -0.35554,-0.88885 -0.53331,-1.42216 0,-0.35554 0,-0.71108 -0.17777,-1.06662 0,0 0,-0.17777 0.17777,-0.17777 0.35554,-0.71108 0.53331,-1.59993 0.35554,-2.31101 -0.17777,-0.88885 -0.71108,-1.42216 -1.42216,-1.7777 -0.35554,-0.17777 -0.88885,-0.53331 -1.24439,-0.53331 -0.53331,-0.17777 -1.06662,-0.17777 -1.59993,-0.17777 -0.17777,0 -0.17777,0 -0.35554,0 -0.53331,-0.17777 -0.88885,0 -1.24439,0 l 0,0 z m 0.17777,6.22195 c 0,0 0,0 0,0 0,0.17777 -0.17777,0.53331 -0.17777,0.71108 -0.53331,1.24439 -1.24439,2.31101 -1.95547,3.5554 -0.53331,0.53331 -1.06662,1.06662 -1.59993,1.59993 -0.35554,0.17777 -0.71108,0.53331 -1.06662,0.71108 -0.53331,0.17777 -1.06662,0.35554 -1.59993,0.35554 -0.53331,0 -0.88885,0 -1.42216,0 0,0 0,0 0,0 0.88885,-1.06662 1.7777,-1.95547 2.66655,-3.02209 0.88885,-1.06662 1.95547,-1.7777 3.02209,-2.66655 0.53331,-0.35554 1.06662,-0.71108 1.59993,-1.06662 0.17777,0 0.35554,-0.17777 0.53331,-0.17777 l 0,0 z m -8.35519,7.64411 c 0,0 0,0 0,0 0,0 0,0 0,0 0,0 0,0 0,0 l 0,0 z m -0.17777,0.17777 c 0,0 0,0 0,0 0,0 0,0 0,0 0,0 0,0 0,0 l 0,0 z"
     id="path61"
     inkscape:connector-curvature="0"
     style="fill:#010101" /><path
     class="st0"
     d="m 756.30942,3.9092505 c -0.71108,0.71108 -0.88885,1.42216 -0.88885,2.31101 -0.53331,6.3997205 -1.24439,12.7994405 -1.59993,19.1991605 -0.17777,2.31101 -0.35554,4.79979 -0.53331,7.1108 -0.17777,1.42216 -0.17777,2.84432 -0.35554,4.26648 0,1.24439 -0.17777,2.48878 0,3.73317 0.17777,0.71108 0.35554,1.24439 0.71108,1.7777 0.53331,0.88885 1.42216,1.24439 2.31101,1.59993 1.24439,0.35554 2.66655,-0.17777 3.19986,-1.24439 0.71108,-1.06662 0.53331,-2.31101 -0.35554,-3.37763 0,-1.24439 0.17777,-2.66655 0.35554,-3.91094 0.17777,-1.06662 0.17777,-1.95547 0.35554,-3.02209 0.17777,-2.31101 0.35554,-4.62202 0.53331,-6.93303 0.53331,-6.39972 1.06662,-12.79944 1.59993,-19.1991605 0,-0.88885 -0.35554,-1.7777 -0.88885,-2.31101 -0.53331,-0.53331 -1.42216,-0.88885 -2.31101,-0.88885 -0.71108,-0.17777 -1.59993,0.17777 -2.13324,0.88885 l 0,0 z"
     id="path63"
     inkscape:connector-curvature="0"
     style="fill:#010101" /><path
     class="st0"
     d="m 777.46405,18.664161 c -1.42216,0.35554 -2.66655,0.88885 -3.91094,1.59993 -1.24439,0.88885 -2.48878,1.95547 -3.5554,3.02209 -1.06662,1.06662 -1.95547,2.31101 -3.02209,3.37763 -0.88885,1.06662 -1.7777,1.95547 -2.48878,3.19986 -0.17777,0.17777 -0.35554,0.53331 -0.35554,0.71108 -0.17777,0.53331 -0.53331,1.06662 -0.53331,1.7777 0,0.88885 0.17777,1.59993 0.35554,2.48878 1.06662,3.02209 3.91094,5.3331 7.1108,5.86641 1.42216,0.17777 3.02209,0.17777 4.44425,-0.35554 1.59993,-0.53331 2.84432,-1.59993 3.91094,-2.66655 0.53331,-0.53331 1.06662,-1.24439 1.42216,-1.7777 0.35554,-0.53331 0.88885,-1.24439 1.24439,-1.7777 0.35554,-0.53331 0.53331,-1.06662 0.88885,-1.59993 0.71108,0.53331 1.42216,1.24439 2.13324,1.7777 1.06662,0.88885 2.31101,1.7777 3.37763,2.66655 2.13324,1.59993 4.44425,3.19986 6.57749,4.79979 1.06662,0.71108 2.66655,0.35554 3.37763,-0.35554 0.53331,-0.53331 0.88885,-1.24439 0.88885,-1.95547 0,-0.71108 -0.35554,-1.59993 -0.88885,-1.95547 -2.13324,-1.59993 -4.26648,-3.37763 -6.57749,-4.97756 -1.7777,-1.24439 -3.5554,-2.66655 -5.3331,-3.91094 -0.53331,-0.53331 -1.06662,-1.06662 -1.7777,-1.42216 -0.71108,-0.35554 -1.24439,-0.71108 -2.13324,-0.88885 -0.53331,-0.17777 -1.06662,-0.17777 -1.59993,0 0.17777,-0.53331 0.35554,-1.06662 0.35554,-1.59993 0.17777,-0.71108 0.17777,-1.42216 0.17777,-2.13324 0,-0.71108 -0.35554,-1.59993 -0.71108,-2.31101 -0.35554,-0.53331 -1.06662,-1.06662 -1.59993,-1.24439 -0.35554,-0.17777 -0.88885,-0.17777 -1.24439,-0.17777 0.17777,-0.17777 -0.17777,-0.17777 -0.53331,-0.17777 l 0,0 z m -0.35554,3.5554 c 0,0 0,0.17777 0.17777,0.17777 0,-0.17777 0,-0.17777 -0.17777,-0.17777 l 0,0 z m 0,1.59993 c -0.35554,1.7777 -0.88885,3.37763 -1.42216,4.97756 -0.35554,1.06662 0.35554,2.31101 1.42216,2.66655 -0.35554,0.53331 -0.53331,0.88885 -0.88885,1.24439 -0.35554,0.53331 -0.88885,0.88885 -1.42216,1.42216 -0.35554,0.17777 -0.53331,0.35554 -0.88885,0.53331 -0.35554,0.17777 -0.53331,0.17777 -0.88885,0.17777 -0.35554,0 -0.53331,0 -0.88885,0 -0.35554,0 -0.71108,-0.17777 -1.06662,-0.35554 -0.35554,-0.17777 -0.53331,-0.35554 -0.71108,-0.53331 -0.35554,-0.17777 -0.53331,-0.53331 -0.88885,-0.88885 -0.17777,-0.17777 -0.17777,-0.35554 -0.35554,-0.53331 0,-0.17777 0,-0.17777 -0.17777,-0.35554 0.35554,-0.71108 0.71108,-1.24439 1.24439,-1.95547 0.35554,-0.53331 0.71108,-0.88885 1.06662,-1.42216 0,0 0,0 0,0 1.42216,-1.7777 2.84432,-3.37763 4.44425,-4.79979 0.71108,0.35554 1.06662,0 1.42216,-0.17777 l 0,0 z m -7.82188,8.53296 c 0,0 0,0.17777 0,0 0,0.17777 0,0 0,0 l 0,0 z m -0.17777,0.53331 c 0,0 0,0.17777 0,0.17777 0,0 0,0 0,-0.17777 l 0,0 z"
     id="path65"
     inkscape:connector-curvature="0"
     style="fill:#010101" /><path
     class="st0"
     d="m 813.72913,21.152941 c -0.53331,0 -1.06662,0 -1.42216,0.17777 -0.71108,0.17777 -1.06662,0.53331 -1.59993,0.88885 -0.71108,0.71108 -1.42216,1.24439 -2.13324,1.95547 -0.35554,0.35554 -0.71108,0.71108 -0.88885,0.88885 -0.53331,-1.06662 -1.59993,-1.7777 -2.84432,-1.7777 -1.7777,0 -3.19986,1.42216 -3.19986,3.19986 0,1.42216 0,2.84432 -0.17777,4.08871 0,0.71108 0,1.59993 0,2.31101 0,0.71108 0.17777,1.59993 0.17777,2.31101 0,0.53331 0.17777,1.06662 0.35554,1.59993 0.35554,0.71108 1.06662,1.24439 1.95547,1.42216 0.53331,0.17777 1.06662,0.17777 1.7777,0 0.71108,-0.17777 1.59993,-0.71108 1.95547,-1.42216 0.53331,-1.06662 1.06662,-2.31101 1.59993,-3.37763 0.53331,-1.24439 1.42216,-2.48878 2.31101,-3.5554 0.88885,-1.06662 1.7777,-2.13324 2.84432,-3.19986 0.17777,0.17777 0.17777,0.17777 0.35554,0.35554 0.17777,0.35554 0.53331,0.71108 0.71108,1.06662 0.35554,1.06662 0.71108,1.95547 0.71108,3.02209 0.35554,3.02209 0.35554,5.86641 0,8.8885 0,0.71108 0.35554,1.59993 0.88885,2.13324 0.53331,0.53331 1.24439,0.88885 2.13324,0.88885 0.71108,0 1.42216,-0.35554 2.13324,-0.88885 0.53331,-0.53331 0.71108,-1.24439 0.88885,-2.13324 0.17777,-1.7777 0.17777,-3.37763 0.17777,-5.15533 0,-1.95547 -0.35554,-3.91094 -0.71108,-5.86641 -0.35554,-1.95547 -1.24439,-4.08871 -2.48878,-5.68864 -0.53331,-0.71108 -1.06662,-1.06662 -1.7777,-1.59993 -0.35554,-0.35554 -0.88885,-0.53331 -1.42216,-0.71108 -1.24439,0.35554 -1.7777,0.17777 -2.31101,0.17777 0,0 0,0 0,0 l 0,0 z m 0.35554,5.86641 c 0,0 0,0 0,0 0,0 0,0 0,0 l 0,0 z"
     id="path67"
     inkscape:connector-curvature="0"
     style="fill:#010101" /><path
     class="st0"
     d="m 838.61693,21.686251 c -1.95547,0.35554 -3.73317,1.42216 -4.97756,3.02209 -0.71108,0.71108 -1.24439,1.42216 -1.7777,2.31101 -0.71108,0.88885 -1.06662,2.13324 -1.24439,3.19986 -0.17777,1.95547 0.35554,3.91094 1.06662,5.86641 0.35554,0.71108 1.06662,1.42216 1.59993,2.13324 0.71108,0.71108 1.42216,1.24439 2.13324,1.7777 1.24439,1.06662 2.66655,1.7777 4.08871,2.66655 0.71108,0.35554 1.42216,0.71108 1.95547,1.06662 1.06662,0.53331 2.13324,1.06662 3.37763,1.42216 1.24439,0.53331 2.84432,-0.53331 3.19986,-1.7777 0.17777,-0.71108 0.17777,-1.42216 -0.17777,-1.95547 -0.35554,-0.71108 -0.88885,-0.88885 -1.59993,-1.24439 -0.17777,0 -0.17777,0 -0.35554,-0.17777 -0.88885,-0.35554 -1.59993,-0.88885 -2.48878,-1.24439 -1.42216,-0.88885 -3.02209,-1.7777 -4.44425,-2.66655 -0.88885,-0.71108 -1.7777,-1.42216 -2.48878,-2.31101 -0.17777,-0.17777 -0.35554,-0.53331 -0.35554,-0.71108 -0.17777,-0.53331 -0.35554,-0.88885 -0.35554,-1.42216 0,-0.35554 0,-0.53331 0,-0.88885 0,-0.17777 0,-0.35554 0.17777,-0.53331 0.35554,-0.53331 0.53331,-1.06662 0.88885,-1.59993 0.35554,-0.35554 0.71108,-0.88885 1.24439,-1.24439 0.17777,-0.17777 0.53331,-0.35554 0.71108,-0.35554 0.17777,0 0.35554,-0.17777 0.71108,-0.17777 0.17777,0 0.35554,0 0.53331,0 0.35554,0 0.53331,0.17777 0.71108,0.17777 0.17777,0.17777 0.53331,0.17777 0.71108,0.35554 1.24439,0.71108 2.84432,0.35554 3.5554,-0.88885 0.71108,-1.24439 0.35554,-2.84432 -0.88885,-3.5554 -0.71108,-0.35554 -1.59993,-0.71108 -2.31101,-1.06662 -0.35554,-0.17777 -1.06662,-0.17777 -1.42216,-0.35554 -0.17777,0 -0.17777,0 -0.35554,0 -0.53331,0 -0.88885,0 -1.42216,0.17777 l 0,0 z m 2.48878,5.3331 c 0,0 0.17777,0 0.17777,0 0,0 0,0 -0.17777,0 l 0,0 z"
     id="path69"
     inkscape:connector-curvature="0"
     style="fill:#010101" /><path
     class="st0"
     d="m 860.48264,22.397331 c -0.71108,0.17777 -1.42216,0.35554 -2.13324,0.53331 -1.24439,0.53331 -2.48878,1.24439 -3.37763,2.13324 -0.88885,0.88885 -1.59993,2.13324 -2.13324,3.37763 0,0 -0.17777,0 -0.17777,0 -0.17777,0 -0.17777,0 -0.35554,0 -0.71108,-0.17777 -1.42216,-0.17777 -2.13324,0.35554 -0.53331,0.35554 -1.06662,0.88885 -1.24439,1.59993 -0.35554,1.42216 0.35554,3.02209 1.95547,3.37763 0.35554,0 0.88885,0.17777 1.24439,0.17777 0.17777,0.53331 0.35554,1.06662 0.53331,1.7777 0.35554,0.71108 0.71108,1.42216 1.24439,2.13324 0.71108,1.24439 1.7777,2.13324 2.84432,3.02209 1.06662,0.88885 2.48878,1.42216 3.73317,1.95547 1.59993,0.53331 3.37763,1.06662 4.97756,1.42216 1.42216,0.35554 2.84432,-0.35554 3.19986,-1.7777 0.35554,-1.42216 -0.53331,-2.66655 -1.7777,-3.19986 -1.42216,-0.53331 -3.02209,-1.06662 -4.44425,-1.59993 -0.71108,-0.35554 -1.42216,-0.71108 -2.13324,-1.24439 -0.35554,-0.35554 -0.71108,-0.71108 -1.06662,-1.06662 -0.35554,-0.53331 -0.71108,-0.88885 -0.88885,-1.42216 0.53331,0 0.88885,-0.17777 1.42216,-0.17777 1.42216,-0.17777 2.66655,-0.35554 4.08871,-0.71108 0.71108,-0.17777 1.42216,-0.35554 1.95547,-0.71108 0.71108,-0.35554 1.42216,-0.71108 1.95547,-1.24439 0.88885,-0.88885 1.59993,-2.13324 1.42216,-3.37763 0,-0.71108 -0.35554,-1.42216 -0.71108,-2.13324 -0.17777,-0.35554 -0.35554,-0.53331 -0.71108,-0.88885 -0.35554,-0.35554 -0.71108,-0.71108 -1.06662,-0.88885 -0.53331,-0.35554 -1.24439,-0.53331 -1.7777,-0.88885 -0.71108,-0.17777 -1.42216,-0.35554 -1.95547,-0.35554 -0.17777,0 -0.35554,0 -0.53331,0 -0.88885,-0.35554 -1.42216,-0.17777 -1.95547,-0.17777 l 0,0 z m 3.19986,5.86641 c 0,0.17777 0,0.17777 0,0 0,0.17777 0,0.17777 0,0 l 0,0 z"
     id="path71"
     inkscape:connector-curvature="0"
     style="fill:#010101" /><path
     class="st0"
     d="m 882.70389,26.308271 c -1.24439,0.17777 -2.31101,0.71108 -3.37763,1.42216 -1.24439,0.71108 -2.13324,1.7777 -3.02209,2.84432 -0.35554,0.53331 -0.53331,1.06662 -0.88885,1.59993 -0.17777,0.53331 -0.35554,1.24439 -0.35554,1.7777 0,0.53331 0,1.24439 0.17777,1.95547 0.17777,0.71108 0.53331,1.42216 0.88885,2.13324 0.71108,1.06662 1.59993,1.95547 2.66655,2.66655 0.53331,0.35554 1.06662,0.53331 1.7777,0.88885 0.53331,0.17777 1.06662,0.35554 1.59993,0.53331 1.42216,0.35554 2.84432,0.35554 4.08871,0 1.42216,-0.35554 2.66655,-0.88885 3.91094,-1.42216 0.88885,-0.35554 1.7777,-0.88885 2.48878,-1.42216 0.53331,-0.35554 1.06662,-0.71108 1.59993,-1.06662 1.06662,-0.71108 1.95547,-1.42216 3.02209,-2.13324 0.35554,-0.35554 0.53331,-0.71108 0.53331,-1.06662 0.17777,-0.53331 0,-1.24439 -0.17777,-1.7777 -0.71108,-1.06662 -2.13324,-1.59993 -3.19986,-0.88885 -0.17777,0.17777 -0.35554,0.17777 -0.53331,0.35554 0,0 0,-0.17777 0,-0.17777 -0.17777,-1.06662 -0.53331,-2.13324 -1.06662,-3.02209 -0.35554,-0.53331 -0.71108,-1.06662 -1.24439,-1.42216 -0.35554,-0.35554 -0.88885,-0.71108 -1.42216,-1.06662 -1.06662,-0.53331 -2.31101,-0.71108 -3.5554,-0.88885 -0.35554,0 -0.71108,0 -0.88885,0 -1.06662,-0.17777 -1.95547,0 -3.02209,0.17777 l 0,0 z m 4.08871,4.44425 c 0.35554,0 0.71108,0.17777 1.06662,0.17777 0.17777,0 0.35554,0.17777 0.53331,0.35554 0.17777,0.17777 0.35554,0.35554 0.53331,0.53331 0,0 0,0 0,0.17777 0.17777,0.53331 0.35554,1.24439 0.53331,1.7777 0.17777,0.53331 0.35554,0.88885 0.71108,1.24439 -0.88885,0.35554 -1.59993,0.88885 -2.48878,1.24439 -0.88885,0.35554 -1.7777,0.53331 -2.66655,0.71108 -0.53331,0 -0.88885,0 -1.42216,0 -0.53331,-0.17777 -1.06662,-0.17777 -1.59993,-0.53331 -0.35554,-0.17777 -0.71108,-0.35554 -0.88885,-0.53331 -0.17777,-0.17777 -0.35554,-0.35554 -0.53331,-0.53331 -0.17777,-0.17777 -0.17777,-0.35554 -0.35554,-0.71108 0,0 0,0 0,-0.17777 0,-0.17777 0,-0.35554 0,-0.53331 0,-0.17777 0.17777,-0.35554 0.17777,-0.53331 0.17777,-0.17777 0.17777,-0.35554 0.35554,-0.53331 0.35554,-0.35554 0.53331,-0.71108 0.88885,-0.88885 0.53331,-0.35554 0.88885,-0.53331 1.42216,-0.88885 0.53331,-0.17777 1.24439,-0.35554 1.7777,-0.53331 0.71108,0 1.42216,0 1.95547,0.17777 l 0,0 z m 1.95547,0.71108 c 0,0 0,0 0,0 0,0 0,0 0,0 l 0,0 z"
     id="path73"
     inkscape:connector-curvature="0"
     style="fill:#010101" /><path
     class="st0"
     d="m 895.6811,2.4870905 c -0.35554,0.17777 -0.71108,0.53331 -0.88885,1.06662 0,0.17777 -0.17777,0.35554 -0.17777,0.71108 0,0.17777 0,0.35554 0,0.53331 0,0.17777 0,0.53331 0,0.71108 0,0.53331 0,1.06662 0,1.59993 0,0.71108 -0.17777,1.42216 -0.17777,2.13324 -0.17777,1.0666195 -0.17777,1.9554695 -0.35554,3.0220905 -0.17777,2.31101 -0.53331,4.62202 -0.71108,6.75526 -0.53331,4.79979 -0.88885,9.59958 -1.42216,14.57714 -0.17777,2.48878 -0.53331,5.15533 -0.71108,7.64411 0,0.71108 0.35554,1.42216 0.71108,1.95547 0.53331,0.53331 1.24439,0.71108 1.95547,0.71108 1.42216,0 2.66655,-1.24439 2.66655,-2.66655 0,-4.79979 0,-9.42181 0.35554,-14.2216 0.17777,-3.91094 0.35554,-7.82188 0.71108,-11.73282 0.53331,-0.17777 0.88885,-0.71108 0.88885,-1.42216 -0.17777,-1.59993 -0.35554,-3.377631 -0.53331,-4.9775605 0,-0.53331 0,-1.24439 0.17777,-1.7777 0,-1.06662 0,-2.13324 0,-3.37763 0,-0.88885 -0.88885,-1.7777 -1.7777,-1.7777 -0.17777,0.35554 -0.53331,0.35554 -0.71108,0.53331 l 0,0 z"
     id="path75"
     inkscape:connector-curvature="0"
     style="fill:#010101" /><path
     class="st1"
     d="m 462.98892,41.596491 c -9.59958,0.17777 -19.37693,0.53331 -28.97651,0.71108 -9.06627,0.17777 -17.95477,0.17777 -27.02104,0.53331 -9.59958,0.35554 -19.02139,1.06662 -28.62097,1.59993 -9.42181,0.53331 -18.66585,0.88885 -28.08766,1.42216 -9.59958,0.53331 -19.02139,0.88885 -28.62097,1.06662 -9.24404,0.35554 -18.48808,0.88885 -27.73212,1.42216 -18.66585,1.24439 -37.3317,3.19986 -55.99755,5.3331 -9.42181,1.06662 -18.84362,1.95547 -28.26543,2.84432 -9.24404,0.88885 -18.66585,0.53331 -27.90989,0.53331 -18.66585,0 -37.3317,0 -56.17532,-0.71108 -4.26648,-0.17777 -8.53296,-0.35554 -12.79944,-0.53331 -3.91094,-0.17777 -7.82188,-0.35554 -11.73282,-0.53331 -8.532962,-0.71108 -17.243692,-1.42216 -25.776652,-1.95547 -8.71073,-0.53331 -17.42146,-0.53331 -26.13219,0 -9.42181,0.71108 -18.84362,2.31101 -28.26543,3.91094 -0.71108,0.17777 -1.24439,0.53331 -1.7777,1.06662 -1.244391,0.88885 -2.488781,2.13324 -3.555401,3.37763 -0.17777,0.17777 -3.02209,3.73317 -1.42216,3.37763 5.688641,-0.88885 11.555051,-1.7777 17.243691,-2.66655 4.44425,-0.53331 9.06627,-1.06662 13.68829,-1.24439 9.24404,-0.53331 18.31031,0 27.55435,0.71108 8.8885,0.71108 17.59923,1.95547 26.30996,2.31101 9.421812,0.53331 18.843622,1.06662 28.265432,1.24439 19.02139,0.35554 38.22055,0.53331 57.24194,0.53331 4.26648,0 8.35519,0 12.62167,-0.35554 4.79979,-0.35554 9.59958,-0.71108 14.39937,-1.24439 9.77735,-0.88885 19.5547,-2.13324 29.33205,-3.19986 9.06627,-0.88885 18.13254,-1.95547 27.19881,-2.66655 9.59958,-0.88885 19.19916,-1.42216 28.79874,-2.13324 9.24404,-0.53331 18.31031,-0.88885 27.55435,-1.06662 9.59958,-0.17777 19.19916,-0.71108 28.79874,-1.24439 18.48808,-0.88885 36.79839,-2.31101 55.28647,-2.66655 9.42181,-0.17777 18.84362,-0.17777 28.26543,-0.53331 9.24404,-0.17777 18.48808,-0.53331 27.73212,-0.71108 18.66585,-0.35554 37.3317,-0.53331 56.17532,-0.53331 4.62202,0 9.06627,0 13.68829,0.35554 4.62202,0.17777 9.42181,0.53331 14.04383,0.88885 9.42181,0.71108 18.84362,0.88885 28.08766,0.88885 18.66585,0 37.50947,0 56.17532,0 9.42181,0 19.02139,-0.17777 28.4432,-0.53331 9.24404,-0.35554 18.31031,-1.06662 27.55435,-1.24439 9.42181,-0.17777 19.02139,-0.17777 28.4432,0.17777 9.24404,0.35554 18.66585,0.71108 27.90989,0.88885 9.42181,0.17777 18.66585,0.17777 28.08766,0.17777 9.42181,0 18.84362,0 28.08766,0.17777 16.53261,0 33.06522,0.88885 49.59783,1.06662 7.99965,0.17777 15.9993,0.17777 23.99895,0.53331 8.53296,0.35554 17.24369,0.71108 25.77665,1.06662 0.88885,-0.35554 1.59993,-0.71108 2.31101,-1.24439 1.06662,-0.88885 2.13324,-1.7777 3.02209,-2.66655 0.88885,-0.88885 1.95547,-1.95547 2.66655,-3.02209 0,0 1.95547,-2.66655 1.24439,-2.84432 -4.62202,-0.53331 -9.06627,-0.53331 -13.68829,-0.53331 -4.62202,0 -9.24404,-0.17777 -13.68829,-0.17777 -9.59958,-0.17777 -19.02139,-0.17777 -28.62097,-0.35554 -9.06627,0 -18.13254,-0.35554 -27.37658,-0.53331 -9.42181,-0.17777 -19.02139,0 -28.4432,0 -18.48808,0 -36.97616,0.17777 -55.64201,-0.35554 -9.24404,-0.35554 -18.48808,-0.71108 -27.73212,-0.88885 -4.79979,0 -9.59958,0 -14.57714,0 -4.26648,0 -8.53296,0.17777 -12.79944,0.35554 -9.59958,0.53331 -19.19916,0.88885 -28.79874,1.24439 -9.42181,0.35554 -18.84362,0.35554 -28.26543,0.35554 -9.06627,0 -18.13254,0 -27.19881,0 -9.42181,0 -18.66585,0 -28.08766,-0.17777 -4.97756,0 -9.95512,-0.17777 -14.93268,-0.53331 -4.62202,-0.17777 -9.24404,-0.71108 -13.86606,-0.88885 -8.8885,-0.53331 -17.95477,-0.53331 -26.84327,-0.71108 -1.42216,0 -2.84432,0 -4.26648,0 -17.42146,0 -34.66515,0.17777 -51.90884,0.53331 l 0,0 z m 445.31385,5.68864 c 0,0 0,0 0,0 0,0 0,0 0,0 l 0,0 z"
     id="path77"
     inkscape:connector-curvature="0"
     style="fill:#a271b1" /></svg>