<?xml version="1.0" encoding="UTF-8" standalone="no"?>
<!-- Created with Inkscape (http://www.inkscape.org/) -->

<svg
   xmlns:dc="http://purl.org/dc/elements/1.1/"
   xmlns:cc="http://creativecommons.org/ns#"
   xmlns:rdf="http://www.w3.org/1999/02/22-rdf-syntax-ns#"
   xmlns:svg="http://www.w3.org/2000/svg"
   xmlns="http://www.w3.org/2000/svg"
   xmlns:sodipodi="http://sodipodi.sourceforge.net/DTD/sodipodi-0.dtd"
   xmlns:inkscape="http://www.inkscape.org/namespaces/inkscape"
   width="800mm"
   height="100mm"
   viewBox="0 0 2834.6457 354.33071"
   id="svg2"
   version="1.1"
   inkscape:version="0.91 r13725"
   sodipodi:docname="flowdiagram_title.svg">
  <defs
     id="defs4" />
  <sodipodi:namedview
     id="base"
     pagecolor="#ffffff"
     bordercolor="#666666"
     borderopacity="1.0"
     inkscape:pageopacity="0.0"
     inkscape:pageshadow="2"
     inkscape:zoom="0.49882778"
     inkscape:cx="1645.8286"
     inkscape:cy="177.16535"
     inkscape:document-units="px"
     inkscape:current-layer="layer1"
     showgrid="false"
     inkscape:window-width="1920"
     inkscape:window-height="1138"
     inkscape:window-x="1912"
     inkscape:window-y="-8"
     inkscape:window-maximized="1" />
  <metadata
     id="metadata7">
    <rdf:RDF>
      <cc:Work
         rdf:about="">
        <dc:format>image/svg+xml</dc:format>
        <dc:type
           rdf:resource="http://purl.org/dc/dcmitype/StillImage" />
        <dc:title></dc:title>
      </cc:Work>
    </rdf:RDF>
  </metadata>
  <g
     inkscape:label="Layer 1"
     inkscape:groupmode="layer"
     id="layer1"
     transform="translate(0,-698.0315)">
    <text
       xml:space="preserve"
       style="font-style:normal;font-weight:normal;font-size:40px;line-height:125%;font-family:sans-serif;letter-spacing:0px;word-spacing:0px;fill:#000000;fill-opacity:1;stroke:none;stroke-width:1px;stroke-linecap:butt;stroke-linejoin:miter;stroke-opacity:1"
       x="118.27729"
       y="912.0332"
       id="text4136"
       sodipodi:linespacing="125%"><tspan
         sodipodi:role="line"
         id="tspan4138"
         x="118.27729"
         y="912.0332"
         style="font-size:180px" /></text>
    <flowRoot
       xml:space="preserve"
       id="flowRoot4140"
       style="fill:black;stroke:none;stroke-opacity:1;stroke-width:1px;stroke-linejoin:miter;stroke-linecap:butt;fill-opacity:1;font-family:sans-serif;font-style:normal;font-weight:normal;font-size:40px;line-height:125%;letter-spacing:0px;word-spacing:0px"><flowRegion
         id="flowRegion4142"><rect
           id="rect4144"
           width="751.76245"
           height="398.93527"
           x="90.211494"
           y="-164.88655" /></flowRegion><flowPara
         id="flowPara4146"></flowPara></flowRoot>    <path
       style="fill:none;fill-rule:evenodd;stroke:#000000;stroke-width:5;stroke-linecap:butt;stroke-linejoin:miter;stroke-opacity:1;stroke-miterlimit:4;stroke-dasharray:none"
       d="m 114.26789,773.70893 c 0,36.75283 0,73.50567 0,110.2585 0,8.0188 0,16.0376 0,24.0564 0,1.8881 0.38014,8.8831 0,10.0235 -0.29884,0.89652 -1.33646,1.33646 -2.0047,2.0047 0,2.0047 0,4.00939 0,6.01409"
       id="path4702"
       inkscape:connector-curvature="0" />
    <path
       style="fill:none;fill-rule:evenodd;stroke:#000000;stroke-width:5;stroke-linecap:butt;stroke-linejoin:miter;stroke-opacity:1;stroke-miterlimit:4;stroke-dasharray:none"
       d="m 110.25849,763.68543 c 2.0047,2.67294 3.40509,5.93159 6.0141,8.0188 1.04361,0.83489 2.74152,-0.42263 4.0094,0 0.89653,0.29885 1.2184,1.4805 2.0047,2.0047 12.17067,8.11378 -6.27698,-5.77089 10.0235,4.0094 1.62071,0.97242 2.3887,3.03698 4.0094,4.0094 1.81201,1.0872 4.07182,1.1723 6.0141,2.0047 2.7468,1.1772 5.24412,2.89953 8.0188,4.0094 0.62044,0.24818 1.4487,-0.37067 2.0047,0 1.57262,1.04841 2.49736,2.87537 4.0094,4.0094 1.19537,0.89653 2.95283,0.94813 4.0094,2.0047 1.05657,1.05657 1.10817,2.81403 2.0047,4.0094 1.13403,1.51204 2.67294,2.67293 4.0094,4.0094 1.33647,1.33647 2.67294,2.67293 4.0094,4.0094 0.66824,0.66823 1.4805,1.21839 2.0047,2.0047 1.65768,2.48652 2.35172,5.53228 4.0094,8.0188 2.0047,3.00705 4.0094,2.0047 6.0141,6.0141 0.59769,1.19537 -0.32414,2.71284 0,4.0094 0.3624,1.4496 1.53219,2.59186 2.0047,4.0094 0.21132,0.63394 -0.21131,1.37076 0,2.0047 0.47251,1.41754 1.6423,2.5598 2.0047,4.0094 0.68267,2.73067 -0.80842,9.60293 0,12.0282 0.29884,0.89653 1.70586,1.10817 2.0047,2.0047 0.84526,2.53577 -0.84525,5.48303 0,8.0188 0.29884,0.89653 1.58207,1.15944 2.0047,2.0047 0.29818,0.59635 0,11.1849 0,12.0282 0,1.39435 0.36248,9.29853 0,10.0235 -0.42263,0.84525 -1.48049,1.21839 -2.0047,2.0047 -0.82884,1.24326 -1.10817,2.81402 -2.0047,4.0094 -1.13403,1.51204 -2.67293,2.67293 -4.0094,4.0094 -0.66823,0.66823 -1.70586,1.10817 -2.0047,2.0047 -0.42263,1.26788 0.74134,2.89739 0,4.0094 -0.82884,1.24326 -2.81403,1.10817 -4.0094,2.0047 -1.51204,1.13403 -2.49736,2.87537 -4.0094,4.0094 -2.39074,1.79305 -5.53227,2.35171 -8.0188,4.0094 -0.78631,0.5242 -1.15944,1.58207 -2.0047,2.0047 -0.59768,0.29884 -1.40701,-0.29885 -2.0047,0 -0.84525,0.42262 -1.15944,1.58207 -2.0047,2.0047 -0.59768,0.29884 -1.40701,-0.29885 -2.0047,0 -0.84525,0.42262 -1.15944,1.58207 -2.0047,2.0047 -0.59768,0.29884 -1.40701,-0.29885 -2.0047,0 -0.84525,0.42262 -1.15944,1.58207 -2.0047,2.0047 -1.19537,0.59768 -2.81402,-0.59769 -4.0094,0 -0.84525,0.42262 -1.15944,1.58207 -2.0047,2.0047 -1.60376,0.80188 -4.41034,-0.80188 -6.0141,0 -0.84525,0.42262 -1.10817,1.70585 -2.0047,2.0047 -2.16354,0.72118 -10.32513,-0.85154 -12.0282,0 -0.59768,0.29884 0.47252,1.53218 0,2.0047 -0.94502,0.94502 -2.89739,-0.74134 -4.0094,0 -1.57261,1.04841 -2.67293,2.67293 -4.0094,4.00939 -0.66823,0.66824 -1.15944,1.58208 -2.0047,2.0047 -0.59768,0.29885 -1.33646,0 -2.0047,0 -0.66823,0 -1.53218,0.47252 -2.0047,0 -0.47251,-0.47251 -0.47251,-1.53218 0,-2.0047 0.47252,-0.47251 1.53219,0.47252 2.0047,0 0.47252,-0.47251 0,-1.33646 0,-2.0047"
       id="path4704"
       inkscape:connector-curvature="0" />
    <path
       style="fill:none;fill-rule:evenodd;stroke:#000000;stroke-width:5;stroke-linecap:butt;stroke-linejoin:miter;stroke-opacity:1;stroke-miterlimit:4;stroke-dasharray:none"
       d="m 228.53579,835.85463 c -0.66823,3.34117 -1.52283,6.65041 -2.0047,10.0235 -0.18901,1.32303 0,2.67293 0,4.0094 0,3.34116 0,6.68233 0,10.0235 0,10.0235 0,20.047 0,30.0705 0,2.0047 0,4.0094 0,6.0141 0,0.66823 0.66823,2.0047 0,2.0047 -0.66823,0 0,-1.33647 0,-2.0047 0,-2.0047 0,-4.0094 0,-6.0141 0,-1.69728 -0.35925,-6.94106 0,-8.0188 0.29884,-0.89653 1.70586,-1.10817 2.0047,-2.0047 0.30564,-0.91693 -0.44602,-7.12676 0,-8.0188 0.84526,-1.69051 3.41171,-2.21634 4.0094,-4.0094 0.42263,-1.26789 -0.42263,-2.74152 0,-4.0094 0.29884,-0.89653 1.48049,-1.21839 2.0047,-2.0047 0.66823,-1.33647 1.33647,-2.67294 2.0047,-4.0094 0,-0.66824 -0.29884,-1.40702 0,-2.0047 0.42263,-0.84526 1.33647,-1.33647 2.0047,-2.0047 0.66823,-0.66824 1.15944,-1.58207 2.0047,-2.0047 0.59768,-0.29884 1.40701,0.29884 2.0047,0 6.11345,-3.05673 -3.66649,-1.58926 6.0141,-4.0094 1.29656,-0.32414 2.67293,0 4.0094,0 1.33646,-0.66823 2.59186,-1.53219 4.0094,-2.0047 1.3789,-0.45963 4.83128,0.59141 6.0141,0 0.84525,-0.42263 1.15944,-1.58207 2.0047,-2.0047 0.59768,-0.29884 1.33646,0 2.0047,0 0.66823,0 1.33646,0 2.0047,0 2.67293,0 5.34586,0 8.0188,0 2.0047,0 4.0094,0 6.0141,0 0.66823,0 1.40701,0.29884 2.0047,0 0.84525,-0.42263 1.10817,-1.70586 2.0047,-2.0047 1.90182,-0.63394 4.0094,0 6.0141,0"
       id="path4706"
       inkscape:connector-curvature="0" />
    <path
       style="fill:none;fill-rule:evenodd;stroke:#000000;stroke-width:5;stroke-linecap:butt;stroke-linejoin:miter;stroke-opacity:1;stroke-miterlimit:4;stroke-dasharray:none"
       d="m 354.83188,847.88283 c -5.17284,1.74735 -10.79554,-1.04841 -16.0376,0 -1.46519,0.29304 -2.59186,1.53219 -4.0094,2.0047 -0.63394,0.21131 -1.37075,-0.21132 -2.0047,0 -1.41753,0.47251 -2.5442,1.71166 -4.0094,2.0047 -1.96577,0.39315 -4.00939,0 -6.01409,0 -0.66824,0 -1.4487,-0.37067 -2.0047,0 -1.57262,1.04841 -2.43679,2.96099 -4.0094,4.0094 -0.55601,0.37067 -1.53219,-0.47251 -2.0047,0 -5.06368,5.06368 -0.77033,2.31099 -2.0047,6.0141 -0.94503,2.83507 -3.06438,5.18372 -4.0094,8.0188 -0.21132,0.63394 0.21131,1.37076 0,2.0047 -0.47252,1.41753 -1.71166,2.5442 -2.0047,4.0094 -0.39316,1.96577 0,4.0094 0,6.0141 0,4.0094 0,8.0188 0,12.0282 0,4.0094 0,8.0188 0,12.0282 0,1.33646 -0.59769,2.81402 0,4.0094 0.29884,0.59768 1.53218,-0.47252 2.0047,0 0.47251,0.47251 -0.29885,1.40701 0,2.0047 0.42262,0.84525 1.58207,1.15944 2.0047,2.0047 0.29884,0.59768 -0.47252,1.53218 0,2.0047 0.47251,0.47251 1.40701,-0.29885 2.0047,0 0.84525,0.42262 1.15944,1.58207 2.0047,2.0047 0.69888,0.34944 10.55659,0 12.02819,0 1.96262,0 12.19611,0.36735 14.0329,0 1.48736,-0.29748 10.16263,-5.08132 12.0282,-6.0141 2.67294,-1.33647 5.53228,-2.35172 8.0188,-4.0094 1.57262,-1.04842 2.43679,-2.96099 4.0094,-4.0094 3.9799,-2.65327 5.1285,-1.19693 8.0188,-6.0141 1.0872,-1.81201 1.2199,-4.0521 2.0047,-6.0141 2.30355,-5.75886 2.0047,-2.0001 2.0047,-6.0141 0,-4.81861 -0.21131,0.84525 2.0047,-8.0188 0.16207,-0.64828 -0.29884,-1.40702 0,-2.0047 0.42263,-0.84526 1.70586,-1.10817 2.0047,-2.0047 0.36955,-1.10864 0,-10.00936 0,-12.0282 0,-0.66824 0.47251,-1.53219 0,-2.0047 -0.47251,-0.47251 -1.53219,-0.47251 -2.0047,0 -0.47251,0.47251 0,1.33646 0,2.0047 0,7.51292 -0.59768,1.66225 4.0094,12.0282 6.23619,14.03142 2.68546,13.80589 20.047,26.0611 8.5763,6.05386 18.90554,7.44807 28.0658,12.0282 2.15499,1.07749 3.72839,3.24749 6.0141,4.0094 3.23123,1.07707 8.0188,-1.70741 8.0188,2.0047 0,0.66823 -1.40701,0.29884 -2.0047,0 -2.04085,-1.02043 -3.1955,-4.38631 -4.0094,-6.0141"
       id="path4708"
       inkscape:connector-curvature="0" />
    <path
       style="fill:none;fill-rule:evenodd;stroke:#000000;stroke-width:5;stroke-linecap:butt;stroke-linejoin:miter;stroke-opacity:1;stroke-miterlimit:4;stroke-dasharray:none"
       d="m 475.11388,835.85463 c 2.97811,3.43587 -1.48906,8.30556 0,12.0282 0.89481,2.23702 2.9319,3.85911 4.0094,6.0141 4.24064,8.48128 0.85786,3.14245 2.0047,10.0235 0.45295,2.71771 0.91937,5.48637 2.0047,8.0188 1.89818,4.42908 5.86381,7.71822 8.0188,12.0282 2.27592,4.55184 3.94721,9.38241 6.0141,14.0329 0.60686,1.36543 1.17586,2.76613 2.0047,4.0094 1.85334,2.78001 4.29508,5.15377 6.0141,8.0188 0.6876,1.14601 -0.94503,3.06437 0,4.0094 0.47251,0.47251 1.33646,0 2.0047,0 0.66823,0 1.40701,0.29884 2.0047,0 0.84525,-0.42263 1.33646,-1.33647 2.0047,-2.0047 0.66823,-0.66824 1.70585,-1.10818 2.0047,-2.0047 0.42262,-1.26789 -0.32414,-2.71284 0,-4.0094 1.21186,-4.84748 1.71685,-2.95738 4.0094,-6.0141 1.44561,-1.92748 2.9319,-3.85912 4.0094,-6.0141 0.94502,-1.89005 1.05967,-4.12405 2.0047,-6.0141 12.03661,-24.07323 -3.1689,8.62265 8.0188,-10.0235 1.0872,-1.812 1.33646,-4.0094 2.0047,-6.0141 2.0047,-2.0047 4.24304,-3.80028 6.0141,-6.0141 1.62779,-2.03475 1.45379,-4.7363 4.00939,-6.0141 0.59769,-0.29885 1.40702,0.29884 2.0047,0 0.84526,-0.42263 1.05968,-2.0047 2.0047,-2.0047 0.19936,0 -0.28166,11.46487 0,12.0282 0.84526,1.69051 3.30746,2.25453 4.0094,4.0094 0.74453,1.86131 -0.48621,4.06925 0,6.0141 0.22921,0.91681 1.7755,1.08789 2.0047,2.0047 0.97243,3.88969 -0.97242,8.13851 0,12.0282 0.22921,0.9168 1.58208,1.15944 2.0047,2.0047 0.29885,0.59768 -0.47251,1.53218 0,2.0047 0.47252,0.47251 1.53219,-0.47252 2.0047,0 0.47252,0.47251 -0.47251,1.53218 0,2.0047 0.47252,0.47251 1.53219,0.47251 2.0047,0 11.46753,-11.46753 -10.9824,3.59108 8.0188,-4.0094 1.75487,-0.70195 2.51749,-2.84903 4.0094,-4.0094 4.53748,-3.52916 9.24998,-6.83489 14.0329,-10.0235 3.72979,-2.48653 8.13618,-3.79009 12.0282,-6.0141 2.0919,-1.19537 3.9481,-2.7698 6.0141,-4.0094 1.28128,-0.76877 2.81403,-1.10817 4.0094,-2.0047 1.51204,-1.13403 2.53352,-2.8287 4.0094,-4.0094 1.88139,-1.50511 4.08662,-2.56379 6.0141,-4.0094 3.42303,-2.56727 6.3951,-5.75105 10.0235,-8.0188 1.79194,-1.11996 4.12405,-1.05968 6.0141,-2.0047 0.84526,-0.42263 1.15944,-1.58207 2.0047,-2.0047 0.59769,-0.29884 1.40701,0.29884 2.0047,0 8.34308,-4.17154 -2.14309,0.13839 2.0047,-4.0094 0.0645,-0.0645 5.52791,0 6.0141,0"
       id="path4710"
       inkscape:connector-curvature="0" />
    <path
       style="fill:none;fill-rule:evenodd;stroke:#000000;stroke-width:5;stroke-linecap:butt;stroke-linejoin:miter;stroke-opacity:1;stroke-miterlimit:4;stroke-dasharray:none"
       d="m 683.60267,817.81233 c 4.01411,4.84827 9.46738,1.0916 14.0329,2.0047 2.70169,0.54034 5.31711,1.46436 8.0188,2.0047 2.25827,0.45165 5.59133,0 8.0188,0"
       id="path4712"
       inkscape:connector-curvature="0" />
    <path
       style="fill:none;fill-rule:evenodd;stroke:#000000;stroke-width:5;stroke-linecap:butt;stroke-linejoin:miter;stroke-opacity:1;stroke-miterlimit:4;stroke-dasharray:none"
       d="m 701.64497,853.89693 c 0,18.0423 0,36.0846 0,54.1269 0,3.34116 0,6.68233 0,10.0235 0,0.66823 -0.47251,1.53218 0,2.0047 0.47251,0.47251 1.33646,0 2.0047,0"
       id="path4714"
       inkscape:connector-curvature="0" />
    <path
       style="fill:none;fill-rule:evenodd;stroke:#000000;stroke-width:5;stroke-linecap:butt;stroke-linejoin:miter;stroke-opacity:1;stroke-miterlimit:4;stroke-dasharray:none"
       d="m 753.76717,847.88283 c 0,10.69173 0,21.38346 0,32.0752 0,2.0047 0,4.0094 0,6.0141 0,2.0047 0,4.0094 0,6.0141 0,1.33646 -0.26211,2.69888 0,4.0094 0.41442,2.0721 1.59027,3.94199 2.0047,6.0141 0.39787,1.98936 0,7.91727 0,10.0235 0,2.66666 0,1.34273 0,4.0094 0,0.66823 0.66823,2.0047 0,2.0047 -0.66824,0 0,-1.33647 0,-2.0047 0,-1.33647 0,-2.67294 0,-4.0094 0,-2.67294 -0.52421,-5.39778 0,-8.0188 0.29303,-1.4652 1.53218,-2.59187 2.0047,-4.0094 0.87126,-2.61381 1.24778,-5.36962 2.00469,-8.0188 0.58053,-2.03184 1.42418,-3.98227 2.0047,-6.0141 0.75692,-2.64919 1.13344,-5.40499 2.0047,-8.0188 0.47252,-1.41754 1.33647,-2.67294 2.0047,-4.0094 1.33647,-2.0047 3.2475,-3.72839 4.0094,-6.0141 0.63395,-1.90183 -0.74452,-4.15279 0,-6.0141 0.70195,-1.75487 2.87537,-2.49736 4.0094,-4.0094 5.25337,-7.00449 -0.36641,-0.90547 2.0047,-8.0188 0.083,-0.24904 5.67018,-5.84214 6.0141,-6.0141 0.59769,-0.29884 1.37076,0.21131 2.0047,0 1.41754,-0.47251 2.59187,-1.53219 4.0094,-2.0047 0.63395,-0.21132 1.40702,0.29884 2.0047,0 6.11346,-3.05673 -3.66648,-1.58926 6.0141,-4.0094 1.29657,-0.32414 2.74152,0.42263 4.0094,0 0.89653,-0.29884 1.10817,-1.70586 2.0047,-2.0047 0.91768,-0.30589 8.90457,0 10.0235,0 1.33647,0 2.67294,0 4.0094,0 0.66824,0 1.53219,-0.47251 2.0047,0 0.47251,0.47251 -0.47251,1.53219 0,2.0047 0.47251,0.47251 1.63403,-0.556 2.0047,0 3.65695,5.48541 1.07313,10.44814 2.0047,16.0376 0.45295,2.71771 1.33647,5.34586 2.0047,8.0188 0.66824,2.67293 1.24779,5.36961 2.0047,8.0188 0.58053,2.03183 1.70586,3.9222 2.0047,6.0141 0.37801,2.64607 -0.43943,5.38223 0,8.0188 0.24565,1.47388 1.6423,2.5598 2.0047,4.0094 0.32414,1.29656 0,2.67293 0,4.0094 0,3.34116 0,6.68233 0,10.0235 0,1.9701 -0.26518,11.49783 0,12.0282 0.29884,0.59768 1.33647,0 2.0047,0 0.66823,0 1.33647,0 2.0047,0"
       id="path4716"
       inkscape:connector-curvature="0" />
    <path
       style="fill:none;fill-rule:evenodd;stroke:#000000;stroke-width:5;stroke-linecap:butt;stroke-linejoin:miter;stroke-opacity:1;stroke-miterlimit:4;stroke-dasharray:none"
       d="m 950.22776,841.86873 c -6.76205,-0.84526 -13.28496,-3.16415 -20.047,-4.0094 -1.98922,-0.24865 -4.0094,0 -6.0141,0 -4.0094,0 -8.0188,0 -12.0282,0 -1.07094,0 -9.44975,-0.28688 -10.0235,0 -0.84526,0.42263 -1.15945,1.58207 -2.0047,2.0047 -4.04298,2.02149 -6.52019,1.38192 -10.0235,4.0094 -1.51204,1.13403 -2.67293,2.67293 -4.0094,4.0094 -1.33647,1.33647 -2.67293,2.67293 -4.0094,4.0094 -1.33647,1.33646 -2.87537,2.49736 -4.0094,4.0094 -6.77863,9.03817 -10.57762,15.69526 -14.0329,26.0611 -0.66823,2.0047 -1.6573,3.92971 -2.0047,6.0141 -0.32957,1.97742 0,4.0094 0,6.0141 0,3.85901 -1.10949,8.91401 2.0047,12.0282 0.47251,0.47251 1.4487,-0.37067 2.0047,0 3.6367,2.42446 3.44883,5.25243 8.0188,6.0141 2.63656,0.43942 5.34587,0 8.0188,0 2.67293,0 5.34587,0 8.0188,0 4.0094,0 8.0188,0 12.0282,0 2.0047,0 4.03667,0.32957 6.0141,0 5.42623,3.40713 5.18372,-3.06438 8.0188,-4.0094 4.76395,-1.58799 3.64099,2.3731 8.0188,-2.0047 10.24477,-10.24478 -8.40566,2.79602 6.0141,-8.0188 1.19537,-0.89653 2.95283,-0.94813 4.0094,-2.0047 1.05657,-1.05657 0.83791,-3.07597 2.0047,-4.0094 2.33357,-1.86686 5.45624,-2.47187 8.0188,-4.0094 0.81035,-0.48621 1.33646,-1.33647 2.0047,-2.0047 4.67763,-4.67764 9.35526,-9.35527 14.0329,-14.0329 1.33646,-1.33647 2.87537,-2.49736 4.0094,-4.0094 1.79305,-2.39075 2.35171,-5.53228 4.0094,-8.0188 0.5242,-0.78631 1.58207,-1.15945 2.0047,-2.0047 0.29884,-0.59769 -0.29885,-1.40702 0,-2.0047 0.42262,-0.84526 1.33646,-1.33647 2.0047,-2.0047 0.66823,-0.66824 1.05967,-2.0047 2.0047,-2.0047 0.66823,0 0.21131,1.37076 0,2.0047 -0.47252,1.41754 -1.6423,2.5598 -2.0047,4.0094 -0.32415,1.29656 0.36715,2.72435 0,4.0094 -4.15208,14.53225 -4.36679,5.22119 -6.0141,20.047 -0.29518,2.65658 0,5.34586 0,8.0188 0,2.67293 0,5.34586 0,8.0188 0,14.0329 0,28.06579 0,42.09869 0,5.34587 0,10.69174 0,16.0376 0,2.0047 0.63394,4.11228 0,6.0141 -0.21132,0.63394 -1.53219,-0.47251 -2.0047,0 -0.47252,0.47252 0.21131,1.37076 0,2.0047 -4.8403,14.52088 0.57796,-3.16062 -4.0094,6.0141 -0.29885,0.59769 0.21131,1.37076 0,2.0047 -0.47252,1.41754 -1.33647,2.67294 -2.0047,4.0094 -0.66824,1.33647 -0.94813,2.95283 -2.0047,4.0094 -1.05657,1.05657 -2.95283,0.94813 -4.0094,2.0047 -0.47252,0.47251 0.556,1.63403 0,2.0047 -1.75824,1.17216 -4.0521,1.2199 -6.0141,2.0047 -2.77469,1.10988 -5.34587,2.67294 -8.0188,4.0094 -1.33647,0.66824 -2.5442,1.71166 -4.0094,2.0047 -1.96577,0.39316 -4.04833,-0.39315 -6.0141,0 -1.4652,0.29304 -2.62206,1.44976 -4.0094,2.0047 -1.962,0.7848 -3.942,1.59028 -6.0141,2.0047 -2.62103,0.52421 -5.42568,-0.64828 -8.0188,0 -1.4496,0.3624 -2.5598,1.6423 -4.0094,2.0047 -3.14463,0.78616 -6.87887,-0.78616 -10.0235,0 -1.4496,0.3624 -2.5598,1.6423 -4.0094,2.00468 -1.29656,0.3242 -2.67293,0 -4.0094,0 -1.33647,0 -2.67293,0 -4.0094,0 -2.0047,0 -4.0094,0 -6.0141,0 -0.66823,0 -1.53219,0.4725 -2.0047,0 -0.3111,-0.31108 0.26002,-5.234 0,-6.01408 -0.47251,-1.41754 -1.6423,-2.5598 -2.0047,-4.0094 -0.32414,-1.29656 0,-2.67293 0,-4.0094 0,-2 0,-8.0235 0,-10.0235 0,-0.68295 -0.36165,-6.93384 0,-8.0188 0.94502,-2.83507 2.67293,-5.34586 4.0094,-8.0188 0.66823,-1.33646 0.80933,-3.11287 2.0047,-4.0094 1.69051,-1.26788 4.2021,-0.9175 6.0141,-2.0047 18.38116,-11.0287 -18.73211,5.35666 12.0282,-10.0235 3.7801,-1.89005 8.1042,-2.4398 12.0282,-4.0094 2.77469,-1.10987 5.28794,-2.79568 8.0188,-4.0094 10.10364,-4.4905 18.97952,-7.0659 30.0705,-10.0235 3.29228,-0.87794 6.73622,-1.10817 10.0235,-2.0047 4.07736,-1.112 8.0188,-2.67293 12.0282,-4.00939 4.0094,-1.33647 8.01879,-2.67294 12.02819,-4.0094 2.0047,-0.66824 4.08309,-1.14648 6.0141,-2.0047 4.0963,-1.82058 7.93191,-4.19353 12.02825,-6.0141 1.931,-0.85823 4.124,-1.05968 6.0141,-2.0047 2.1549,-1.0775 3.777,-3.11459 6.0141,-4.0094 1.2408,-0.49636 2.814,0.59768 4.0094,0 0.5976,-0.29885 -0.4726,-1.53219 0,-2.0047 0.1284,-0.12846 7.6453,-3.76046 8.0188,-4.0094 3.7158,-2.47722 0.1838,-2.0047 4.0094,-2.0047"
       id="path4718"
       inkscape:connector-curvature="0" />
    <path
       style="fill:none;fill-rule:evenodd;stroke:#000000;stroke-width:5;stroke-linecap:butt;stroke-linejoin:miter;stroke-opacity:1;stroke-miterlimit:4;stroke-dasharray:none"
       d="m 1371.2147,785.73713 c -13.3781,17.4538 -29.5873,-0.41465 -44.1034,2.0047 -2.0843,0.3474 -3.9222,1.70586 -6.0141,2.0047 -2.646,0.37801 -5.3622,-0.29517 -8.0188,0 -9.9388,1.10432 -11.1189,2.79465 -22.0517,4.0094 -1.9924,0.22138 -4.0366,-0.32957 -6.0141,0 -14.5639,2.42733 0.7046,2.0047 -10.0235,2.0047 -0.6682,0 -1.3364,0 -2.0047,0 -0.6682,0 -1.7058,-0.59768 -2.0047,0 -0.5976,1.19537 0.4227,2.74152 0,4.0094 -0.2988,0.89653 -1.7058,1.10817 -2.0047,2.0047 -0.4226,1.26788 0.189,2.68637 0,4.0094 -0.4818,3.37309 -1.4865,6.65579 -2.0047,10.0235 -2.502,16.26303 -2.0047,13.44315 -2.0047,28.0658 0,22.0517 0,44.1034 0,66.1551"
       id="path4720"
       inkscape:connector-curvature="0" />
    <path
       style="fill:none;fill-rule:evenodd;stroke:#000000;stroke-width:5;stroke-linecap:butt;stroke-linejoin:miter;stroke-opacity:1;stroke-miterlimit:4;stroke-dasharray:none"
       d="m 1266.9703,861.91573 c 6.7549,-0.90065 13.2922,-3.10875 20.047,-4.0094 6.6568,-0.88757 13.3903,-1.11714 20.047,-2.0047 3.3775,-0.45033 6.6238,-1.77805 10.0235,-2.0047 6.6676,-0.4445 13.3647,0 20.047,0 2.0047,0 4.0094,0 6.0141,0 1.3365,0 2.7416,0.42263 4.0094,0 0.8966,-0.29884 1.1595,-1.58207 2.0047,-2.0047 2.5218,-1.26086 4.0094,2.87914 4.0094,-2.0047"
       id="path4722"
       inkscape:connector-curvature="0" />
    <path
       style="fill:none;fill-rule:evenodd;stroke:#000000;stroke-width:5;stroke-linecap:butt;stroke-linejoin:miter;stroke-opacity:1;stroke-miterlimit:4;stroke-dasharray:none"
       d="m 1417.3228,777.71833 c 2.9731,9.1541 2.0047,18.63612 2.0047,28.0658 0,26.68438 -0.5492,-8.59611 2.0047,22.0517 0.333,3.99555 -0.4427,8.04332 0,12.0282 0.2334,2.10021 1.5463,3.95128 2.0047,6.0141 0.8818,3.96791 1.5559,7.98835 2.0047,12.0282 0.3898,3.50822 -0.5197,10.91448 0,14.0329 2.9013,17.40737 2.0047,-13.05445 2.0047,10.0235 0,7.65771 -0.4226,0.31419 2.0047,10.0235 0.4751,1.90039 0,12.15296 0,14.0329 0,0.66823 0,1.33646 0,2.0047 0,0.66823 -0.4725,1.53218 0,2.0047 0.4725,0.47251 1.5322,-0.47252 2.0047,0 0.4725,0.47251 0.6683,2.0047 0,2.0047 -0.6682,0 0,-1.33647 0,-2.0047"
       id="path4724"
       inkscape:connector-curvature="0" />
    <path
       style="fill:none;fill-rule:evenodd;stroke:#000000;stroke-width:5;stroke-linecap:butt;stroke-linejoin:miter;stroke-opacity:1;stroke-miterlimit:4;stroke-dasharray:none"
       d="m 1523.5719,847.88283 c -4.0094,0 -8.0188,0 -12.0282,0 -2.0047,0 -4.221,-0.89653 -6.0141,0 -1.3364,0.66823 -0.7614,3.18056 -2.0047,4.0094 -1.112,0.74134 -2.9402,-0.80188 -4.0094,0 -1.9274,1.44561 -2.5638,4.08662 -4.0094,6.0141 -1.701,2.26806 -4.313,3.74604 -6.0141,6.0141 -3.7039,4.9386 -0.8699,5.74925 -2.0047,8.0188 -0.4226,0.84525 -1.7058,1.10817 -2.0047,2.0047 -0.3684,1.10515 0,10.32692 0,12.0282 0,0.94521 -0.091,9.93264 0,10.0235 1.4749,1.47486 8.8492,3.61795 10.0235,4.0094 2.0047,0.66823 3.9297,1.6573 6.0141,2.0047 4.614,0.76899 9.3914,-0.58019 14.0329,0 2.734,0.34174 5.2913,1.61505 8.0188,2.0047 1.9846,0.2835 4.0094,0 6.0141,0 3.3412,0 6.6824,0 10.0235,0 1.3365,0 2.673,0 4.0094,0 0.6683,0 1.407,0.29884 2.0047,0 0.8453,-0.42263 1.3365,-1.33647 2.0047,-2.0047 1.3365,-1.33647 2.4368,-2.96099 4.0094,-4.0094 0.556,-0.37067 1.4487,0.37067 2.0047,0 1.5726,-1.04841 2.673,-2.67294 4.0094,-4.0094 0.6683,-0.66824 1.4805,-1.2184 2.0047,-2.0047 0.6683,-1.33647 1.3365,-2.67294 2.0047,-4.0094 0,-0.66824 -0.2988,-1.40702 0,-2.0047 4.5874,-9.17473 -0.8309,8.50677 4.0094,-6.0141 0.377,-1.13105 0,-4.6968 0,-6.0141 0,-3.34117 0,-6.68234 0,-10.0235 0,-0.86352 0.2713,-11.48572 0,-12.0282 -0.8614,-1.72281 -8.3737,-5.60165 -10.0235,-6.0141 -1.2965,-0.32414 -2.6989,0.2621 -4.0094,0 -4.1442,-0.82884 -7.9281,-2.98438 -12.0282,-4.0094 -1.2965,-0.32414 -2.6729,0 -4.0094,0 -0.6682,0 -1.3364,0 -2.0047,0 -0.6682,0 -1.4317,-0.3438 -2.0047,0 -2.865,1.71901 -11.3599,6.0141 -8.0188,6.0141 4.4827,0 7.7346,-4.72602 12.0282,-6.0141 2.5602,-0.76806 5.3459,0 8.0188,0"
       id="path4726"
       inkscape:connector-curvature="0" />
    <path
       style="fill:none;fill-rule:evenodd;stroke:#000000;stroke-width:5;stroke-linecap:butt;stroke-linejoin:miter;stroke-opacity:1;stroke-miterlimit:4;stroke-dasharray:none"
       d="m 1597.7458,835.85463 c 2.0047,2.67293 4.5199,5.03037 6.0141,8.0188 1.2322,2.46432 0.7726,5.55448 2.0047,8.0188 0.8453,1.69051 2.9109,2.4714 4.0094,4.0094 4.5295,6.34132 7.4987,13.70568 12.0282,20.047 1.0986,1.53799 2.7994,2.55742 4.0094,4.0094 2.139,2.56675 4.0094,5.34586 6.0141,8.0188 2.0047,2.67293 3.9269,5.40978 6.0141,8.0188 0.5904,0.73794 1.0879,2.2339 2.0047,2.0047 6.8262,-1.70655 5.204,-3.79661 8.0188,-8.0188 42.1371,-63.20562 -2.5214,6.03904 20.047,-30.0705 4.2149,-6.74375 2.967,-4.97171 8.0188,-10.0235 0.6683,-0.66823 1.5821,-1.15945 2.0047,-2.0047 0.2989,-0.59769 0,-2.67293 0,-2.0047 0,2.67293 -0.378,5.37273 0,8.0188 0.5977,4.1838 3.1806,7.88399 4.0094,12.0282 6.0763,30.38139 -2.5187,2.98141 6.0141,20.047 4.6071,9.21417 -0.5197,3.48971 4.0094,8.0188 0.8704,0.87038 4.4408,5.58272 6.0141,4.0094 0.4725,-0.47252 -0.2988,-1.40702 0,-2.0047 1.0775,-2.15499 2.5638,-4.08662 4.0094,-6.0141 2.0047,-2.67294 4.0094,-2.67294 6.0141,-6.0141 1.0872,-1.81201 1.0597,-4.12405 2.0047,-6.0141 1.0775,-2.15499 2.673,-4.0094 4.0094,-6.0141 2.673,-4.0094 5.3459,-8.0188 8.0188,-12.0282 8.3607,-12.54103 15.982,-24.45487 26.0611,-36.0846 14.4301,-10.82254 4.192,-1.27621 10.0235,-10.0235 1.3486,-2.02291 4.0094,-3.45579 4.0094,-2.0047 0,0.66823 -1.3364,0 -2.0047,0"
       id="path4728"
       inkscape:connector-curvature="0" />
    <path
       style="fill:none;fill-rule:evenodd;stroke:#000000;stroke-width:5;stroke-linecap:butt;stroke-linejoin:miter;stroke-opacity:1;stroke-miterlimit:4;stroke-dasharray:none"
       d="m 2002.6952,853.89693 c -11.8848,-4.75393 -6.4249,-4.0094 -16.0376,-4.0094 -3.3412,0 -6.6989,-0.33246 -10.0235,0 -3.3904,0.33904 -6.637,1.62842 -10.0235,2.0047 -8.7539,0.97266 -7.5079,-1.65088 -16.0376,2.0047 -2.2145,0.94909 -3.8591,2.9319 -6.0141,4.0094 -1.0422,0.52108 -11.7496,3.73076 -12.0282,4.0094 -1.4942,1.49421 -1.2199,4.0521 -2.0047,6.0141 -0.5549,1.38734 -1.3365,2.67293 -2.0047,4.0094 -1.3365,1.33646 -3.1641,2.31889 -4.0094,4.0094 -0.5977,1.19537 0,2.67293 0,4.0094 0,2.0047 0.3932,4.04833 0,6.0141 -0.293,1.4652 -1.6423,2.55979 -2.0047,4.0094 -0.3511,1.40457 0,11.30233 0,12.0282 0,6.67583 -0.5517,13.65585 2.0047,20.047 0.2482,0.62043 1.5322,-0.47252 2.0047,0 1.0566,1.05656 0.9481,2.95283 2.0047,4.00939 1.7037,1.70367 4.0094,2.67294 6.0141,4.0094 2.0047,1.33647 3.7284,3.2475 6.0141,4.0094 1.9018,0.63395 4.0483,-0.39315 6.0141,0 1.4652,0.29304 2.5442,1.71166 4.0094,2.0047 1.9658,0.39316 4.0094,0 6.0141,0 2.0047,0 4.0094,0 6.0141,0 2.6581,0 17.7611,0.38099 20.047,0 1.4739,-0.24564 2.6729,-1.33646 4.0094,-2.0047 1.3365,-0.66823 2.6729,-1.33646 4.0094,-2.0047 1.3365,-0.66823 2.9528,-0.94813 4.0094,-2.0047 1.0566,-1.05656 1.2359,-2.72812 2.0047,-4.0094 1.2396,-2.066 2.5638,-4.08662 4.0094,-6.01409 16.5105,-22.01404 2.6213,0.46312 10.0235,-18.0423 1.6648,-4.16204 4.1054,-7.97222 6.0141,-12.0282 3.438,-7.30578 6.4126,-14.82983 10.0235,-22.0517 1.7425,-3.48508 4.4017,-6.47632 6.0141,-10.0235 1.7489,-3.84746 2.293,-8.16618 4.0094,-12.0282 0.9785,-2.20169 3.0309,-3.81241 4.0094,-6.0141 6.9774,-15.69911 2.3966,-7.92785 4.0094,-24.0564 0.2742,-2.74152 1.7306,-5.27728 2.0047,-8.0188 0.399,-3.9895 0,-8.0188 0,-12.0282 0,-4.67763 0,-9.35526 0,-14.0329 0,-8.0188 0,-16.0376 0,-24.0564 0,-1.33646 0,-2.67293 0,-4.0094 0,-0.66823 -0.6682,-2.0047 0,-2.0047 0.6682,0 0,1.33647 0,2.0047 0,1.33647 0,2.67294 0,4.0094 0,4.0094 0,8.0188 0,12.0282 0,4.67763 0,9.35527 0,14.0329 0,4.0094 0.333,8.03265 0,12.0282 -2.7737,33.28438 -2.0047,-11.18822 -2.0047,26.0611 0,14.70113 0,29.40226 0,44.1034 0,6.68233 0,13.36466 0,20.047 0,2.0047 -0.2835,4.02954 0,6.0141 0.3896,2.7275 1.663,5.28488 2.0047,8.0188 0.3315,2.65229 -0.3315,5.3665 0,8.0188 0.3417,2.73392 1.6151,5.29129 2.0047,8.0188 1.7392,12.17456 -2.8765,-0.61084 2.0047,14.03289 2.3035,6.91063 2.0047,1.48501 2.0047,6.0141 0,0.66824 0.6682,2.0047 0,2.0047 -0.6682,0 0,-1.33646 0,-2.0047 0,-3.34116 0,-6.68233 0,-10.0235"
       id="path4730"
       inkscape:connector-curvature="0" />
    <path
       style="fill:none;fill-rule:evenodd;stroke:#000000;stroke-width:5;stroke-linecap:butt;stroke-linejoin:miter;stroke-opacity:1;stroke-miterlimit:4;stroke-dasharray:none"
       d="m 2110.949,821.82173 c 4.6776,0 9.3714,0.38846 14.0329,0 3.3956,-0.28296 6.6425,-1.58207 10.0235,-2.0047 1.9892,-0.24865 4.0367,0.32957 6.0141,0 2.0844,-0.3474 3.9297,-1.6573 6.0141,-2.0047 1.9774,-0.32957 4.0483,0.39315 6.0141,0 1.4652,-0.29304 2.5919,-1.53219 4.0094,-2.0047 0.6339,-0.21131 2.0047,-0.66823 2.0047,0 0,0.66823 -1.3365,0 -2.0047,0"
       id="path4732"
       inkscape:connector-curvature="0" />
    <path
       style="fill:none;fill-rule:evenodd;stroke:#000000;stroke-width:5;stroke-linecap:butt;stroke-linejoin:miter;stroke-opacity:1;stroke-miterlimit:4;stroke-dasharray:none"
       d="m 2126.9866,847.88283 c 0,2.67293 0,5.34586 0,8.0188 0.6682,0.66823 1.7059,1.10817 2.0047,2.0047 0.8453,2.53577 -0.6483,5.42567 0,8.0188 1.025,4.10009 2.9844,7.9281 4.0094,12.0282 0.6289,2.5157 -0.6289,5.50309 0,8.0188 6.9221,20.76621 -2.0589,-8.2899 2.0047,12.0282 0.293,1.46519 1.5322,2.59186 2.0047,4.0094 0.4226,1.26788 0,2.67293 0,4.0094 0,2.67293 0,5.34586 0,8.0188 0,0.66823 -0.2988,1.40701 0,2.0047 0.4226,0.84525 1.5821,1.15944 2.0047,2.0047 0.2988,0.59768 -0.4725,1.53218 0,2.0047 0.4725,0.47251 1.3365,0 2.0047,0 2.6729,0 5.3978,0.5242 8.0188,0 12.1366,-2.42733 0.8306,-2.0047 10.0235,-2.0047"
       id="path4734"
       inkscape:connector-curvature="0" />
    <path
       style="fill:none;fill-rule:evenodd;stroke:#000000;stroke-width:5;stroke-linecap:butt;stroke-linejoin:miter;stroke-opacity:1;stroke-miterlimit:4;stroke-dasharray:none"
       d="m 2241.2545,849.88753 c -6.0141,0 -12.0282,0 -18.0423,0 -0.6682,0 -1.3564,-0.16207 -2.0047,0 -2.05,0.51251 -3.942,1.59028 -6.0141,2.0047 -1.3105,0.2621 -2.7415,-0.42263 -4.0094,0 -0.8965,0.29884 -1.4377,1.24868 -2.0047,2.0047 -3.6287,4.83824 -3.682,5.35939 -6.0141,10.0235 -0.6682,1.33646 -1.1082,2.81403 -2.0047,4.0094 -1.134,1.51204 -3.4117,2.21634 -4.0094,4.0094 -4.0094,12.0282 2.0047,4.0094 0,12.0282 -0.3624,1.4496 -1.5322,2.59186 -2.0047,4.0094 -0.3255,0.97662 -0.032,9.97617 0,10.0235 1.0484,1.57261 2.6729,2.67293 4.0094,4.0094 1.3365,1.33646 2.4974,2.87537 4.0094,4.0094 1.3365,0.66823 2.6729,1.33646 4.0094,2.0047 0.6682,0 1.407,-0.29885 2.0047,0 24.705,12.35248 -18.7719,-5.58908 16.0376,6.0141 2.8351,0.94502 5.1453,3.18841 8.0188,4.0094 1.9276,0.55073 4.0094,0 6.0141,0 0.6682,0 1.3365,0 2.0047,0 0.6682,0 1.407,0.29884 2.0047,0 0.8453,-0.42263 1.3365,-1.33647 2.0047,-2.0047 3.814,-3.81397 5.4187,-5.09454 8.0188,-12.0282 0.7039,-1.87706 -0.6339,-4.11228 0,-6.0141 0.7619,-2.28571 2.814,-3.9222 4.0094,-6.0141 1.4827,-2.59469 2.6729,-5.34587 4.0094,-8.0188 0.6682,-1.33647 1.3365,-2.67294 2.0047,-4.0094 0,-1.33647 -0.4226,-2.74152 0,-4.0094 0.945,-2.83508 2.8995,-5.24411 4.0094,-8.0188 0.2482,-0.62044 0,-1.33647 0,-2.0047 0.6682,-0.66824 1.5821,-1.15945 2.0047,-2.0047 0.2988,-0.59769 0,-2.67294 0,-2.0047 0,10.55408 -1.112,1.78538 4.0094,12.0282 0.945,1.89005 0.7765,4.29456 2.0047,6.0141 10.6815,14.95406 4.0029,4.00453 12.0282,10.0235 1.512,1.13403 2.4974,2.87537 4.0094,4.0094 3.3644,2.52331 6.207,2.0047 10.0235,2.0047"
       id="path4736"
       inkscape:connector-curvature="0" />
    <path
       style="fill:none;fill-rule:evenodd;stroke:#000000;stroke-width:5;stroke-linecap:butt;stroke-linejoin:miter;stroke-opacity:1;stroke-miterlimit:4;stroke-dasharray:none"
       d="m 2395.6164,841.86873 c -2.6729,-1.33647 -5.2441,-2.89953 -8.0188,-4.0094 -0.9507,-0.38027 -13.7317,0 -14.0329,0 -1.3365,0 -2.7415,-0.42263 -4.0094,0 -4.3606,1.45354 -6.8817,4.87699 -10.0235,8.0188 -1.3365,1.33647 -2.6729,2.67293 -4.0094,4.0094 -1.3365,1.33646 -3.1642,2.31889 -4.0094,4.0094 -0.2891,0.57828 0,10.74695 0,12.0282 0,1.19354 -0.376,11.27615 0,12.0282 0.2988,0.59768 1.3564,-0.16207 2.0047,0 2.05,0.51251 4.0521,1.2199 6.0141,2.0047 1.3873,0.55493 2.5355,1.75905 4.0094,2.0047 2.6366,0.43942 5.3459,0 8.0188,0 4.0094,0 8.0188,0 12.0282,0 1.0483,0 7.4917,0.26356 8.0188,0 4.4325,-2.21625 0.6221,-1.24421 2.0047,-4.0094 0.4226,-0.84526 1.5821,-1.15945 2.0047,-2.0047 0.2246,-0.44932 0,-7.54242 0,-8.0188 0,-2.66667 0,-1.34274 0,-4.0094 0,-0.66824 0,-2.67294 0,-2.0047 0,10.69173 0,21.38346 0,32.0752 0,4.67763 -0.3333,9.36715 0,14.0329 0.3366,4.71311 1.2279,9.37206 2.0047,14.0329 0.5602,3.36097 1.3952,6.67112 2.0047,10.02349 2.3737,13.05514 2.0988,15.71457 6.0141,30.0705 0.3931,1.44157 1.6423,2.5598 2.0047,4.0094 0.2762,1.10503 0.2309,10.8735 0,12.0282 -0.4144,2.07211 -1.4922,3.96406 -2.0047,6.0141 -0.1621,0.64828 0.2113,1.37076 0,2.0047 -0.4725,1.41754 -1.7117,2.5442 -2.0047,4.0094 -0.3932,1.96577 0.8965,4.22104 0,6.0141 -0.6682,1.33647 -2.9528,0.94813 -4.0094,2.0047 -1.0566,1.05657 -1.1759,2.76618 -2.0047,4.00938 -0.5242,0.7863 -1.3365,1.3365 -2.0047,2.0047 -1.3365,1.3365 -2.4974,2.8754 -4.0094,4.0094 -1.1954,0.8966 -2.9528,0.9482 -4.0094,2.0047 -2.3626,2.3626 -3.4474,5.8799 -6.0141,8.0188 -3.6553,3.0461 -15.0054,2.0047 -20.047,2.0047 -2.6729,0 -5.3459,0 -8.0188,0 -3.3412,0 -6.7028,0.369 -10.0235,0 -4.3709,-0.4856 -14.08,-3.3725 -18.0423,-6.0141 -0.7863,-0.5242 -1.1595,-1.582 -2.0047,-2.0047 -1.1954,-0.5977 -2.814,0.5977 -4.0094,0 -2.8479,-1.4239 -2.8479,-4.5901 0,-6.0141 0.5977,-0.2988 1.3365,0 2.0047,0"
       id="path4738"
       inkscape:connector-curvature="0" />
    <path
       style="fill:none;fill-rule:evenodd;stroke:#000000;stroke-width:5;stroke-linecap:butt;stroke-linejoin:miter;stroke-opacity:1;stroke-miterlimit:4;stroke-dasharray:none"
       d="m 2439.7198,861.91573 c 2.0047,6.0141 4.0094,12.0282 6.0141,18.0423 0.6682,2.0047 1.6573,3.92971 2.0047,6.0141 0.3296,1.97742 -0.3932,4.04833 0,6.0141 0.293,1.46519 1.6423,2.55979 2.0047,4.0094 0.3365,1.34593 -1.4767,10.0235 2.0047,10.0235 0.6682,0 0,-1.33647 0,-2.0047 0,-1.33647 0,-2.67294 0,-4.0094 0,-4.67764 0,-9.35527 0,-14.0329 0,-2.0047 0,-4.0094 0,-6.0141 0,-0.66824 -0.2113,-1.37076 0,-2.0047 2.4225,-7.26762 0.9511,-1.42674 4.0094,-6.0141 0.8288,-1.24326 0.9481,-2.95283 2.0047,-4.0094 1.0566,-1.05657 2.9528,-0.94813 4.0094,-2.0047 1.7037,-1.70367 1.9434,-4.7745 4.0094,-6.0141 4.7896,0 7.6304,0.63394 12.0282,-2.0047 1.6207,-0.97242 2.3189,-3.16415 4.0094,-4.0094 1.1954,-0.59769 2.7128,0.32414 4.0094,0 1.4496,-0.3624 2.5918,-1.53219 4.0094,-2.0047 1.2679,-0.42263 2.6729,0 4.0094,0"
       id="path4740"
       inkscape:connector-curvature="0" />
    <path
       style="fill:none;fill-rule:evenodd;stroke:#000000;stroke-width:5;stroke-linecap:butt;stroke-linejoin:miter;stroke-opacity:1;stroke-miterlimit:4;stroke-dasharray:none"
       d="m 2553.9877,845.87813 c -4.6777,4.0094 -9.6766,7.67185 -14.0329,12.0282 -0.4725,0.47251 0.2113,1.37076 0,2.0047 -0.4725,1.41753 -1.5322,2.59186 -2.0047,4.0094 -0.2113,0.63394 0.2113,1.37076 0,2.0047 -2.673,8.0188 -1.9236,-0.40535 -4.0094,10.0235 -0.5242,2.62102 0,5.34586 0,8.0188 0,4.0094 0,8.0188 0,12.0282 0,4.43032 -0.4045,11.82596 4.0094,14.0329 1.89,0.94502 4.124,1.05967 6.0141,2.0047 0.8452,0.42262 1.1594,1.58207 2.0047,2.0047 0.5977,0.29884 1.3364,0 2.0047,0 2.0047,0 4.0094,0 6.0141,0 1.3364,0 2.6989,-0.26211 4.0094,0 2.0721,0.41442 3.964,1.49218 6.0141,2.0047 0.6483,0.16207 1.3364,0 2.0047,0 0.6682,0 1.7058,0.59768 2.0047,0 0.5977,-1.19538 -0.3242,-2.71284 0,-4.0094 0.3624,-1.44961 1.4497,-2.62206 2.0047,-4.0094 0.7848,-1.962 1.3364,-4.0094 2.0047,-6.0141 0.6682,-2.0047 1.5903,-3.942 2.0047,-6.0141 0.2621,-1.31052 0,-2.67294 0,-4.0094 0,-5.16109 0.4403,-9.14279 -2.0047,-14.0329 -0.4226,-0.84526 -1.5821,-1.15945 -2.0047,-2.0047 -0.2989,-0.59769 0,-1.33647 0,-2.0047 0,-2.0047 0.3296,-4.03668 0,-6.0141 -0.6683,-2.0047 -1.3365,-4.0094 -2.0047,-6.0141 -0.6683,0 -1.5322,0.47251 -2.0047,0 -0.4725,-0.47251 0,-1.33647 0,-2.0047 0,-0.66824 -0.2989,-2.60239 0,-2.0047 0.945,1.89005 1.2199,4.0521 2.0047,6.0141 1.1762,2.94058 4.2491,7.96436 6.0141,10.0235 2.46,2.87006 5.5988,5.11484 8.0188,8.0188 7.9096,9.49151 -6.6081,-2.59869 6.0141,10.0235 1.0566,1.05657 2.5918,1.53218 4.0094,2.0047 0.6339,0.21131 1.5322,-0.47252 2.0047,0 0.4725,0.47251 -0.2113,1.37075 0,2.0047 0.4725,1.41753 0.9481,2.95283 2.0047,4.0094 0.4725,0.47251 2.6386,-0.21132 2.0047,0 -7.959,2.65298 -7.8374,2.0047 -16.0376,2.0047"
       id="path4742"
       inkscape:connector-curvature="0" />
    <path
       style="fill:none;fill-rule:evenodd;stroke:#000000;stroke-width:5;stroke-linecap:butt;stroke-linejoin:miter;stroke-opacity:1;stroke-miterlimit:4;stroke-dasharray:none"
       d="m 2628.1616,853.89693 c 0,8.0188 0,16.0376 0,24.0564 0,2.0047 -0.2487,4.02488 0,6.0141 0.4226,3.38102 1.1783,6.7179 2.0047,10.0235 4.1715,16.68616 -0.1384,-2.41989 4.0094,10.0235 0.2113,0.63394 0,1.33646 0,2.0047 0,0.66823 0.6682,2.0047 0,2.0047 -0.6683,0 0,-1.33647 0,-2.0047 0,-0.66824 0,-1.33647 0,-2.0047 0,-2.0047 -0.2835,-4.02955 0,-6.0141 2.3288,-16.30189 2.0047,-1.87465 2.0047,-12.0282 0,-5.62401 -0.634,-6.75092 2.0047,-12.0282 1.0775,-2.15499 3.2475,-3.72839 4.0094,-6.0141 0.6339,-1.90183 -0.7445,-4.15279 0,-6.0141 0.7019,-1.75487 2.8753,-2.49736 4.0094,-4.0094 0.6144,-0.81929 3.6767,-7.797 4.0094,-8.0188 1.112,-0.74134 2.7128,0.32414 4.0094,0 4.1382,-1.03457 5.1688,-4.0094 10.0235,-4.0094 2.6729,0 5.3458,0 8.0188,0 0.6682,0 1.3364,0 2.0047,0 0.6682,0 1.7934,-0.63394 2.0047,0 0.6339,1.90182 -0.3296,4.03667 0,6.0141 0.6948,4.16877 3.4117,7.8444 4.0094,12.0282 0.378,2.64607 -0.266,5.35913 0,8.0188 2.554,25.53984 2.0047,-0.43396 2.0047,22.0517 0,2.0047 -0.3296,4.03667 0,6.0141 2.216,13.29608 2.0047,1.79866 2.0047,8.0188 0,0.66823 0,1.33646 0,2.0047 0,0.66823 0.6682,2.0047 0,2.0047 -0.6683,0 0,-1.33647 0,-2.0047 0,-1.33647 -0.2621,-2.69889 0,-4.0094 2.9185,-14.5927 0.2277,1.54928 6.0141,-10.0235 1.2321,-2.46433 0.9194,-5.48638 2.0047,-8.0188 0.9491,-2.21454 2.9319,-3.85912 4.0094,-6.0141 0.945,-1.89005 0.9175,-4.2021 2.0047,-6.0141 0.9724,-1.62071 2.961,-2.43679 4.0094,-4.0094 13.4348,-20.15219 2.6382,-8.65231 12.0282,-18.0423 0.06,-0.0601 7.2091,-7.61394 8.0188,-8.0188 0.7948,-0.39743 5.6042,0.40983 6.0141,0 0.891,-0.89098 -1.5592,-3.78666 2.0047,-2.0047 0.8452,0.42263 1.4805,1.21839 2.0047,2.0047 3.4989,5.24837 2.0047,6.42709 2.0047,14.0329 0,4.0094 -0.399,8.0387 0,12.0282 0.4044,4.04453 1.1229,8.06028 2.0047,12.0282 2.2848,10.28167 2.2629,1.80781 4.0094,14.0329 0.2835,1.98455 -0.7446,4.15278 0,6.0141 0.7019,1.75486 2.961,2.43678 4.0094,4.0094 0.3706,0.556 0,1.33646 0,2.0047 0,0.66823 0.4725,1.53218 0,2.0047 -0.4725,0.47251 -2.0047,0.66823 -2.0047,0 0,-0.66824 1.3364,0 2.0047,0"
       id="path4744"
       inkscape:connector-curvature="0" />
  </g>
</svg>
