<?xml version="1.0" encoding="utf-8"?>
<!-- Generator: Adobe Illustrator 20.0.0, SVG Export Plug-In . SVG Version: 6.00 Build 0)  -->
<svg version="1.1" id="Layer_5" xmlns="http://www.w3.org/2000/svg" xmlns:xlink="http://www.w3.org/1999/xlink" x="0px" y="0px"
	 viewBox="0 0 148.2 245.3" style="enable-background:new 0 0 148.2 245.3;" xml:space="preserve">
<path d="M20,12.4c-0.2,0-0.4,0.1-0.6,0.2c-0.2,0.1-0.4,0.2-0.6,0.3c-0.4,0.3-0.7,0.6-1.1,1c-0.3,0.3-0.6,0.7-0.9,1.1
	c-0.3,0.4-0.6,0.8-0.9,1.2c-0.3,0.4-0.5,0.9-0.6,1.4c-0.1,0.5-0.1,1.1,0,1.6c0.1,0.3,0.2,0.5,0.4,0.7c0.2,0.2,0.3,0.3,0.5,0.5
	c0.2,0.1,0.4,0.2,0.6,0.3c0.3,0.1,0.6,0.1,0.9,0c0.2,0,0.5-0.2,0.7-0.3c0.2-0.1,0.4-0.3,0.6-0.4c0.4-0.3,0.8-0.7,1.2-1.1
	c0.2-0.2,0.3-0.3,0.5-0.5c0,0.3,0.1,0.5,0.1,0.8c0.1,0.4,0.2,0.7,0.4,1c0.2,0.4,0.5,0.6,0.8,0.9c0,0-0.1-0.1-0.1-0.1
	c0,0,0,0,0.1,0.1c0.2,0.2,0.4,0.3,0.6,0.3c0.2,0,0.5-0.1,0.6-0.3c0.3-0.3,0.3-0.9,0-1.2c0,0-0.1-0.1-0.1-0.1c0,0,0-0.1-0.1-0.1
	c-0.1-0.3-0.2-0.7-0.2-1c-0.1-0.6-0.1-1.1-0.2-1.7c0-0.1,0-0.2,0-0.4c0-0.2,0-0.4-0.1-0.6c0-0.2,0-0.4,0-0.5c0-0.5,0-1.1-0.2-1.5
	c-0.2-0.5-0.4-0.9-0.8-1.2c-0.3-0.2-0.6-0.3-0.9-0.3C20.4,12.3,20.2,12.3,20,12.4L20,12.4z M20.6,14.3
	C20.6,14.3,20.6,14.3,20.6,14.3C20.6,14.3,20.6,14.3,20.6,14.3L20.6,14.3z M20.4,14.3c0,0.1,0.1,0.2,0.1,0.3c0,0.2,0,0.4,0,0.7
	c-0.1,0.1-0.1,0.2-0.2,0.2c-0.1,0.2-0.2,0.3-0.3,0.5c-0.1,0.2-0.2,0.3-0.3,0.5c-0.3,0.3-0.5,0.6-0.8,0.9c-0.3,0.3-0.6,0.7-1,0.9
	c-0.2,0.1-0.4,0.3-0.6,0.4c0,0,0,0,0,0c0,0,0,0,0,0c0,0,0,0,0,0c0,0,0,0,0,0c0,0,0,0,0,0c0-0.1,0-0.2,0-0.3c0-0.2,0.1-0.4,0.2-0.6
	c0.3-0.6,0.7-1.2,1.1-1.7c0.2-0.3,0.5-0.5,0.7-0.8c0.2-0.2,0.4-0.4,0.6-0.6c0.1-0.1,0.2-0.1,0.3-0.2C20.2,14.4,20.3,14.4,20.4,14.3
	L20.4,14.3z M19.8,16.4C19.8,16.4,19.7,16.4,19.8,16.4C19.7,16.4,19.8,16.4,19.8,16.4L19.8,16.4z M17.1,18.5
	C17.1,18.6,17.2,18.6,17.1,18.5C17.2,18.6,17.1,18.6,17.1,18.5L17.1,18.5z M17.1,18.6C17.2,18.6,17.2,18.7,17.1,18.6
	C17.2,18.7,17.2,18.6,17.1,18.6L17.1,18.6z M17.3,18.8C17.3,18.8,17.3,18.8,17.3,18.8C17.3,18.8,17.3,18.8,17.3,18.8
	C17.3,18.8,17.3,18.8,17.3,18.8L17.3,18.8z M17.3,18.8C17.3,18.8,17.3,18.8,17.3,18.8C17.3,18.8,17.3,18.8,17.3,18.8
	C17.3,18.8,17.3,18.8,17.3,18.8C17.3,18.8,17.3,18.8,17.3,18.8L17.3,18.8z M17.2,18.8C17.2,18.8,17.2,18.8,17.2,18.8
	C17.2,18.8,17.2,18.8,17.2,18.8L17.2,18.8z M17.3,18.8C17.3,18.8,17.3,18.8,17.3,18.8C17.3,18.8,17.3,18.8,17.3,18.8
	C17.3,18.8,17.3,18.8,17.3,18.8L17.3,18.8z M21.9,20.9C21.9,20.9,21.9,20.9,21.9,20.9C21.9,20.9,21.9,20.9,21.9,20.9L21.9,20.9z"/>
<path d="M28.6,2.9c-0.2,0.2-0.3,0.4-0.3,0.7c-0.2,1.6-0.4,3.3-0.5,4.9c-0.1,1-0.2,2-0.3,3.1c-0.1,0.7-0.1,1.4-0.2,2.1
	c0,0.4-0.1,0.9-0.1,1.3c0,0.7-0.1,1.3-0.1,2c0,0.3,0,0.6,0,0.9c0,0.7,0,1.5,0.6,2.1c0.2,0.3,0.6,0.3,0.9,0.3c0.4,0,0.7-0.2,0.8-0.6
	c0.1-0.4-0.1-0.8-0.4-1c0-0.2,0-0.4,0-0.6c0-0.2,0-0.5,0.1-0.7c0-0.2,0-0.5,0.1-0.8c0-0.5,0.1-1.1,0.1-1.6c0.1-1.2,0.2-2.3,0.3-3.5
	c0.1-1,0.2-2,0.3-3c0.2-1.6,0.4-3.2,0.5-4.8c0-0.2-0.1-0.5-0.3-0.7c-0.2-0.2-0.4-0.3-0.7-0.3C29.1,2.6,28.8,2.7,28.6,2.9L28.6,2.9z
	 M28.9,19C28.9,19,28.9,19,28.9,19C28.9,19,28.9,19,28.9,19L28.9,19z"/>
<path d="M32.3,2.8c-0.1,1.7-0.2,3.4-0.3,5.1c-0.1,1.1-0.1,2.2-0.2,3.3c-0.1,2.2-0.2,4.5-0.2,6.7c0,0.4,0,0.9,0,1.3
	c0,0.5,0,1,0.1,1.5c0,0.2,0.1,0.4,0.2,0.7c0.1,0.2,0.3,0.4,0.5,0.6c0.3,0.3,0.7,0.3,1.1,0.1c0.2-0.1,0.3-0.3,0.4-0.5
	c0.1-0.2,0-0.5-0.1-0.7c-0.1-0.1-0.1-0.2-0.2-0.3c0-0.1,0-0.1-0.1-0.2c-0.1-0.8,0-1.7,0-2.5c0-0.5,0-0.9,0-1.4
	c0-1.1,0.1-2.3,0.1-3.4c0.1-2.4,0.3-4.8,0.4-7.1c0.1-1.1,0.1-2.1,0.2-3.2c0-0.5-0.5-1-1-1C32.7,1.8,32.4,2.2,32.3,2.8L32.3,2.8z"/>
<path d="M50.8,0.6c-0.2,0.2-0.3,0.4-0.3,0.7c-0.4,3.2-0.8,6.5-1.3,9.8c-0.2,1.9-0.5,3.7-0.7,5.6c-0.1,0.6-0.1,1.3-0.2,1.9
	c0,0.2,0,0.3-0.1,0.5c0,0.3,0,0.6-0.1,0.9c0,0.4,0,0.7,0,1.1c0,0.2,0.1,0.5,0.3,0.6c0.2,0.2,0.4,0.3,0.6,0.3c0.5,0,0.9-0.4,0.9-0.9
	c0-0.9,0.2-1.8,0.3-2.7c0.1-0.7,0.2-1.3,0.2-2c0.1-1.2,0.3-2.3,0.4-3.5c0.3-2.3,0.6-4.6,0.9-6.9c0.2-1.6,0.4-3.1,0.6-4.7
	c0-0.2-0.1-0.5-0.3-0.7c-0.2-0.2-0.4-0.3-0.7-0.3C51.2,0.3,51,0.4,50.8,0.6L50.8,0.6z"/>
<path d="M56.6,4.9c-3.2,1.9-6.6,3.4-10,5c-0.2,0.1-0.3,0.3-0.3,0.4c-0.1,0.2,0,0.4,0.1,0.5s0.2,0.3,0.4,0.3c0.2,0.1,0.4,0,0.5-0.1
	c1-0.5,2.1-1,3.1-1.5c0.7-0.3,1.3-0.6,2-1c1.6-0.9,3.2-1.7,4.8-2.7c0.3-0.2,0.4-0.6,0.2-0.9c-0.1-0.2-0.3-0.3-0.5-0.3
	C56.8,4.8,56.7,4.8,56.6,4.9L56.6,4.9z"/>
<path d="M56.5,0.3c-0.2,0.2-0.3,0.4-0.3,0.7c-0.2,2.7-0.4,5.4-0.6,8.1c-0.2,2.4-0.3,4.8-0.5,7.2c0,0.3,0.2,0.7,0.5,0.9
	c0.3,0.2,0.7,0.2,1,0c0.1-0.1,0.3-0.2,0.4-0.3c0.2-0.2,0.3-0.4,0.4-0.7c0.1-0.3,0.2-0.6,0.3-0.8c0.1-0.3,0.2-0.5,0.3-0.8
	c0.3-0.6,0.5-1.3,0.9-1.9c0,0,0.1-0.1,0.1-0.1c0.1,0.2,0.2,0.4,0.3,0.6c0.2,0.6,0.4,1.2,0.6,1.8c0.1,0.5,0.3,0.9,0.4,1.4
	s0.6,0.8,1.1,0.6c0.5-0.1,0.8-0.6,0.6-1.1c-0.2-0.7-0.4-1.4-0.6-2.1c-0.1-0.4-0.3-0.8-0.4-1.1c-0.2-0.4-0.3-0.7-0.6-1.1
	c-0.2-0.3-0.5-0.7-0.9-0.8c-0.4-0.1-0.8-0.1-1.2,0.1c-0.5,0.2-0.8,0.5-1.1,0.9c0.1-0.9,0.1-1.7,0.2-2.6C57.8,6.4,58,3.7,58.2,1
	c0-0.5-0.5-1-1-1C56.9,0,56.7,0.1,56.5,0.3L56.5,0.3z M59.1,12.6C59.1,12.6,59.1,12.6,59.1,12.6C59.1,12.6,59.1,12.6,59.1,12.6
	C59.1,12.6,59.1,12.6,59.1,12.6L59.1,12.6z M59.1,12.6C59.1,12.6,59.1,12.6,59.1,12.6C59.1,12.6,59.1,12.6,59.1,12.6L59.1,12.6z
	 M59.4,13c0,0,0,0.1,0.1,0.1C59.4,13.1,59.4,13,59.4,13L59.4,13z"/>
<path d="M66.8,10.7c-0.3,0.3-0.6,0.6-0.9,1c-0.3,0.4-0.6,0.8-0.8,1.2c-0.3,0.4-0.5,0.8-0.6,1.3c-0.1,0.5-0.2,1-0.1,1.4
	c0.1,1,0.5,2.1,1.4,2.7c0.3,0.3,0.7,0.6,1.1,0.8c0.5,0.2,0.9,0.3,1.5,0.3c0.5,0,1-0.1,1.5-0.1c0.5-0.1,1-0.2,1.6-0.3
	c0.5-0.1,0.7-0.6,0.6-1.1c-0.1-0.5-0.6-0.7-1.1-0.6c-0.6,0.1-1.1,0.2-1.7,0.3c-0.3,0-0.7,0-1,0c-0.1,0-0.3-0.1-0.4-0.1
	c-0.2-0.1-0.5-0.3-0.7-0.4c-0.1-0.1-0.3-0.2-0.4-0.4c-0.1-0.1-0.2-0.3-0.3-0.5c-0.1-0.2-0.2-0.5-0.2-0.7c0-0.1,0-0.1,0-0.2
	c0.7-0.6,1.5-1.1,2.1-1.8c0.3-0.3,0.6-0.7,0.8-1.1c0.1-0.2,0.2-0.4,0.2-0.7c0-0.1,0-0.3,0-0.4c0-0.2-0.1-0.5-0.2-0.6
	c-0.1-0.2-0.3-0.4-0.5-0.5c-0.1-0.1-0.2-0.1-0.3-0.2c-0.1-0.1-0.2-0.1-0.4-0.1c0,0-0.1,0-0.1,0C67.5,10.1,67.1,10.4,66.8,10.7
	L66.8,10.7z M68.3,11.9C68.3,11.9,68.3,11.9,68.3,11.9C68.3,11.9,68.3,11.9,68.3,11.9L68.3,11.9z M69.4,17.6c0,0-0.1,0-0.1,0
	C69.3,17.6,69.4,17.6,69.4,17.6L69.4,17.6z"/>
<path d="M78.1,9c-0.5,0.1-1.1,0.2-1.6,0.4c-0.3,0.1-0.6,0.2-0.8,0.3c-0.3,0.1-0.5,0.3-0.7,0.5c-0.5,0.4-0.6,1.1-0.6,1.7
	c0,0.3,0.1,0.6,0.1,1c0.1,0.3,0.2,0.6,0.3,0.9c0.3,1,0.7,2,0.8,3c0,0.3,0,0.5,0,0.8c-0.1,0.4-0.2,0.7-0.3,1.1
	c-0.1,0.4,0.1,0.8,0.4,1c0.3,0.2,0.8,0.2,1.1-0.1c0.7-0.8,0.9-1.9,0.8-2.9c-0.1-0.6-0.2-1.3-0.4-1.9c-0.1-0.3-0.2-0.6-0.3-0.9
	c-0.2-0.6-0.4-1.2-0.5-1.8c0-0.1,0-0.3,0-0.4c0,0,0.1-0.1,0.1-0.1c0,0,0.1-0.1,0.1-0.1c0.3-0.1,0.6-0.2,0.8-0.3
	c0.4-0.1,0.8-0.2,1.2-0.2c0.2,0,0.5-0.3,0.6-0.5c0.1-0.2,0.2-0.5,0.1-0.8c-0.1-0.2-0.2-0.5-0.5-0.6C78.7,9,78.6,9,78.4,9
	C78.3,9,78.2,9,78.1,9L78.1,9z M76.6,11.5C76.6,11.5,76.6,11.5,76.6,11.5C76.6,11.5,76.6,11.5,76.6,11.5
	C76.6,11.5,76.6,11.5,76.6,11.5L76.6,11.5z M76.6,11.5C76.6,11.5,76.5,11.5,76.6,11.5C76.5,11.5,76.5,11.5,76.6,11.5
	c-0.1,0-0.1,0.1-0.1,0.1C76.5,11.6,76.5,11.6,76.6,11.5C76.5,11.5,76.5,11.5,76.6,11.5C76.5,11.5,76.5,11.5,76.6,11.5
	C76.5,11.5,76.5,11.5,76.6,11.5C76.5,11.5,76.5,11.5,76.6,11.5C76.5,11.5,76.5,11.5,76.6,11.5L76.6,11.5z M76.4,11.7
	c0,0,0,0.1,0,0.1C76.4,11.8,76.4,11.7,76.4,11.7L76.4,11.7z M76.5,11.5C76.5,11.5,76.5,11.5,76.5,11.5
	C76.5,11.5,76.5,11.5,76.5,11.5C76.5,11.5,76.5,11.5,76.5,11.5C76.5,11.5,76.5,11.5,76.5,11.5L76.5,11.5z"/>
<path d="M83.7,10.9c-0.2,0.1-0.4,0.2-0.6,0.3c-0.3,0.1-0.5,0.4-0.8,0.6c-0.4,0.3-0.7,0.7-0.9,1.1c-0.2,0.3-0.3,0.5-0.5,0.8
	c-0.5,0.2-0.9,0.4-1.4,0.6c-0.2,0.1-0.4,0.3-0.4,0.6c-0.1,0.2,0,0.5,0.1,0.7c0.1,0.2,0.3,0.4,0.6,0.4c0.2,0.1,0.4,0,0.6,0
	c0,0.4,0.1,0.8,0.3,1.2c0.2,0.5,0.5,0.9,0.8,1.3c0.4,0.4,0.9,0.7,1.3,0.9c0.4,0.3,1,0.1,1.3-0.3c0.3-0.5,0.1-1-0.3-1.3
	c-0.2-0.1-0.4-0.3-0.6-0.4c-0.2-0.1-0.3-0.3-0.4-0.4c-0.1-0.1-0.2-0.3-0.3-0.5c-0.1-0.2-0.1-0.3-0.2-0.5c0-0.1,0-0.3,0-0.4
	c0-0.2,0.1-0.4,0.2-0.5c0.1-0.1,0.2-0.1,0.4-0.2c0.6-0.3,1.1-0.6,1.7-0.9c0.4-0.3,0.7-0.6,0.9-1.1c0.1-0.2,0.1-0.4,0.1-0.7
	c0-0.1,0-0.3-0.1-0.4c0-0.2-0.2-0.4-0.3-0.5c-0.2-0.2-0.4-0.3-0.6-0.4c-0.1,0-0.2,0-0.3,0C84.1,10.9,83.9,10.9,83.7,10.9L83.7,10.9z
	 M82.5,15.1C82.5,15.1,82.5,15.1,82.5,15.1C82.5,15.1,82.5,15.1,82.5,15.1L82.5,15.1L82.5,15.1z"/>
<path d="M97.8,10.6c-0.2,0.2-0.3,0.4-0.3,0.7c-0.1,0.7-0.1,1.4-0.1,2.1c0,0.2,0,0.4,0,0.6c0,0.3,0,0.5,0,0.8c0,0.5,0,1,0.1,1.5
	c0,0.3,0.1,0.6,0.1,1c0,0.2,0,0.4,0.1,0.6c0,0.2,0.2,0.4,0.3,0.6c0.2,0.2,0.4,0.4,0.7,0.5c0.4,0.3,0.9,0.1,1.2-0.2
	c0.2-0.2,0.3-0.3,0.5-0.5c0.2-0.2,0.3-0.4,0.5-0.6c0.2-0.3,0.4-0.6,0.5-1c0.2-0.3,0.3-0.7,0.5-1c0.4-0.7,0.7-1.5,1-2.2
	c0.1-0.3,0.2-0.5,0.1-0.8c-0.1-0.2-0.2-0.5-0.5-0.6c-0.4-0.3-1.1-0.1-1.3,0.4c-0.3,0.7-0.6,1.4-1,2.1c-0.1,0.3-0.3,0.5-0.4,0.8
	c-0.1,0.2-0.2,0.5-0.3,0.7c0-0.1,0-0.2,0-0.4c0-0.4,0-0.9,0-1.3c0-0.4,0-0.7,0-1.1c0-0.6,0.1-1.2,0.1-1.9c0-0.5-0.5-1-1-1
	C98.3,10.3,98,10.4,97.8,10.6L97.8,10.6z"/>
<path d="M107.9,10.3c-0.2,0.2-0.4,0.4-0.6,0.6c-0.2,0.2-0.4,0.4-0.6,0.6c-0.4,0.5-0.8,1-1,1.6c-0.1,0.3-0.2,0.6-0.3,0.9
	c-0.1,0.3-0.1,0.7-0.1,1c0,0.3,0.1,0.6,0.3,1c0.1,0.3,0.3,0.5,0.5,0.7c0.4,0.5,0.9,0.8,1.5,1c0.2,0.1,0.5,0.1,0.8,0.2
	c0.3,0.1,0.6,0.1,0.9,0.1c0.7,0,1.3,0,2,0c0.5,0,0.9-0.4,0.9-0.9c0-0.5-0.4-0.9-0.9-0.9c-0.7,0-1.5,0-2.2,0c-0.3-0.1-0.7-0.1-1-0.2
	c-0.1,0-0.2-0.1-0.3-0.2c-0.1-0.1-0.2-0.2-0.3-0.3c-0.1-0.1-0.1-0.2-0.2-0.3c0-0.1,0-0.2-0.1-0.2c0-0.1,0-0.2,0-0.2
	c0.4-0.4,0.8-0.7,1.1-1.1c0.6-0.6,1.1-1.2,1.6-1.9c0.3-0.5,0.1-1.1-0.4-1.4c-0.2-0.1-0.5-0.3-0.8-0.3
	C108.4,10,108.1,10.1,107.9,10.3L107.9,10.3z"/>
<path d="M117,11.9c-0.5,0.3-1,0.7-1.5,1.1c-0.5,0.4-0.9,0.8-1.3,1.2c-0.4,0.4-0.8,0.9-1,1.4c-0.3,0.6-0.2,1.2,0,1.8
	c0.2,0.6,0.7,1.1,1.2,1.5c0.2,0.2,0.5,0.3,0.8,0.4c0.3,0.1,0.5,0.1,0.8,0.2c0.6,0.1,1.2,0.1,1.8,0.1c0.3,0,0.7-0.1,1-0.2
	c0.3-0.1,0.5-0.2,0.8-0.3c0.2-0.1,0.4-0.2,0.6-0.4c0.1-0.2,0.2-0.5,0.1-0.7c-0.1-0.5-0.7-0.8-1.2-0.7c-0.2,0.1-0.4,0.2-0.6,0.2
	c-0.2,0.1-0.3,0.1-0.5,0.1c-0.4,0-0.9,0-1.3,0c-0.4-0.1-0.7-0.2-1.1-0.3c-0.1,0-0.2-0.1-0.2-0.1c-0.1-0.1-0.1-0.1-0.2-0.2
	c0-0.1-0.1-0.1-0.1-0.2c0-0.1,0-0.1,0-0.2c0,0,0-0.1,0-0.1c0,0,0,0,0,0c0.1-0.1,0.2-0.3,0.3-0.4c0.2-0.3,0.5-0.5,0.7-0.8
	c0.3-0.3,0.6-0.6,1-0.9c0.3-0.2,0.7-0.5,1-0.7c0.4-0.3,0.6-0.9,0.4-1.4c-0.2-0.3-0.5-0.5-0.9-0.5C117.3,11.8,117.2,11.8,117,11.9
	L117,11.9z M117.8,17.6C117.8,17.6,117.8,17.6,117.8,17.6C117.8,17.6,117.8,17.6,117.8,17.6L117.8,17.6z"/>
<path d="M123.8,1.7c-0.2,0.2-0.3,0.4-0.3,0.7c-0.6,5.1-1.2,10.2-1.7,15.3c-0.1,0.7-0.1,1.5-0.2,2.2c0,0.5,0.4,0.9,0.9,0.9
	c0.2,0,0.5-0.1,0.6-0.3c0.2-0.2,0.2-0.4,0.3-0.6c0.6-4.7,1.2-9.4,1.7-14.1c0.1-1.1,0.3-2.3,0.4-3.4c0-0.2-0.1-0.5-0.3-0.7
	c-0.2-0.2-0.4-0.3-0.7-0.3C124.2,1.5,124,1.6,123.8,1.7L123.8,1.7z"/>
<path d="M124.9,9.8c-1.1,0.2-2.1,0.5-3.2,0.7c-0.2,0.1-0.4,0.3-0.3,0.5c0.1,0.2,0.3,0.4,0.5,0.3c1.1-0.3,2.1-0.5,3.2-0.8
	c0.2-0.1,0.3-0.3,0.3-0.5c-0.1-0.2-0.2-0.3-0.4-0.3C125,9.8,125,9.8,124.9,9.8L124.9,9.8z"/>
<path d="M129.3,8.9c-0.2,0.1-0.4,0.3-0.5,0.6c-0.3,0.7-0.5,1.3-0.8,2c-0.4,1-0.8,2-0.6,3.1c0,0.3,0.2,0.6,0.3,0.9
	c0.2,0.3,0.5,0.6,0.8,0.8c0.3,0.2,0.7,0.3,1,0.3c0.4,0,0.7-0.1,1.1-0.3c0.3-0.1,0.5-0.4,0.7-0.6c0.1-0.2,0.2-0.3,0.2-0.5
	s0.1-0.4,0.1-0.6c0-0.2,0-0.3,0-0.5c0-0.2-0.1-0.4-0.1-0.6c-0.1-0.3-0.2-0.6-0.4-0.9c-0.3-0.4-0.7-0.6-1.2-0.4
	c0-0.1,0.1-0.2,0.1-0.3c0.2-0.6,0.5-1.2,0.7-1.8c0.1-0.2,0-0.6-0.1-0.8c-0.1-0.2-0.3-0.4-0.6-0.5c-0.1,0-0.2,0-0.3,0
	C129.6,8.7,129.4,8.8,129.3,8.9L129.3,8.9z M129.5,13.6C129.5,13.6,129.5,13.6,129.5,13.6c0.1,0.2,0.1,0.4,0.2,0.6
	c0,0.1,0,0.2,0,0.3c0,0,0,0,0,0c0,0,0,0-0.1,0c0,0,0,0,0,0c0,0,0,0-0.1,0c0,0,0,0,0,0c0,0,0,0,0,0c0-0.1,0-0.2-0.1-0.2
	c0-0.1,0-0.2,0-0.3C129.4,13.8,129.4,13.7,129.5,13.6L129.5,13.6z M129.5,13.7c0,0,0,0.1,0,0.1C129.6,13.8,129.6,13.8,129.5,13.7
	L129.5,13.7z M129.7,14.2C129.7,14.2,129.7,14.3,129.7,14.2C129.7,14.3,129.7,14.2,129.7,14.2L129.7,14.2z M129.4,14.3
	c0,0,0,0.1,0,0.1C129.4,14.3,129.4,14.3,129.4,14.3L129.4,14.3z M129.4,14.3C129.4,14.4,129.4,14.4,129.4,14.3
	C129.4,14.4,129.4,14.4,129.4,14.3L129.4,14.3z M129.4,14.4C129.4,14.4,129.4,14.4,129.4,14.4C129.4,14.4,129.4,14.4,129.4,14.4
	L129.4,14.4z M129.6,14.6C129.6,14.6,129.6,14.6,129.6,14.6C129.6,14.6,129.6,14.6,129.6,14.6C129.6,14.6,129.6,14.6,129.6,14.6
	L129.6,14.6z M129.6,14.6C129.6,14.6,129.6,14.6,129.6,14.6C129.6,14.6,129.6,14.6,129.6,14.6L129.6,14.6L129.6,14.6z"/>
<path d="M133.3,11.1c-0.5,0.3-0.6,0.9-0.4,1.4c0.5,0.8,1,1.6,1.4,2.5c0.1,0.1,0.1,0.3,0.2,0.4c0.1,0.4,0.5,0.7,1,0.7
	c0.4,0,0.8-0.3,1-0.7c0-0.2,0.1-0.3,0.1-0.5c0-0.2,0.1-0.3,0.2-0.5c0.1-0.2,0.2-0.3,0.3-0.5c0.4-0.4,0.8-0.8,1.3-1.2
	c0.3-0.3,0.3-0.8,0.1-1.1c-0.2-0.4-0.8-0.6-1.3-0.3c-0.3,0.2-0.6,0.4-0.9,0.6c-0.2,0.1-0.3,0.2-0.4,0.4c-0.2,0.1-0.3,0.3-0.4,0.5
	c-0.3-0.4-0.5-0.8-0.8-1.3c-0.2-0.3-0.5-0.5-0.9-0.5C133.6,10.9,133.5,11,133.3,11.1L133.3,11.1z"/>
<path d="M142.8,9.5c-0.2,0.1-0.5,0.2-0.6,0.5c-0.1,0.3-0.1,0.5-0.1,0.8c0,0.1,0,0.2,0,0.3c0-0.1,0-0.2,0-0.3
	c0.1,0.4,0.1,0.8,0.2,1.2c0,0.4,0.1,0.8,0,1.2c-0.1,0.4-0.2,0.9-0.3,1.3c-0.3,0.7-0.7,1.5-1.2,2.1c-0.1,0.1-0.1,0.1-0.2,0.2
	c-0.1,0-0.1,0-0.2,0c-0.5,0-1,0.4-1,1c0,0.5,0.4,1,1,1c0.4,0,0.8,0,1.1-0.2c0.3-0.2,0.6-0.4,0.8-0.8c0.5-0.6,0.8-1.3,1.2-2
	c0.3-0.7,0.6-1.4,0.7-2.1c0.1-0.4,0.1-0.8,0.1-1.1c0-0.4-0.1-0.9-0.2-1.3c0,0.1,0,0.2,0,0.3c-0.1-0.4-0.1-0.7-0.1-1.1
	c0-0.2-0.3-0.5-0.5-0.6c-0.2-0.1-0.3-0.1-0.5-0.1C143,9.4,142.9,9.4,142.8,9.5L142.8,9.5z M140.6,16.7c0,0-0.1,0-0.1,0
	C140.5,16.7,140.5,16.7,140.6,16.7L140.6,16.7z M140.6,16.7C140.6,16.7,140.6,16.7,140.6,16.7C140.6,16.7,140.6,16.7,140.6,16.7
	L140.6,16.7z"/>
<path d="M144.4,7.2c-0.4,0.3-0.7,0.6-1.1,1c-0.4,0.4-0.7,0.8-1.1,1.3c-0.2,0.3-0.1,0.8,0.1,1c0.3,0.3,0.8,0.3,1.2,0
	c0.4-0.3,0.7-0.6,1.1-0.9s0.7-0.6,1.1-1c0.4-0.4,0.4-1,0-1.4c-0.2-0.2-0.4-0.3-0.7-0.3C144.9,6.9,144.6,7,144.4,7.2L144.4,7.2z"/>
<path d="M0.2,37.1c0,1.4-0.1,2.8-0.1,4.2c0,0.5,0,1.1,0,1.6c0,1-0.1,2,0,2.9c0.1,0.4,0.5,0.7,0.9,0.7c0.4,0,0.9-0.3,0.9-0.7
	c0.2-1.3,0.5-2.6,1-3.8c0.1-0.3,0.3-0.5,0.5-0.8c0.1-0.1,0.2-0.2,0.3-0.3c0.1-0.1,0.2-0.2,0.4-0.2c0.2-0.1,0.3-0.1,0.5-0.1
	c0.4,0,0.8,0,1.2,0c0.5,0,0.8-0.4,0.8-0.8c0-0.2-0.1-0.4-0.2-0.6c-0.2-0.2-0.4-0.2-0.6-0.2c-0.5-0.1-1.1-0.1-1.6-0.1
	c-0.6,0-1.1,0.2-1.6,0.5c-0.2,0.1-0.4,0.3-0.6,0.5c0-0.9,0-1.8,0-2.8c0-0.5-0.5-1-1-1C0.6,36.1,0.2,36.6,0.2,37.1L0.2,37.1z"/>
<path d="M12.7,37.8c-0.4,0.3-0.7,0.6-1,1c-0.5,0.6-0.8,1.2-0.9,1.9c-0.1,0-0.3,0-0.4,0.1c0,0,0,0,0,0c-0.2,0-0.4,0.1-0.5,0.2
	c-0.1,0.1-0.2,0.3-0.2,0.5c0,0.2,0.1,0.4,0.2,0.5c0.1,0.1,0.4,0.2,0.5,0.2c0.1,0,0.3,0,0.4-0.1c0,0.2,0.1,0.4,0.1,0.6
	c0.1,0.4,0.3,0.8,0.6,1.2c0.2,0.4,0.6,0.7,0.9,1c0.4,0.3,0.8,0.5,1.2,0.7c0.4,0.2,0.9,0.3,1.3,0.4c0.5,0.1,1.1,0.1,1.6,0.1
	c0.4,0,0.8-0.4,0.8-0.8c0-0.4-0.3-0.7-0.8-0.8c-0.3,0-0.6,0-0.8-0.1c-0.4-0.1-0.8-0.2-1.2-0.3c-0.3-0.2-0.7-0.4-1-0.6
	c-0.2-0.2-0.4-0.4-0.6-0.6c-0.1-0.2-0.3-0.4-0.4-0.6c-0.1-0.2-0.2-0.5-0.2-0.8c0.3-0.1,0.6-0.3,0.9-0.4c0.4-0.2,0.7-0.4,1-0.7
	c0.3-0.3,0.5-0.7,0.7-1.1c0.1-0.2,0.1-0.5,0.1-0.7c0-0.1,0-0.2-0.1-0.4c0-0.1-0.1-0.2-0.1-0.3c-0.2-0.4-0.6-0.7-1.1-0.7
	c0,0,0,0-0.1,0C13.4,37.4,13.1,37.5,12.7,37.8L12.7,37.8z M13.6,38.7c0,0.1,0,0.1,0,0.2c0,0,0,0,0,0C13.6,38.8,13.6,38.7,13.6,38.7
	L13.6,38.7z M13.6,39.1C13.6,39.1,13.6,39.1,13.6,39.1c-0.1,0.2-0.1,0.2-0.2,0.3c-0.1,0.1-0.2,0.2-0.3,0.3c-0.1,0-0.1,0.1-0.2,0.1
	c0,0,0.1-0.1,0.1-0.1C13.2,39.5,13.4,39.3,13.6,39.1L13.6,39.1z M13.5,39.1C13.5,39.1,13.5,39.1,13.5,39.1
	C13.5,39.1,13.5,39.1,13.5,39.1L13.5,39.1z M12.9,39.8C12.9,39.8,12.9,39.8,12.9,39.8C12.9,39.8,12.9,39.8,12.9,39.8
	C12.9,39.8,12.9,39.8,12.9,39.8L12.9,39.8z M10.6,40.7c-0.1,0-0.1,0-0.2,0C10.5,40.7,10.5,40.7,10.6,40.7L10.6,40.7z M12.6,42.6
	C12.6,42.6,12.6,42.6,12.6,42.6C12.6,42.6,12.6,42.6,12.6,42.6L12.6,42.6z M13.4,43.7C13.4,43.7,13.5,43.7,13.4,43.7
	C13.5,43.7,13.4,43.7,13.4,43.7L13.4,43.7z"/>
<path d="M21.4,37.7c-0.2,0.2-0.3,0.4-0.3,0.7c-0.2,2.8-0.4,5.5-0.7,8.2c-0.1,1.1-0.2,2.2-0.3,3.3c0,0.4-0.1,0.8-0.1,1.2
	c0,0.3,0,0.7-0.1,1c0,0.5-0.1,1.1,0.2,1.5c0.1,0.1,0.2,0.2,0.3,0.3c0.2,0.1,0.4,0.1,0.6,0.1c0.4-0.1,0.6-0.4,0.6-0.8
	c0-0.1,0-0.2,0-0.3c0-0.2,0-0.4,0.1-0.6c0-0.1,0-0.1,0-0.2c0-0.4,0.1-0.7,0.1-1.1c0-0.4,0.1-0.8,0.1-1.2c0.1-1.1,0.2-2.2,0.3-3.3
	c0.2-2.8,0.5-5.5,0.7-8.2c0-0.5-0.5-1-1-1C21.9,37.4,21.6,37.5,21.4,37.7L21.4,37.7z"/>
<path d="M23.5,37.4c-0.5,0.1-1,0.4-1.4,0.7c-0.4,0.4-0.5,0.9-0.7,1.4c-0.2,0.6-0.4,1.2-0.6,1.9c-0.1,0.3,0.1,0.7,0.4,0.8
	c0.3,0.1,0.7-0.1,0.8-0.4c0.1-0.4,0.2-0.8,0.3-1.2c0.1-0.3,0.2-0.7,0.4-1c0,0,0,0,0,0c0,0,0,0,0,0c0,0,0-0.1,0-0.1c0,0,0,0.1,0,0.1
	c0.1-0.1,0.1-0.3,0.2-0.4c0.1-0.1,0.1-0.1,0.2-0.2c0.1-0.1,0.2-0.1,0.3-0.2c0,0,0.1,0,0.1,0c0.1,0,0.2,0,0.2,0c0.1,0,0.2,0,0.3,0.1
	c0.1,0,0.1,0.1,0.2,0.1c0,0,0.1,0.1,0.1,0.1c0,0,0,0,0,0.1c0,0,0,0.1,0,0.1c0,0.2,0,0.5,0,0.7c-0.1,0.5-0.2,1.1-0.4,1.6
	c-0.1,0.3-0.3,0.6-0.5,0.9c-0.1,0.1-0.2,0.3-0.2,0.4c-0.1,0.1-0.1,0.2-0.2,0.3s-0.1,0.2-0.1,0.3c-0.1,0.3,0,0.6,0.3,0.7
	c0.3,0.2,0.7,0.1,0.8-0.2c0,0,0-0.1,0-0.1c0.1-0.2,0.3-0.3,0.4-0.5c0.2-0.2,0.3-0.4,0.4-0.6c0.3-0.5,0.4-1.1,0.6-1.6
	c0.1-0.3,0.1-0.6,0.2-0.8c0-0.3,0-0.5,0-0.8c0-0.1,0-0.2,0-0.3c0-0.1,0-0.1,0-0.2c0-0.1-0.1-0.2-0.1-0.3c-0.1-0.1-0.2-0.3-0.3-0.4
	c-0.1-0.1-0.3-0.2-0.4-0.3c-0.1-0.1-0.2-0.1-0.3-0.1c-0.1-0.1-0.3-0.1-0.4-0.1c-0.1,0-0.3,0-0.4,0C23.7,37.4,23.6,37.4,23.5,37.4
	L23.5,37.4z M23.5,38.7C23.4,38.7,23.4,38.8,23.5,38.7C23.4,38.8,23.4,38.7,23.5,38.7L23.5,38.7z M24.5,38.9
	C24.5,38.9,24.5,39,24.5,38.9C24.5,39,24.5,38.9,24.5,38.9L24.5,38.9z M24.5,39.9c0,0,0,0.1,0,0.1C24.5,40,24.5,39.9,24.5,39.9
	L24.5,39.9z M22.7,39.5C22.7,39.5,22.7,39.6,22.7,39.5C22.7,39.5,22.7,39.5,22.7,39.5C22.7,39.5,22.7,39.5,22.7,39.5L22.7,39.5z"/>
<path d="M31.3,37.3c0,0.1,0,0.3-0.1,0.4c-0.1,0-0.1,0.1-0.2,0.1c-0.4,0.3-0.8,0.7-1,1.1c-0.2,0.5-0.3,1-0.2,1.6
	c0,0.2,0.1,0.4,0.2,0.6c0.1,0.3,0.2,0.5,0.4,0.7c0.2,0.2,0.4,0.4,0.6,0.4c0.3,0,0.5-0.2,0.7-0.4c0.1-0.1,0.2-0.2,0.2-0.4
	c0.1-0.1,0.1-0.3,0.2-0.5c0.1-0.2,0.1-0.3,0.1-0.5c0-0.1,0-0.3,0.1-0.4c0.1-0.5,0.2-0.9,0.2-1.4c0,0,0,0,0,0
	c0.2-0.1,0.3-0.2,0.4-0.3c0.1-0.2,0.1-0.4,0.1-0.6c0-0.2-0.2-0.3-0.3-0.4c0-0.1,0-0.2-0.1-0.3c-0.1-0.2-0.3-0.3-0.4-0.3
	c-0.1,0-0.1,0-0.2,0C31.7,36.7,31.4,37,31.3,37.3L31.3,37.3z M32.3,40c0,0,0,0.1,0,0.1C32.3,40.1,32.3,40,32.3,40L32.3,40z"/>
<path d="M38.8,35.7c-0.2,0-0.5,0.1-0.7,0.3c-0.3,0.2-0.6,0.6-0.8,0.9c-0.2,0.3-0.4,0.7-0.5,1.1c-0.1,0.3-0.2,0.6-0.2,1
	c-0.3,0.2-0.6,0.3-0.8,0.5c-0.4,0.2-0.5,0.7-0.3,1.1c0.2,0.4,0.7,0.5,1.1,0.3c0.1-0.1,0.2-0.1,0.3-0.2c0.1,0.3,0.4,0.6,0.6,0.8
	c0.3,0.3,0.6,0.5,1,0.7c0.4,0.2,0.8,0.3,1.2,0.4c0.8,0.2,1.7,0.1,2.5,0.1c0.4,0,0.8-0.3,0.8-0.8c0-0.4-0.3-0.7-0.8-0.8
	c-0.6,0-1.2,0-1.8-0.1c-0.4-0.1-0.7-0.2-1.1-0.3c-0.1-0.1-0.3-0.1-0.4-0.2c-0.1-0.1-0.3-0.2-0.4-0.4c-0.1-0.1-0.1-0.2-0.2-0.3
	c0,0,0-0.1,0-0.1c0.1-0.1,0.1-0.1,0.2-0.2c0.3-0.3,0.6-0.6,0.9-0.9c0.2-0.3,0.4-0.6,0.6-0.9c0.2-0.4,0.2-0.7,0.1-1.1
	c-0.1-0.2-0.1-0.3-0.3-0.4c-0.1-0.1-0.3-0.3-0.5-0.3C39.1,35.8,39,35.7,38.8,35.7C38.8,35.7,38.8,35.7,38.8,35.7L38.8,35.7z
	 M38.7,36.9C38.6,36.9,38.6,36.9,38.7,36.9C38.6,36.9,38.6,36.9,38.7,36.9L38.7,36.9z M38.6,37C38.6,37,38.6,37,38.6,37
	C38.6,37,38.6,37,38.6,37C38.6,37,38.6,37,38.6,37L38.6,37z M40.2,41c0,0,0.1,0,0.1,0C40.3,41,40.2,41,40.2,41L40.2,41z"/>
<path d="M49.2,36c-0.6,0.1-1.1,0.2-1.6,0.4c-0.3,0.1-0.5,0.2-0.8,0.4c-0.3,0.2-0.5,0.5-0.7,0.8c-0.4,0.6-0.3,1.3-0.1,1.9
	c0.1,0.6,0.4,1.1,0.5,1.7c0,0.3,0,0.5,0,0.8c-0.1,0.3-0.1,0.6-0.2,0.9c0,0,0,0.1-0.1,0.1c-0.1,0.2-0.1,0.4-0.1,0.6
	c0.1,0.2,0.2,0.4,0.4,0.5c0.4,0.2,0.9,0.1,1.1-0.3c0.2-0.3,0.3-0.6,0.5-1c0.1-0.2,0.1-0.5,0.2-0.7c0-0.2,0.1-0.5,0.1-0.7
	s0-0.5-0.1-0.7c0-0.2-0.1-0.4-0.2-0.6c-0.1-0.4-0.2-0.8-0.3-1.1c0-0.1,0-0.1,0-0.2c0,0,0,0,0-0.1c0,0,0,0,0-0.1
	c0-0.1,0.1-0.1,0.1-0.1c0.1,0,0.2-0.1,0.2-0.1c0.2-0.1,0.5-0.2,0.7-0.2c0.3-0.1,0.6-0.1,0.9-0.1c0.2,0,0.5-0.2,0.6-0.4
	c0.1-0.2,0.2-0.5,0.1-0.7c-0.1-0.2-0.2-0.4-0.4-0.6c-0.2-0.1-0.3-0.1-0.4-0.1C49.3,36,49.3,36,49.2,36L49.2,36z"/>
<path d="M54,36.9c-0.5,0-0.9,0.4-1.2,0.6c-0.2,0.1-0.3,0.3-0.4,0.5c-0.1,0.2-0.3,0.3-0.4,0.5c-0.3,0.4-0.5,0.8-0.6,1.2
	c-0.2,0.4-0.3,0.9-0.3,1.4c0,0.4,0.1,0.9,0.2,1.3c0.2,0.4,0.4,0.7,0.8,1c0.3,0.3,0.7,0.5,1.1,0.7c0.2,0.1,0.4,0.2,0.7,0.3
	c0.2,0.1,0.5,0.1,0.7,0.1c0.2,0,0.5,0,0.7,0c0.3-0.1,0.5-0.1,0.8-0.2c0.4-0.1,0.6-0.5,0.5-0.9c-0.1-0.4-0.5-0.6-0.9-0.5
	c-0.2,0-0.4,0.1-0.6,0.1c-0.2,0-0.4,0-0.5,0c-0.1,0-0.3-0.1-0.4-0.1c-0.3-0.2-0.7-0.3-1-0.5c-0.1-0.1-0.2-0.2-0.3-0.3
	c-0.1-0.1-0.1-0.2-0.2-0.3c0-0.1-0.1-0.2-0.1-0.3c0-0.1,0-0.3,0-0.4c0.6-0.5,1.1-0.9,1.6-1.4c0.3-0.3,0.5-0.6,0.7-1
	c0.1-0.2,0.2-0.4,0.2-0.6c0-0.1,0-0.2,0-0.3c0-0.1-0.1-0.2-0.1-0.3c-0.1-0.1-0.1-0.2-0.2-0.2c-0.1-0.1-0.2-0.1-0.2-0.2
	C54.4,36.9,54.3,36.9,54,36.9C54.1,36.9,54.1,36.9,54,36.9L54,36.9z M52.8,42C52.8,42,52.8,42,52.8,42C52.8,42,52.8,42,52.8,42
	L52.8,42z"/>
<path d="M59.6,37.7c-0.2,0.1-0.4,0.3-0.4,0.6c-0.1,0.6-0.2,1.2-0.3,1.7c0,0.1-0.1,0.2-0.1,0.2c0,0.1-0.1,0.2-0.1,0.3
	c0,0.1,0,0.2,0,0.2c0,0.1,0,0.3,0.1,0.4c0,0.2,0.1,0.3,0.2,0.4c0.2,0.2,0.4,0.3,0.7,0.3c0.4,0,0.8-0.3,0.9-0.7
	c0.1-0.4,0.2-0.8,0.3-1.2c0,0,0-0.1,0-0.1c0.1-0.2,0.2-0.3,0.3-0.4c0,0,0,0,0,0c0,0,0,0,0.1,0c0,0,0,0,0,0c0,0,0,0,0,0
	c0.1,0,0.1,0.1,0.2,0.1c0.1,0.1,0.1,0.1,0.2,0.2c0.3,0.4,0.5,0.9,0.8,1.4c0.4,0.9,0.6,1.9,0.8,2.9c0.1,0.4,0.5,0.6,0.8,0.6
	c0.4,0,0.9-0.4,0.8-0.8c-0.1-0.7-0.2-1.4-0.4-2.1c-0.2-0.5-0.4-1.1-0.6-1.6c-0.2-0.5-0.5-1-0.9-1.5c-0.1-0.2-0.3-0.3-0.5-0.5
	c-0.2-0.2-0.4-0.3-0.7-0.4c-0.1,0-0.2-0.1-0.4-0.1c-0.2,0-0.4,0-0.5,0c0,0-0.1,0-0.1,0c-0.1-0.1-0.2-0.2-0.4-0.2c-0.1,0-0.2,0-0.3,0
	C60,37.5,59.8,37.6,59.6,37.7L59.6,37.7z M61.4,39.3C61.4,39.3,61.3,39.3,61.4,39.3C61.3,39.3,61.4,39.3,61.4,39.3L61.4,39.3z
	 M61.3,39.4c0,0,0.1,0,0.1,0C61.4,39.4,61.3,39.4,61.3,39.4L61.3,39.4z M61.2,39.4C61.2,39.4,61.2,39.4,61.2,39.4
	C61.2,39.4,61.2,39.4,61.2,39.4C61.2,39.4,61.2,39.4,61.2,39.4L61.2,39.4z M61.2,39.4C61.2,39.4,61.2,39.4,61.2,39.4
	C61.2,39.4,61.2,39.4,61.2,39.4C61.2,39.4,61.2,39.4,61.2,39.4L61.2,39.4z M61.4,39.4C61.4,39.4,61.4,39.4,61.4,39.4
	C61.4,39.4,61.4,39.4,61.4,39.4L61.4,39.4z M62.5,41.1c0,0.1,0,0.1,0.1,0.2C62.5,41.2,62.5,41.2,62.5,41.1L62.5,41.1z"/>
<path d="M71.1,32.4c-0.1,2.2-0.2,4.4-0.3,6.5c-0.1,1.2-0.1,2.4-0.2,3.6c0,0.6,0,1.2,0.1,1.9c0,0.3,0.1,0.6,0.3,0.9
	c0.1,0.3,0.3,0.5,0.5,0.8c0.2,0.2,0.5,0.4,0.7,0.6c0.3,0.1,0.6,0.3,0.9,0.3c0.6,0.2,1.3,0.1,1.9,0c0.4-0.1,0.6-0.5,0.6-0.8
	c0-0.2-0.1-0.5-0.3-0.6c-0.1-0.1-0.4-0.3-0.6-0.3c-0.2,0-0.5,0-0.7,0c-0.2,0-0.4-0.1-0.5-0.1c-0.2-0.1-0.4-0.2-0.5-0.3
	c-0.1-0.1-0.1-0.1-0.2-0.2c-0.1-0.1-0.1-0.2-0.1-0.2c0-0.1-0.1-0.2-0.1-0.3c-0.1-1.2,0-2.4,0.1-3.6c0-0.6,0.1-1.3,0.1-1.9
	c0.1-2,0.2-4.1,0.3-6.1c0-0.5-0.5-1-1-1C71.5,31.4,71.1,31.9,71.1,32.4L71.1,32.4z"/>
<path d="M74.5,37.7c-1.8,0.5-3.6,1.1-5.5,1.6c-0.2,0.1-0.3,0.3-0.3,0.5c0.1,0.2,0.3,0.3,0.5,0.3c1.8-0.5,3.6-1.1,5.5-1.6
	c0.2-0.1,0.3-0.3,0.3-0.5c0-0.2-0.2-0.3-0.4-0.3C74.6,37.7,74.5,37.7,74.5,37.7L74.5,37.7z"/>
<path d="M97.5,34.8c-0.2,0.1-0.4,0.4-0.5,0.6c-0.3,1.8-0.6,3.6-0.9,5.4c-0.2,1.2-0.4,2.4-0.6,3.6c-0.1,0.5-0.1,1-0.1,1.5
	c0,0.6,0.3,1.1,0.8,1.4c0.2,0.1,0.4,0.2,0.6,0.3c0.3,0.1,0.6,0,0.9,0c0.6-0.1,1.1-0.2,1.7-0.4c0.2-0.1,0.4-0.2,0.5-0.4
	c0.1-0.2,0.2-0.4,0.1-0.7c-0.1-0.5-0.6-0.7-1.1-0.6c-0.3,0.1-0.5,0.1-0.8,0.2c-0.3,0-0.5,0-0.8,0c0-0.5,0-0.9,0.1-1.4
	c0.2-1.2,0.4-2.4,0.6-3.6c0.3-1.6,0.6-3.2,0.8-4.8c0-0.3,0-0.5-0.1-0.8c-0.1-0.2-0.3-0.4-0.6-0.5c-0.1,0-0.2,0-0.3,0
	C97.8,34.6,97.6,34.7,97.5,34.8L97.5,34.8z M97.3,45.6C97.3,45.6,97.3,45.6,97.3,45.6C97.3,45.6,97.3,45.6,97.3,45.6
	C97.3,45.6,97.3,45.6,97.3,45.6L97.3,45.6z M97.4,45.8C97.4,45.8,97.5,45.8,97.4,45.8C97.5,45.8,97.4,45.8,97.4,45.8
	C97.4,45.8,97.4,45.8,97.4,45.8L97.4,45.8z"/>
<path d="M95.6,41.5c0,0.3,0.2,0.5,0.5,0.5s0.5-0.2,0.5-0.5S96.4,41,96.1,41S95.6,41.3,95.6,41.5L95.6,41.5z"/>
<path d="M103.8,33.2c0,1.9,0,3.7-0.1,5.6c0,0.8,0,1.6-0.1,2.4c0,0.8,0,1.5-0.1,2.3c-0.1,0.3-0.1,0.6-0.1,0.9c0,0.4,0.3,0.8,0.7,0.9
	c0.5,0.1,1-0.2,1.1-0.6c0.1-0.3,0.1-0.5,0.1-0.8c0,0,0,0,0-0.1c0.2-0.3,0.4-0.7,0.6-1c0.1-0.1,0.2-0.2,0.3-0.3c0,0,0,0,0.1,0
	c0.1,0,0.1,0,0.2-0.1c0.1,0,0.1,0,0.2,0c0.1,0,0.2,0.1,0.3,0.1c0.1,0.1,0.2,0.1,0.4,0.2c0.2,0.2,0.4,0.4,0.6,0.6
	c0.3,0.4,0.5,0.8,0.7,1.2c0.2,0.4,0.3,0.9,0.4,1.4c0.1,0.4,0.6,0.7,1,0.6c0.5-0.1,0.7-0.6,0.6-1c-0.1-0.3-0.1-0.6-0.2-0.9
	c-0.1-0.4-0.3-0.8-0.4-1.2c-0.2-0.5-0.6-0.9-0.9-1.4c-0.3-0.4-0.8-0.8-1.2-1c-0.5-0.3-1-0.4-1.6-0.3c-0.2,0-0.5,0.1-0.7,0.2
	c-0.1,0-0.2,0.1-0.3,0.1c0-0.7,0-1.3,0-2c0-1.9,0-3.8,0.1-5.7c0-0.5-0.4-0.9-0.9-0.9C104.3,32.3,103.8,32.7,103.8,33.2L103.8,33.2z
	 M106.3,42.6c0,0-0.1,0.1-0.1,0.1C106.3,42.6,106.3,42.6,106.3,42.6L106.3,42.6z M108.7,44.4C108.8,44.4,108.8,44.4,108.7,44.4
	C108.8,44.4,108.7,44.4,108.7,44.4L108.7,44.4z"/>
<path d="M119.4,37.3c-0.2,0-0.4,0.1-0.7,0.2c-0.3,0.1-0.5,0.3-0.7,0.5c-0.2,0.1-0.3,0.3-0.5,0.5c-0.2,0.2-0.4,0.4-0.5,0.6
	c-0.3,0.4-0.6,0.8-0.8,1.3c0,0,0,0.1-0.1,0.1c-0.3,0.2-0.6,0.4-0.9,0.7c-0.1,0.1-0.3,0.2-0.3,0.4c0,0.2,0,0.4,0.1,0.5
	c0.2,0.3,0.6,0.5,0.9,0.2c0.1,0,0.1-0.1,0.2-0.1c0.3,0.8,0.9,1.5,1.6,2.1c0.4,0.4,0.8,0.7,1.3,0.9c0.2,0.1,0.4,0.2,0.6,0.3
	c0.3,0.1,0.5,0.1,0.8,0.2c0.2,0,0.4,0,0.6-0.1c0.2-0.1,0.3-0.3,0.4-0.5c0.1-0.4-0.1-0.9-0.6-1c-0.2-0.1-0.5-0.1-0.7-0.2
	c-0.4-0.2-0.8-0.4-1.2-0.7c-0.2-0.2-0.4-0.3-0.6-0.5c-0.2-0.2-0.4-0.4-0.6-0.6c-0.1-0.1-0.1-0.2-0.2-0.3c0-0.1-0.1-0.2-0.1-0.4
	c0-0.1,0-0.1,0-0.2c0.1-0.1,0.2-0.1,0.3-0.2c0.3-0.3,0.7-0.5,1-0.8c0.3-0.3,0.7-0.6,0.9-0.9c0.1-0.2,0.3-0.3,0.4-0.6
	c0.1-0.1,0.1-0.2,0.1-0.3c0-0.1,0-0.2,0-0.3c0-0.2-0.1-0.3-0.2-0.5c-0.1-0.1-0.3-0.2-0.5-0.2C119.5,37.3,119.4,37.3,119.4,37.3
	L119.4,37.3z"/>
<path d="M94.1,39.4c-0.5,0.1-0.8,0.7-0.7,1.2c0.1,0.3,0.2,0.6,0.4,0.8c0.2,0.2,0.4,0.3,0.7,0.5c0.3,0.1,0.6,0.2,0.9,0.2
	c0.2,0,0.4,0.1,0.6,0.1c0.6,0.1,1.2,0.2,1.9,0.2c0.2,0,0.5-0.1,0.7-0.3c0.2-0.2,0.3-0.4,0.3-0.7c0-0.3-0.1-0.5-0.3-0.7
	c-0.2-0.2-0.4-0.3-0.7-0.3c-0.6-0.1-1.1-0.1-1.7-0.2c-0.2,0-0.4,0-0.6-0.1c0.1,0,0.2,0,0.3,0c-0.3,0-0.5-0.1-0.8-0.2
	c0,0,0-0.1-0.1-0.1c-0.2-0.3-0.5-0.5-0.8-0.5C94.3,39.3,94.2,39.3,94.1,39.4L94.1,39.4z M95,39.8c0,0,0.1,0.1,0.1,0.1
	C95.1,39.8,95.1,39.8,95,39.8L95,39.8z"/>
<path d="M8.9,67.2c-0.1,0.1-0.1,0.2-0.2,0.2c0.1,0.1,0.2,0.1,0.3,0.2c0.1-0.1,0.1-0.2,0.2-0.3c0,0,0-0.1,0-0.1
	C9.1,67.2,9,67.2,8.9,67.2L8.9,67.2z"/>
<path d="M9.5,67.7C9.5,67.7,9.5,67.7,9.5,67.7c0,0,0.1,0,0.1,0c0.1,0,0.1,0,0.2,0c-0.1-0.1-0.1-0.2-0.2-0.3
	C9.6,67.6,9.6,67.6,9.5,67.7L9.5,67.7z"/>
<path d="M4.2,72.3c0,0.2,0,0.3,0,0.5C4.2,72.9,4.3,73,4.5,73c0-0.1,0-0.2,0-0.2c0-0.2,0.1-0.4,0.1-0.5C4.4,72.3,4.3,72.3,4.2,72.3
	L4.2,72.3z"/>
<path d="M20.3,62.7c-0.6,0-1.2,0.1-1.7,0.4c-0.6,0.2-1.1,0.6-1.6,1c-0.5,0.4-0.9,0.8-1.3,1.3c-0.4,0.5-0.8,1-0.9,1.6
	c-0.1,0.3-0.1,0.6-0.1,0.9c0.1,0.3,0.2,0.6,0.4,0.8c0.1,0.1,0.2,0.1,0.3,0.2c0.1,0.1,0.4,0.2,0.6,0.2c0.2,0,0.3,0,0.5-0.1
	c0.2,0,0.3-0.1,0.5-0.2c0.2-0.1,0.4-0.3,0.6-0.5c0.2-0.2,0.4-0.5,0.6-0.8c0.1-0.1,0.1-0.2,0.2-0.3c0.3,0.4,0.5,0.8,0.8,1.3
	c0.4,0.6,0.8,1.2,1.3,1.6c0.3,0.3,0.8,0.3,1.2,0c0.3-0.3,0.3-0.8,0-1.2c-0.1-0.1-0.1-0.2-0.2-0.2c-0.2-0.3-0.5-0.7-0.7-1.1
	c-0.2-0.3-0.4-0.6-0.6-1c-0.2-0.3-0.5-0.7-0.8-1c-0.1-0.1-0.3-0.3-0.5-0.4c-0.1-0.1-0.2-0.1-0.4-0.1c0.3-0.2,0.5-0.4,0.8-0.5
	c0.3-0.1,0.6-0.2,1-0.3c0.1,0,0.1,0,0.2,0c0.5,0,0.9-0.4,0.9-0.9C21.1,63.1,20.8,62.7,20.3,62.7C20.3,62.7,20.3,62.7,20.3,62.7
	L20.3,62.7z M18.3,65.2C18.3,65.2,18.3,65.2,18.3,65.2C18.3,65.2,18.3,65.2,18.3,65.2C18.3,65.2,18.3,65.2,18.3,65.2L18.3,65.2z
	 M16.3,67.6c0,0,0,0.1,0,0.1C16.3,67.6,16.3,67.6,16.3,67.6L16.3,67.6z M21.3,68.7C21.3,68.7,21.3,68.8,21.3,68.7
	C21.3,68.8,21.3,68.7,21.3,68.7L21.3,68.7z"/>
<path d="M26,62.3c-0.2,0.2-0.3,0.4-0.3,0.7c-0.1,1.1-0.2,2.3-0.4,3.4c0,0.1,0,0.2,0,0.3c0,0.1-0.1,0.2-0.1,0.4
	c-0.1,0.3,0,0.5,0.1,0.8c0.1,0.2,0.3,0.4,0.6,0.5c0.5,0.1,1.1-0.2,1.2-0.7c0.1-0.3,0.1-0.5,0.2-0.8c0.1-0.4,0.2-0.8,0.4-1.2
	c0.1-0.2,0.2-0.4,0.3-0.6c0,0,0,0,0,0c0.2,0.1,0.3,0.3,0.4,0.5c0.2,0.2,0.3,0.5,0.4,0.7c0.1,0.3,0.2,0.5,0.4,0.8
	c0.1,0.2,0.3,0.4,0.6,0.4c0.3,0.1,0.7,0,0.9-0.2c0.2-0.2,0.3-0.4,0.4-0.6c0.1-0.2,0.2-0.5,0.3-0.8c0.2-0.5,0.4-1,0.7-1.4
	c0,0.1,0.1,0.1,0.1,0.2c0.3,0.8,0.5,1.6,0.6,2.4c0.1,0.3,0.1,0.7,0.1,1c0,0.3,0.1,0.6,0.1,0.8c0,0.2,0.2,0.5,0.3,0.7
	c0.1,0.2,0.4,0.5,0.7,0.6c0.3,0.1,0.5,0,0.8,0c0.4-0.1,0.6-0.4,0.6-0.8c0-0.4-0.3-0.7-0.6-0.8c0,0,0,0,0,0c0-0.2,0-0.4,0-0.6
	c0-0.2,0-0.3-0.1-0.5c0-0.3-0.1-0.6-0.1-0.9c-0.1-0.6-0.2-1.2-0.4-1.8c-0.1-0.3-0.2-0.5-0.3-0.8c-0.1-0.3-0.3-0.7-0.5-0.9
	c-0.2-0.2-0.4-0.4-0.6-0.5c-0.3-0.1-0.6-0.2-0.9-0.1c-0.2,0.1-0.5,0.2-0.7,0.3c-0.2,0.1-0.3,0.2-0.4,0.4c-0.1,0.1-0.2,0.3-0.3,0.4
	c-0.2,0.3-0.3,0.6-0.4,0.9c-0.1-0.2-0.3-0.3-0.4-0.5c-0.3-0.3-0.5-0.5-0.9-0.7c-0.3-0.1-0.7-0.2-1-0.2c0,0,0,0,0-0.1
	c0-0.2-0.1-0.5-0.3-0.7C27.2,62.1,27,62,26.7,62C26.4,62,26.2,62.1,26,62.3L26,62.3z M32.3,64.1C32.3,64.1,32.3,64.1,32.3,64.1
	C32.3,64.1,32.3,64.1,32.3,64.1L32.3,64.1z M27.7,65.3c0,0,0,0.1-0.1,0.1C27.7,65.4,27.7,65.4,27.7,65.3L27.7,65.3z"/>
<path d="M42.2,60.7c-0.4,0.2-0.7,0.6-1,1c-0.3,0.4-0.5,0.8-0.7,1.3c0,0.1-0.1,0.2-0.1,0.3c-0.3,0.1-0.6,0.1-0.8,0.2
	c-0.4,0.1-0.6,0.6-0.5,0.9c0.1,0.2,0.2,0.4,0.4,0.5c0.2,0.1,0.4,0.1,0.5,0.1c-0.1,0.4-0.1,0.7-0.1,1.1c0,0.5,0.1,1,0.2,1.5
	s0.3,1,0.7,1.4c0.3,0.4,0.6,0.7,1,0.9c0.2,0.1,0.4,0.2,0.6,0.3c0.3,0.1,0.6,0.1,0.8,0.1c0.4,0,0.7-0.3,0.8-0.6
	c0.1-0.2,0-0.4-0.1-0.6c-0.1-0.2-0.3-0.3-0.5-0.4c-0.2,0-0.3-0.1-0.5-0.1c-0.1-0.1-0.2-0.1-0.4-0.2c-0.1-0.1-0.3-0.3-0.4-0.4
	c-0.1-0.2-0.2-0.3-0.3-0.5c-0.1-0.4-0.2-0.8-0.3-1.2c0-0.4,0-0.8,0-1.2c0-0.2,0.1-0.4,0.1-0.6c0.2,0,0.4-0.1,0.6-0.1
	c0.2-0.1,0.4-0.1,0.7-0.2c0.2-0.1,0.5-0.2,0.7-0.3c0.2-0.1,0.3-0.3,0.5-0.5c0.1-0.2,0.2-0.3,0.3-0.5c0.1-0.2,0.1-0.4,0.1-0.6
	c0-0.1,0-0.2,0-0.3c0-0.2,0-0.4-0.1-0.6c0-0.2-0.1-0.4-0.2-0.5c-0.1-0.2-0.3-0.4-0.5-0.4c-0.1,0-0.3,0-0.4,0
	C42.8,60.4,42.5,60.5,42.2,60.7L42.2,60.7z M42.9,62.1c0,0.1,0,0.2,0,0.3c0,0,0,0,0,0c0,0,0,0,0,0.1c0,0-0.1,0.1-0.1,0.1
	c0,0,0,0-0.1,0c-0.1,0-0.2,0.1-0.2,0.1c0.1-0.1,0.1-0.2,0.2-0.3C42.7,62.3,42.8,62.2,42.9,62.1L42.9,62.1z M42.9,62.3
	C42.9,62.3,42.9,62.3,42.9,62.3C42.9,62.3,42.9,62.3,42.9,62.3L42.9,62.3z M42.8,62.5C42.8,62.5,42.8,62.6,42.8,62.5
	C42.8,62.6,42.8,62.5,42.8,62.5L42.8,62.5z M42.8,62.5C42.8,62.5,42.8,62.6,42.8,62.5C42.8,62.6,42.8,62.5,42.8,62.5
	C42.8,62.5,42.8,62.6,42.8,62.5C42.8,62.6,42.7,62.6,42.8,62.5C42.7,62.6,42.7,62.6,42.8,62.5C42.8,62.6,42.7,62.6,42.8,62.5
	C42.7,62.6,42.8,62.6,42.8,62.5C42.8,62.6,42.8,62.5,42.8,62.5L42.8,62.5z M41.6,64.9C41.6,64.9,41.6,64.9,41.6,64.9
	C41.6,64.9,41.6,64.9,41.6,64.9L41.6,64.9z M42.8,62.6C42.8,62.6,42.8,62.6,42.8,62.6C42.8,62.6,42.8,62.6,42.8,62.6
	C42.8,62.6,42.8,62.6,42.8,62.6C42.8,62.6,42.8,62.6,42.8,62.6L42.8,62.6z"/>
<path d="M67.6,59.5c-0.4,0-0.8,0.2-1.2,0.4c-0.4,0.2-0.7,0.6-1,1c-0.1,0.1-0.2,0.3-0.2,0.5c-0.1,0.2-0.1,0.4-0.2,0.6
	c-0.1,0.4-0.2,0.9-0.3,1.3c0,0.3,0,0.5,0.1,0.8c0.1,0.2,0.3,0.4,0.6,0.4c0.5,0.1,1.1-0.2,1.2-0.7c0.1-0.6,0.2-1.2,0.5-1.7
	c0-0.1,0.1-0.1,0.1-0.2c0.1-0.1,0.2-0.2,0.2-0.2c0.1-0.1,0.2-0.1,0.2-0.1c0.1,0,0.2,0,0.2-0.1c0.1,0,0.1,0,0.2,0
	c0.1,0,0.2,0.1,0.3,0.1c0.1,0.1,0.2,0.1,0.3,0.2c0.1,0.1,0.2,0.2,0.3,0.3c0.1,0.2,0.2,0.3,0.3,0.5c0.1,0.3,0.2,0.6,0.3,0.9
	c0.1,0.5,0,1.1,0,1.6c-0.1,0.7-0.3,1.3-0.5,1.9c-0.3,0.7-0.7,1.5-1.2,2.1c-0.4,0.5-0.8,0.9-1.2,1.3c-0.3,0.2-0.5,0.4-0.8,0.6
	c-0.1,0.1-0.2,0.3-0.3,0.4c-0.1,0.3,0,0.5,0.1,0.8c0.1,0.3,0.3,0.5,0.6,0.6c0.3,0.2,0.7,0.2,1.1,0.2c0.3,0,0.5,0.1,0.8,0.1
	c0.5,0.1,1,0.1,1.5,0.2c0.5,0.1,1,0.1,1.4,0.1c0.3,0,0.5,0,0.8,0.1c0.3,0,0.5,0,0.8,0c0.4,0,0.7-0.1,1.1-0.2
	c0.5-0.1,0.8-0.7,0.6-1.1c-0.1-0.2-0.2-0.4-0.4-0.6c-0.2-0.1-0.5-0.1-0.7-0.1c-0.1,0-0.1,0-0.2,0c-0.6,0-1.2-0.1-1.9-0.1
	c-0.4,0-0.9-0.1-1.3-0.1c-0.4,0-0.8-0.1-1.2-0.1c0.3-0.3,0.5-0.6,0.8-0.9c0.5-0.7,1-1.4,1.3-2.3c0.2-0.4,0.3-0.8,0.5-1.2
	c0.1-0.4,0.2-0.9,0.3-1.4c0.1-0.9,0.1-1.9-0.1-2.8c-0.1-0.4-0.3-0.8-0.4-1.2c-0.2-0.4-0.5-0.8-0.8-1.1c-0.6-0.5-1.4-0.9-2.1-0.9
	C67.7,59.5,67.7,59.5,67.6,59.5L67.6,59.5z M69.4,63.3c0,0.1,0,0.1,0,0.2C69.4,63.4,69.4,63.3,69.4,63.3L69.4,63.3z"/>
<path d="M83.1,58.4c-0.7,0-1.3,0.4-1.8,0.8c-0.3,0.2-0.6,0.5-0.8,0.8c-0.2-0.1-0.4-0.2-0.6-0.2c-0.5,0-0.9,0.4-0.9,0.9
	c0,1-0.1,1.9-0.1,2.9c-0.1,0.4-0.1,0.8-0.1,1.2c0,0.5,0,1,0,1.5c0,0.1,0,0.2,0,0.2c0,0.3,0,0.5,0,0.8c0,0.2,0,0.5,0,0.7
	c0,0.2,0,0.3,0,0.5c0,0.2,0.1,0.4,0.2,0.6c0.1,0.2,0.4,0.3,0.6,0.3c0,0,0,0,0,0c0.2,0,0.3,0,0.4-0.1c0.2-0.1,0.3-0.3,0.4-0.5
	c0.1-0.3,0.1-0.6,0.1-0.9c0-0.2,0-0.4,0-0.5c0-0.3,0-0.6,0-0.9c0-0.4,0-0.9,0.1-1.3c0-1.1,0.1-2.2,0.1-3.2c0.1-0.2,0.3-0.5,0.4-0.7
	c0,0-0.1,0.1-0.1,0.1c0.3-0.4,0.6-0.7,0.9-1c0.2-0.1,0.4-0.2,0.6-0.3c0.2-0.1,0.3-0.1,0.5-0.1c0.1,0,0.3,0,0.4,0
	c0.2,0,0.5,0.1,0.7,0.2c0.2,0.1,0.3,0.2,0.4,0.3c0.3,0.2,0.5,0.5,0.8,0.8c0.2,0.2,0.3,0.5,0.5,0.8c0.1,0.2,0.1,0.4,0.2,0.7
	c0.1,0.6,0,1.2,0,1.9c-0.1,0.7-0.3,1.5-0.6,2.2c-0.3,0.6-0.7,1.2-1.1,1.8c-0.3,0.3-0.6,0.6-0.9,0.9c-0.3,0.2-0.7,0.4-1.1,0.6
	c-0.1,0-0.2,0.1-0.3,0.1c0,0,0,0,0,0c-0.1,0-0.2,0-0.2-0.1c-0.4-0.1-0.9,0.2-1.1,0.6c-0.1,0.2,0,0.5,0.1,0.7
	c0.1,0.2,0.3,0.3,0.5,0.4c0,0,0,0,0,0c0.1,0.1,0.3,0.1,0.5,0.2c0.2,0.1,0.4,0,0.6,0c0.4,0,0.7-0.2,1-0.3c0.6-0.3,1.2-0.7,1.6-1.2
	c0.5-0.5,0.9-1.1,1.3-1.7c0.4-0.6,0.7-1.3,0.9-2.1c0.2-0.7,0.3-1.5,0.4-2.2c0.1-0.7,0-1.4-0.1-2.1c-0.1-0.7-0.5-1.4-0.9-1.9
	c-0.4-0.6-1-1.1-1.6-1.4c-0.5-0.3-1.1-0.4-1.7-0.4C83.2,58.4,83.1,58.4,83.1,58.4L83.1,58.4z M84.5,60.2
	C84.5,60.2,84.5,60.2,84.5,60.2C84.5,60.2,84.5,60.2,84.5,60.2L84.5,60.2z M86,62.3C86,62.3,86,62.3,86,62.3
	C86,62.3,86,62.3,86,62.3L86,62.3z M86,64.2C86,64.2,86,64.3,86,64.2C86,64.3,86,64.2,86,64.2L86,64.2z M82.3,69.9c0,0-0.1,0-0.1,0
	C82.2,69.9,82.2,69.9,82.3,69.9L82.3,69.9z"/>
<path d="M99.7,64.4c-0.2,0.2-0.3,0.4-0.3,0.7c-0.2,2.3-0.5,4.7-0.7,7.1c-0.1,1-0.2,2-0.3,3c-0.1,1.1-0.2,2.3-0.2,3.5
	c0,0.5,0.4,0.9,0.9,0.9c0.5,0,0.9-0.4,0.9-0.9c0.3-2.1,0.4-4.3,0.6-6.4c0.2-2.4,0.5-4.7,0.7-7.1c0-0.2-0.1-0.5-0.3-0.7
	c-0.2-0.2-0.4-0.3-0.7-0.3C100.1,64.2,99.9,64.3,99.7,64.4L99.7,64.4z"/>
<path d="M101,64.3c-0.1,0-0.2,0-0.3,0.1c-0.2,0-0.3,0.1-0.4,0.2c-0.3,0.1-0.6,0.4-0.8,0.6c-0.4,0.4-0.6,1-0.7,1.6
	c-0.2,0.7-0.2,1.4-0.2,2.1c0,0.3,0.2,0.5,0.5,0.5c0.3,0,0.5-0.2,0.5-0.5c0-0.4,0-0.8,0.1-1.2c0.1-0.4,0.2-0.8,0.3-1.2
	c0.1-0.1,0.2-0.3,0.2-0.4c0.1-0.1,0.2-0.2,0.3-0.3c0.1-0.1,0.2-0.1,0.3-0.2c0.1,0,0.2-0.1,0.4-0.1c0.2,0,0.4,0,0.6,0
	c0.3,0.1,0.6,0.1,0.9,0.2c0.1,0,0.2,0.1,0.3,0.1c0.1,0.1,0.1,0.1,0.2,0.2c0.1,0.1,0.1,0.2,0.2,0.3c0.1,0.3,0.2,0.5,0.2,0.8
	c0,0.2,0,0.3,0,0.5c0,0.1-0.1,0.2-0.1,0.3c-0.1,0.1-0.2,0.3-0.2,0.4c-0.1,0.2-0.3,0.3-0.4,0.5c0,0-0.1,0.1-0.1,0.1
	c-0.3,0.2-0.4,0.6-0.2,0.9c0.2,0.3,0.6,0.4,0.9,0.2c0.1,0,0.2-0.1,0.2-0.1c0.1-0.1,0.3-0.2,0.4-0.3c0.2-0.2,0.4-0.4,0.5-0.6
	c0.1-0.2,0.2-0.5,0.3-0.7c0.1-0.2,0.1-0.3,0.1-0.5c0-0.2,0-0.3,0-0.5c-0.1-0.6-0.3-1.2-0.6-1.7c-0.1-0.2-0.4-0.4-0.6-0.6
	c-0.2-0.2-0.5-0.3-0.8-0.4c-0.4-0.2-0.9-0.2-1.3-0.2C101.3,64.3,101.1,64.3,101,64.3L101,64.3z"/>
<path d="M109.3,63.4c0,0.1,0,0.2,0,0.2c-0.1,0-0.2,0-0.3,0.1c-0.1,0-0.2,0.1-0.3,0.2c-0.3,0.1-0.4,0.5-0.3,0.8
	c0.1,0.4,0.5,0.6,0.8,0.5c0,0,0.1,0,0.1,0c0,0,0,0.1,0,0.1c0,0.3,0,0.6,0.1,0.8c0,0.3,0.1,0.6,0.2,0.9c0.3,0.5,0.7,0.9,1.2,1
	c0.3,0.1,0.5,0,0.8,0c0.3,0,0.6-0.1,0.8-0.3c0.2-0.1,0.3-0.3,0.4-0.6c0.1-0.3,0.1-0.6,0-0.9c-0.1-0.2-0.2-0.5-0.3-0.7
	c-0.2-0.3-0.4-0.6-0.6-0.8c-0.4-0.4-0.8-0.6-1.3-0.8c0-0.1,0-0.3,0-0.4c0-0.3-0.3-0.6-0.6-0.6C109.6,62.8,109.4,63.1,109.3,63.4
	L109.3,63.4z M110.6,65.4c0.1,0.1,0.2,0.1,0.3,0.2c0.2,0.1,0.3,0.3,0.5,0.5c0.1,0.1,0.2,0.3,0.2,0.4c0,0.1,0,0.1,0.1,0.2
	c0,0,0,0-0.1,0c-0.2,0-0.3,0-0.5,0c0,0,0,0,0,0c-0.1,0-0.1-0.1-0.2-0.1c0,0-0.1-0.1-0.1-0.1c0,0,0-0.1-0.1-0.1
	c0-0.1-0.1-0.3-0.1-0.4C110.6,65.7,110.6,65.5,110.6,65.4L110.6,65.4z M111.7,66.5C111.7,66.5,111.7,66.5,111.7,66.5
	C111.7,66.5,111.7,66.5,111.7,66.5L111.7,66.5z M111.6,66.6c0,0-0.1,0-0.1,0C111.5,66.6,111.5,66.6,111.6,66.6L111.6,66.6z
	 M111.6,66.7C111.6,66.7,111.6,66.7,111.6,66.7C111.6,66.7,111.6,66.7,111.6,66.7L111.6,66.7z"/>
<path d="M115.7,60.6c0,0.5,0.5,1,1,1s1-0.5,1-1s-0.5-1-1-1S115.7,60.1,115.7,60.6L115.7,60.6z"/>
<path d="M117.4,64.3c-0.1,0.1-0.2,0.3-0.2,0.5c-0.1,0.8-0.1,1.6-0.1,2.3c0,0.3,0,0.7,0,1c0,0.4,0.1,0.8,0.2,1.2
	c0.1,0.2,0.3,0.4,0.5,0.4c0.3,0,0.6-0.3,0.6-0.6c0-0.7,0-1.4,0.1-2.1c0.1-0.8,0.1-1.6,0.2-2.3c0-0.4-0.3-0.7-0.7-0.7
	C117.7,64.1,117.5,64.2,117.4,64.3L117.4,64.3z"/>
<path d="M122.2,63.8c-0.2,0.1-0.5,0.2-0.6,0.4c0,0,0,0,0,0c-0.1-0.1-0.4-0.2-0.6-0.2c-0.4,0-0.8,0.4-0.8,0.8c0,0.4,0.1,0.8,0.1,1.1
	c0,0.1,0,0.3,0.1,0.4c0.1,0.2,0.3,0.3,0.5,0.4c0.1,0,0.3,0,0.4,0c0.1,0,0.3,0,0.4-0.1c0.1-0.1,0.2-0.1,0.2-0.2
	c0.1-0.1,0.2-0.3,0.2-0.4c0.1-0.2,0.2-0.3,0.3-0.5c0.1-0.1,0.1-0.2,0.2-0.2c0,0,0,0,0.1,0c0.1,0,0.1,0,0.2-0.1c0,0,0,0,0,0
	c0,0,0.1,0,0.1,0c0,0,0,0,0,0c0.1,0.1,0.2,0.2,0.3,0.3c0.2,0.3,0.4,0.7,0.6,1c0.2,0.4,0.3,0.8,0.5,1.2c0.1,0.2,0.2,0.3,0.3,0.4
	c0.2,0.1,0.4,0.1,0.5,0.1c0.4-0.1,0.6-0.5,0.5-0.9c-0.1-0.4-0.2-0.8-0.3-1.2c-0.3-0.7-0.6-1.4-1.1-2c-0.3-0.3-0.6-0.5-1-0.6
	c-0.1,0-0.3-0.1-0.4-0.1C122.7,63.6,122.4,63.7,122.2,63.8L122.2,63.8z M122.6,65.3C122.6,65.3,122.6,65.4,122.6,65.3
	C122.6,65.3,122.6,65.3,122.6,65.3L122.6,65.3z M124,66.6C124,66.6,124,66.7,124,66.6C124,66.7,124,66.6,124,66.6L124,66.6z"/>
<path d="M129.7,54.6c0,5.2,0.1,10.4,0.2,15.6c0,0.9,0.1,1.8,0.1,2.7c0,0.4,0.4,0.8,0.8,0.8c0.5,0,0.8-0.4,0.8-0.8
	c0.1-2.4,0.1-4.8,0-7.1c0-2.4,0-4.8-0.1-7.1c0-1.3,0-2.7,0-4c0-0.5-0.4-0.9-0.9-0.9C130.1,53.7,129.7,54.1,129.7,54.6L129.7,54.6z"
	/>
<path d="M132.1,61.6c-0.9,0.1-1.8,0.2-2.7,0.4c-0.8,0.1-1.5,0.3-2.2,0.4c-0.5,0.1-0.8,0.7-0.7,1.2c0.1,0.2,0.2,0.5,0.5,0.6
	c0.2,0.1,0.5,0.1,0.8,0.1c0.7-0.1,1.4-0.3,2.2-0.4c0.8-0.2,1.7-0.4,2.5-0.5c0.4-0.1,0.7-0.5,0.7-0.9c0-0.2-0.1-0.5-0.3-0.6
	C132.6,61.7,132.4,61.6,132.1,61.6C132.2,61.6,132.2,61.6,132.1,61.6L132.1,61.6z"/>
<path d="M139.9,62.3c-0.1,2.1-0.3,4.2-0.4,6.4c-0.1,0.9-0.1,1.9-0.2,2.8c0,0.6-0.1,1.1-0.1,1.7c0,0.2,0,0.4,0,0.6c0,0.3,0,0.6,0,0.9
	c0,0.4,0,0.8,0.1,1.2c0,0.3,0.2,0.6,0.5,0.8c0.3,0.2,0.7,0.2,0.9,0c0.2-0.1,0.4-0.2,0.5-0.4c0.1-0.1,0.1-0.2,0.1-0.3
	c0-0.1,0-0.2,0.1-0.3c0,0,0,0,0-0.1c0-0.2,0-0.4-0.1-0.7c0,0-0.1-0.1-0.1-0.1c0-1,0.1-2.1,0.2-3.1c0.1-0.9,0.1-1.9,0.2-2.8
	c0.1-2.1,0.3-4.3,0.4-6.4c0-0.5-0.5-1-1-1C140.3,61.3,139.9,61.8,139.9,62.3L139.9,62.3z"/>
<path d="M142.3,62.3c-0.2,0-0.3,0.1-0.5,0.2c-0.2,0.1-0.3,0.2-0.5,0.3c-0.4,0.3-0.6,0.8-0.3,1.2c0.2,0.4,0.8,0.6,1.2,0.3
	c0.2-0.1,0.3-0.2,0.5-0.3c0,0,0.1,0,0.1,0c0,0,0,0,0,0c0,0,0,0,0,0c0,0,0,0,0,0.1c0,0.2-0.1,0.4-0.2,0.6c-0.1,0.1-0.1,0.2-0.2,0.4
	c-0.1,0.1-0.1,0.1-0.2,0.2c-0.1,0.1-0.2,0.1-0.3,0.2c-0.4,0-0.7,0.3-0.8,0.6c-0.1,0.5,0.1,0.9,0.6,1c0.7,0.2,1.5-0.2,2-0.8
	c0.5-0.6,0.8-1.4,0.8-2.2c0-0.4-0.1-0.7-0.3-1c0,0-0.1-0.1-0.1-0.1c-0.1-0.1-0.1-0.2-0.2-0.3c-0.2-0.2-0.4-0.3-0.6-0.4
	c-0.2-0.1-0.3-0.1-0.5-0.1c0,0-0.1,0-0.1,0C142.6,62.2,142.4,62.3,142.3,62.3L142.3,62.3z M142.7,63.9
	C142.7,63.9,142.8,63.9,142.7,63.9C142.7,63.9,142.7,63.9,142.7,63.9L142.7,63.9z M142.8,63.9C142.8,63.9,142.8,64,142.8,63.9
	C142.8,64,142.8,64,142.8,63.9C142.8,64,142.8,63.9,142.8,63.9L142.8,63.9z M142.7,64C142.7,64,142.8,64,142.7,64
	C142.8,64,142.8,64,142.7,64C142.8,64,142.7,64,142.7,64L142.7,64z M142.8,64C142.8,64,142.8,64,142.8,64
	C142.8,64,142.8,64,142.8,64C142.8,64,142.8,64,142.8,64C142.8,64,142.8,64,142.8,64L142.8,64z M142.7,64
	C142.7,64,142.7,64,142.7,64C142.7,64,142.7,64,142.7,64L142.7,64z M142.9,64C142.9,64,142.9,64,142.9,64
	C142.9,64,142.9,64,142.9,64L142.9,64z M142.8,64C142.8,64,142.8,64,142.8,64C142.8,64,142.8,64,142.8,64
	C142.8,64.1,142.8,64.1,142.8,64C142.8,64,142.8,64,142.8,64L142.8,64z M142.8,64.1C142.8,64.1,142.8,64.1,142.8,64.1
	C142.8,64.1,142.8,64.1,142.8,64.1C142.8,64.1,142.8,64.1,142.8,64.1L142.8,64.1z"/>
<path d="M146.7,51.7c0,1.1,0,2.2,0,3.2c0,0.4,0,0.8,0,1.2c0,0.3,0,0.6,0.1,0.8c0.1,0.4,0.1,0.7,0.2,1.1c0.1,0.4,0.5,0.7,0.9,0.7
	c0.5,0,0.9-0.4,0.9-0.9c-0.1-0.9-0.1-1.9-0.1-2.9c0-1.1,0-2.2,0-3.2c0-0.5-0.5-1-1-1C147.2,50.7,146.7,51.1,146.7,51.7L146.7,51.7z"
	/>
<path d="M146.9,66.9c0,0.5,0.5,1,1,1s1-0.5,1-1s-0.5-1-1-1S146.9,66.3,146.9,66.9L146.9,66.9z"/>
<path d="M34.4,75.4c-2.1,0.1-4.2,0.1-6.3,0.3c-2.3,0.2-4.5,0.4-6.8,0.7c-2.1,0.2-4.2,0.5-6.3,0.7c-2,0.2-3.9,0.5-5.9,0.6
	c-0.2-0.1-0.3-0.2-0.6-0.2c-0.5,0-1,0-1.4,0.2c-0.4,0.1-0.7,0.5-0.7,0.9c0,0.2,0,0.3,0.1,0.5c0.1,0.2,0.3,0.4,0.6,0.4
	c0.4,0.1,0.7,0.1,1.1,0.1c0.2,0,0.4,0,0.7,0c0.4,0,0.7,0,1,0c0.5,0,1-0.1,1.5-0.1c1-0.1,2-0.2,3-0.3c2.2-0.3,4.5-0.5,6.7-0.8
	c2.1-0.2,4.2-0.5,6.3-0.6c2.2-0.2,4.5-0.2,6.7-0.3c2.1-0.1,4.3-0.1,6.4-0.1c1,0,2.1,0,3.1,0c1,0,2,0.1,3,0c0.1,0,0.3,0,0.4,0
	c0.4,0,0.7-0.2,0.8-0.6c0.1-0.5-0.2-0.9-0.6-1c-0.6-0.2-1.2-0.3-1.9-0.3c-0.5,0-1-0.1-1.6-0.1c-1.1,0-2.1-0.1-3.2-0.1
	c-0.2,0-0.4,0-0.6,0C38.3,75.3,36.4,75.4,34.4,75.4L34.4,75.4z"/>
<path d="M4.8,62.3c-0.8,0.2-1.3,0.8-1.4,1.6c-0.2,1.3,0.7,2.3,1.6,3c0.5,0.5,1.1,0.9,1.5,1.4c0,0.1,0.1,0.1,0.1,0.2
	c0,0.1,0,0.1,0.1,0.2c0,0.1,0,0.1,0,0.2c0,0.1,0,0.1-0.1,0.2c0,0.1-0.1,0.2-0.1,0.2c-0.1,0.1-0.2,0.2-0.2,0.2
	C6,69.8,5.8,69.9,5.5,70c-0.4,0.2-0.8,0.3-1.3,0.4c-0.3,0-0.5,0-0.8,0c-0.2,0-0.4-0.1-0.6-0.2c0,0-0.1,0-0.1-0.1
	c-0.1-0.1-0.1-0.1-0.2-0.2c-0.3-0.3-0.7-0.3-1-0.1c-0.2,0.1-0.3,0.3-0.4,0.5c-0.1,0.2,0,0.5,0.1,0.7c0.1,0.1,0.2,0.3,0.3,0.4
	c0.1,0.1,0.2,0.2,0.4,0.3c0.3,0.2,0.6,0.3,1,0.4c0.8,0.2,1.7,0.1,2.5-0.1c0.8-0.2,1.5-0.6,2.1-1.1C7.6,70.7,7.9,70.3,8,70
	c0.2-0.3,0.2-0.7,0.3-1.1c0-0.3-0.1-0.6-0.2-0.9c-0.1-0.3-0.3-0.6-0.6-0.9S7,66.6,6.7,66.4c-0.5-0.4-1.1-0.9-1.5-1.4
	C5.1,64.9,5,64.7,5,64.6c0-0.1,0-0.2-0.1-0.2c0,0,0-0.1,0-0.1c0,0,0-0.1,0-0.1c0,0,0-0.1,0.1-0.1c0,0,0,0,0.1-0.1
	c0.1,0,0.1-0.1,0.2-0.1c0.1,0,0.2-0.1,0.3-0.1c0.2,0,0.5,0,0.7,0c0.9,0.2,1.8,0.5,2.7,0.8c0.4,0.1,0.8-0.2,0.9-0.5
	c0.1-0.4-0.1-0.8-0.5-0.9c-0.7-0.3-1.4-0.5-2.1-0.7c-0.5-0.1-1-0.2-1.4-0.2C5.5,62.2,5.1,62.2,4.8,62.3L4.8,62.3z M4.9,64.2
	C4.9,64.3,4.9,64.3,4.9,64.2C4.9,64.3,4.9,64.3,4.9,64.2L4.9,64.2z M4.9,64.4C4.9,64.4,4.9,64.5,4.9,64.4
	C4.9,64.5,4.9,64.4,4.9,64.4L4.9,64.4z M3.3,70.4C3.4,70.4,3.4,70.4,3.3,70.4C3.4,70.4,3.4,70.4,3.3,70.4L3.3,70.4z"/>
<path d="M36.3,86.9C36.2,87,36.1,87,36,87.1c-0.1,0.1-0.2,0.3-0.3,0.4c-0.2,0.3-0.2,0.7-0.3,1.1c-0.1,0.7-0.2,1.5-0.2,2.2
	c0,0.6,0,1.1,0,1.7c0,0.2,0,0.5,0,0.7c0,0.3,0,0.7,0,1c0,0.6,0.1,1.1,0.1,1.7c0.1,1,0.1,2,0.2,3c0.1,1.1,0.1,2.2,0.1,3.3
	c0,0.3,0,0.7,0.1,1c0.1,0.4,0.1,0.9,0.2,1.3c0.1,0.3,0.4,0.6,0.7,0.6c0.2,0,0.4-0.1,0.5-0.2c0.2-0.2,0.2-0.3,0.2-0.5c0,0,0,0,0-0.1
	c0,0,0,0.1,0,0.1c0-0.3,0.1-0.6,0.1-1c0-0.3,0-0.6,0-0.9c0-0.5,0-1.1-0.1-1.6c-0.1-1.1-0.1-2.2-0.2-3.3c-0.1-1.1-0.1-2.2-0.2-3.2
	c0-0.6-0.1-1.1-0.1-1.7c0-0.5,0-1.1,0-1.6c0-0.5,0-1,0.1-1.5c0.1,0.2,0.1,0.4,0.2,0.5c0.1,0.4,0.6,0.7,1,0.6c0.4-0.1,0.7-0.6,0.6-1
	c-0.2-0.5-0.3-0.9-0.4-1.4c-0.1-0.3-0.2-0.5-0.4-0.8c-0.2-0.2-0.4-0.4-0.5-0.6c-0.1-0.2-0.4-0.2-0.6-0.2
	C36.7,86.6,36.5,86.7,36.3,86.9L36.3,86.9z"/>
<path d="M44.2,99.4c-0.3,0.2-0.5,0.5-0.8,0.8c-0.1,0.2-0.3,0.3-0.4,0.5c-0.5,0.6-1,1.1-1.6,1.5c-0.7,0.5-1.5,1-2.3,1.3
	c-0.4,0.1-0.7,0.2-1.1,0.3c-0.2,0-0.4,0-0.6,0c-0.1,0-0.3-0.1-0.4-0.1c-0.7-0.3-1.5-0.7-2.2-1.1c-0.6-0.3-1.1-0.6-1.6-1
	c-0.5-0.3-1.1-0.1-1.4,0.4c-0.3,0.5-0.1,1.1,0.4,1.4c0.6,0.4,1.2,0.8,1.9,1.1c0.5,0.3,1,0.5,1.5,0.7c0.4,0.2,0.8,0.4,1.2,0.5
	c0.4,0.1,0.8,0.1,1.3,0.1c0.8-0.1,1.6-0.3,2.4-0.7c0.8-0.4,1.5-0.8,2.1-1.3c0.6-0.4,1.2-0.9,1.6-1.5c0.2-0.3,0.5-0.6,0.7-0.9
	c0.2-0.2,0.4-0.4,0.6-0.7c0.3-0.4,0.4-0.9,0-1.3c-0.2-0.2-0.4-0.3-0.6-0.3C44.6,99.1,44.4,99.2,44.2,99.4L44.2,99.4z M45.1,101.2
	c0,0-0.1,0.1-0.1,0.1C45,101.3,45,101.3,45.1,101.2L45.1,101.2z"/>
<path d="M112.6,84.5c-0.2,0.1-0.4,0.3-0.5,0.6c-0.6,1.6-1.2,3.2-1.8,4.9c-0.5,1.5-1.1,2.9-1.7,4.4c-0.1,0.3-0.2,0.5-0.4,0.8
	c0,0,0,0,0,0c-0.3-0.1-0.5-0.3-0.7-0.5c-0.3-0.3-0.7-0.6-0.9-1c-0.1-0.1-0.2-0.2-0.2-0.4c0-0.1-0.1-0.2-0.1-0.2
	c-0.3-0.5-0.9-0.6-1.4-0.4c-0.5,0.3-0.6,0.9-0.4,1.4c0,0,0,0.1,0.1,0.1c0.3,0.8,0.7,1.6,1,2.4c0.1,0.2,0.2,0.4,0.3,0.6
	c0.1,0.2,0.2,0.4,0.3,0.5c0.1,0.2,0.3,0.5,0.5,0.7c0.3,0.4,0.8,0.8,1.3,1c0.5,0.2,1,0.2,1.5,0.1c0.3,0,0.5-0.1,0.8-0.1
	c0.3-0.1,0.6-0.2,0.9-0.4c0.5-0.2,1-0.4,1.5-0.7c0.4-0.2,0.8-0.4,1.1-0.6c0.4-0.2,0.7-0.4,1-0.7c0.4-0.3,0.8-0.6,1.2-0.9
	c0.4-0.3,0.6-0.8,0.3-1.2c-0.3-0.4-0.8-0.5-1.2-0.3c-0.7,0.4-1.4,0.8-2,1.2c-0.9,0.5-1.9,1-2.8,1.4c-0.3,0.1-0.6,0.2-0.9,0.3
	c-0.2,0-0.3,0-0.5,0c-0.1,0-0.1,0-0.1,0c0,0-0.1,0-0.1-0.1c-0.1-0.1-0.3-0.2-0.4-0.4c0.2,0,0.5,0,0.7-0.1c0.7-0.2,1.1-0.9,1.4-1.6
	c0.3-0.7,0.6-1.4,0.8-2.1c0.2-0.5,0.4-1,0.6-1.5c0.8-2.1,1.6-4.2,2.4-6.3c0.1-0.2,0-0.6-0.1-0.8c-0.1-0.2-0.3-0.4-0.6-0.5
	c-0.1,0-0.2,0-0.3,0C112.9,84.3,112.8,84.4,112.6,84.5L112.6,84.5z M104.5,94.3C104.6,94.3,104.6,94.3,104.5,94.3
	C104.6,94.3,104.6,94.3,104.5,94.3L104.5,94.3z M108.1,95.1C108.1,95.1,108.1,95.1,108.1,95.1C108.1,95.1,108.1,95.1,108.1,95.1
	L108.1,95.1z M108.2,95.2C108.1,95.2,108.1,95.2,108.2,95.2C108.1,95.2,108.1,95.2,108.2,95.2L108.2,95.2z"/>
<path d="M135.7,91.3c-0.2,0.1-0.5,0.2-0.6,0.5c-0.1,0.2-0.2,0.5-0.1,0.8c0.1,0.3,0.2,0.4,0.5,0.6c0.1,0.1,0.3,0.2,0.4,0.3
	c-0.1-0.1-0.1-0.1-0.2-0.2c0.5,0.4,0.9,0.8,1.4,1.1c0.4,0.3,0.7,0.7,1.1,1c0.7,0.6,1.3,1.3,1.9,2c0.2,0.3,0.4,0.5,0.6,0.8
	c0.3,0.5,0.6,0.9,0.9,1.4c0.5,0.8,0.8,1.6,1.2,2.4c0.3,0.7,0.6,1.5,0.8,2.2c0.3,0.9,0.5,1.7,0.6,2.6c0.3,1.8,0.6,3.5,0.8,5.3
	c0.4,3.2,0.7,6.4,1,9.6c0.2,1.6,0.4,3.3,0.6,4.9c0.2,1.6,0.3,3.2,0.3,4.8c0,0.4,0,0.8,0,1.2c0,0.3,0,0.7,0,1c0,0.8,0,1.7,0,2.5
	c0,1.7-0.1,3.4-0.2,5.1c-0.1,1.6-0.2,3.1-0.4,4.7c-0.1,1.6-0.2,3.3-0.4,4.9c-0.1,2-0.2,3.9-0.4,5.9c-0.1,1-0.2,2-0.3,3.1
	c-0.1,0.9-0.2,1.7-0.3,2.5c-0.3,1.7-0.5,3.3-0.8,4.9c-0.3,1.7-0.6,3.4-1,5c-0.3,1.6-0.7,3.2-1.1,4.7c-0.4,1.5-0.7,2.9-1.1,4.4
	c-0.9,3.4-1.8,6.7-2.8,10.1c-0.4,1.4-0.9,2.9-1.3,4.3c-0.3,0.9-0.6,1.7-0.9,2.6c-0.3,0.9-0.7,1.8-1,2.7c-0.4,1.1-0.9,2.2-1.3,3.3
	c-0.5,1.1-1,2.3-1.6,3.4c-0.3,0.7-0.7,1.4-1,2.1c-0.3,0.6-0.7,1.2-1,1.8c-0.6,1.2-1.3,2.3-2,3.4c-0.3,0.6-0.7,1.1-1.1,1.6
	c-0.6,0.9-1.1,1.7-1.8,2.5c-0.8,1.1-1.7,2.1-2.7,3.1c-1,1.1-2.2,2-3.3,2.9c0.1-0.1,0.1-0.1,0.2-0.2c-0.6,0.5-1.2,0.9-1.9,1.4
	c-0.3,0.2-0.7,0.4-1,0.7c-0.7,0.4-1.4,0.9-2.1,1.3c-0.2,0.1-0.5,0.3-0.7,0.4c-0.5,0.3-1,0.6-1.5,0.9c-0.6,0.3-1.1,0.6-1.7,0.9
	c-0.7,0.4-1.4,0.8-2.1,1.1c-0.8,0.4-1.7,0.8-2.5,1.2c-1.3,0.6-2.6,1.2-3.9,1.8c-1.3,0.5-2.5,1.1-3.8,1.5c-1.6,0.6-3.1,1.2-4.7,1.8
	c-1.5,0.6-3,1.1-4.5,1.7c-0.7,0.2-1.3,0.5-2,0.7c-0.4,0.1-0.8,0.3-1.2,0.4c-0.5-0.3-0.9-0.5-1.3-0.8c-0.2-0.1-0.3-0.3-0.5-0.4
	c0.2-0.8,0.5-1.6,0.8-2.3c0.2-0.6,0.4-1.1,0.7-1.7c0.5-1.2,1-2.5,1.4-3.7c0.1-0.3,0-0.7-0.3-1c-0.1-0.1-0.3-0.2-0.4-0.3
	c-0.2-0.1-0.6-0.1-0.8,0.1c-0.1,0.1-0.2,0.2-0.3,0.2c-0.1,0.1-0.2,0.3-0.3,0.4c-0.2,0.2-0.3,0.6-0.4,0.8c-0.2,0.4-0.3,0.7-0.5,1.1
	c-0.3,0.5-0.5,1-0.8,1.6c-0.3,0.6-0.5,1.1-0.8,1.7c-0.1,0.3-0.2,0.5-0.4,0.8c-0.1,0.2-0.3,0.5-0.3,0.8c-0.1,0.4-0.2,0.8-0.1,1.2
	c0,0.2,0,0.3,0.1,0.4c0,0.1,0.1,0.2,0.2,0.4c-0.1,0.5-0.1,1-0.1,1.5c0,0.2,0.1,0.5,0.2,0.7c0,0.1,0.1,0.2,0.1,0.2
	c0.1,0.1,0.2,0.2,0.3,0.4c0.4,0.3,0.7,0.6,1.2,0.6c0.3,0,0.5,0,0.8,0c0.3-0.1,0.5-0.1,0.8-0.2c0.2-0.1,0.4-0.1,0.6-0.2
	c0.5,0.2,1,0.5,1.5,0.7c0.6,0.3,1.3,0.5,1.9,0.7c0.7,0.2,1.3,0.4,2,0.5c0.5,0.1,1.1-0.1,1.2-0.7c0.1-0.5-0.2-1.1-0.7-1.2
	c-1.1-0.3-2.2-0.7-3.3-1.1c2.4-0.9,4.8-1.8,7.2-2.7c1.5-0.6,2.9-1.1,4.4-1.7c0.9-0.4,1.8-0.7,2.7-1.1c0.9-0.4,1.7-0.8,2.5-1.1
	c0.6-0.3,1.2-0.6,1.8-0.8c0.8-0.4,1.6-0.8,2.4-1.2c0.9-0.4,1.7-0.9,2.6-1.3c0.6-0.3,1.3-0.7,1.9-1.1c0.6-0.4,1.3-0.7,1.9-1.1
	c0.9-0.6,1.8-1.2,2.7-1.7c0.5-0.4,1.1-0.7,1.6-1.1c1-0.7,1.9-1.5,2.8-2.3c1.7-1.5,3.2-3.3,4.6-5.1c0.7-1,1.4-2,2-3
	c0.4-0.6,0.8-1.3,1.2-1.9c0.4-0.6,0.8-1.3,1.1-1.9c0.4-0.7,0.8-1.4,1.2-2.1c0.4-0.8,0.8-1.7,1.3-2.5c0.1-0.3,0.3-0.6,0.4-0.8
	c0.3-0.6,0.5-1.1,0.8-1.7c0.3-0.7,0.6-1.4,0.9-2.2c0.3-0.7,0.6-1.3,0.8-2c0.3-0.9,0.6-1.7,1-2.6c0.3-0.9,0.6-1.8,0.9-2.7
	c0.5-1.4,0.9-2.9,1.3-4.3c1-3.3,1.9-6.7,2.8-10c0.4-1.5,0.8-2.9,1.1-4.4c0.4-1.6,0.8-3.1,1.1-4.7c0.3-1.7,0.7-3.3,1-5
	c0.3-1.7,0.6-3.5,0.8-5.2c0.2-1.6,0.4-3.1,0.5-4.7c0.1-1.7,0.3-3.3,0.4-5c0.1-1.6,0.2-3.2,0.3-4.9c0.1-1.7,0.3-3.3,0.4-5
	c0.1-1.8,0.2-3.6,0.3-5.3c0-0.7,0-1.5,0.1-2.2c0-0.8,0-1.6,0-2.3c0-0.8,0-1.7-0.1-2.5c0-0.9-0.1-1.7-0.2-2.6
	c-0.1-1.6-0.3-3.2-0.5-4.8c-0.2-1.6-0.4-3.3-0.6-4.9c-0.2-1.7-0.3-3.4-0.5-5c-0.2-1.7-0.4-3.3-0.7-5c-0.2-1.6-0.5-3.1-1-4.7
	c-0.5-1.5-1.1-3.1-1.8-4.5c-0.4-0.8-0.9-1.5-1.3-2.2c-0.2-0.3-0.5-0.6-0.7-0.9c-0.3-0.4-0.6-0.7-0.9-1.1c-0.6-0.7-1.2-1.2-1.9-1.8
	c-0.3-0.3-0.6-0.5-0.9-0.7c-0.5-0.4-1-0.8-1.5-1.2c-0.1-0.1-0.3-0.1-0.5-0.1C135.9,91.3,135.8,91.3,135.7,91.3L135.7,91.3z
	 M139.9,97.2c0,0,0.1,0.1,0.1,0.1C139.9,97.3,139.9,97.3,139.9,97.2L139.9,97.2z M133.7,204.6c0,0,0,0.1-0.1,0.1
	C133.7,204.7,133.7,204.6,133.7,204.6L133.7,204.6z M83.6,239.1C83.6,239.1,83.6,239.1,83.6,239.1C83.6,239.1,83.6,239.1,83.6,239.1
	C83.6,239.1,83.6,239.1,83.6,239.1C83.6,239.1,83.6,239.1,83.6,239.1L83.6,239.1z"/>
</svg>
