<?xml version="1.0" encoding="utf-8"?>
<!-- Generator: Adobe Illustrator 19.2.0, SVG Export Plug-In . SVG Version: 6.00 Build 0)  -->
<svg version="1.1" id="Layer_1" xmlns="http://www.w3.org/2000/svg" xmlns:xlink="http://www.w3.org/1999/xlink" x="0px" y="0px"
	 viewBox="0 0 720 540" style="enable-background:new 0 0 720 540;" xml:space="preserve">
<style type="text/css">
	.st0{clip-path:url(#SVGID_2_);fill:#FFFFFF;}
	.st1{clip-path:url(#SVGID_4_);}
	.st2{clip-path:url(#SVGID_6_);}
	.st3{clip-path:url(#SVGID_8_);}
	.st4{clip-path:url(#SVGID_10_);}
	.st5{font-family:'Calibri';}
	.st6{font-size:54px;}
	.st7{clip-path:url(#SVGID_12_);}
	.st8{clip-path:url(#SVGID_14_);}
	.st9{clip-path:url(#SVGID_16_);}
	.st10{font-size:24px;}
	.st11{clip-path:url(#SVGID_18_);}
	.st12{clip-path:url(#SVGID_20_);}
	.st13{clip-path:url(#SVGID_22_);}
	.st14{clip-path:url(#SVGID_24_);}
	.st15{clip-path:url(#SVGID_26_);}
	.st16{clip-path:url(#SVGID_28_);}
	.st17{clip-path:url(#SVGID_30_);}
	.st18{clip-path:url(#SVGID_32_);}
	.st19{clip-path:url(#SVGID_34_);}
</style>
<g>
	<g>
		<g>
			<g>
				<g>
					<defs>
						<rect id="SVGID_1_" width="720" height="540"/>
					</defs>
					<clipPath id="SVGID_2_">
						<use xlink:href="#SVGID_1_"  style="overflow:visible;"/>
					</clipPath>
					<polygon class="st0" points="0,0 720,0 720,540 0,540 					"/>
				</g>
			</g>
		</g>
		<g>
			<g>
				<g>
					<defs>
						<rect id="SVGID_3_" width="720" height="540"/>
					</defs>
					<clipPath id="SVGID_4_">
						<use xlink:href="#SVGID_3_"  style="overflow:visible;"/>
					</clipPath>
					<g class="st1">
						
							<image style="overflow:visible;enable-background:new    ;" width="1675" height="992" xlink:href="32E8762C9886ED54.png"  transform="matrix(0.1198 0 0 0.1194 19.32 14.3999)">
						</image>
					</g>
				</g>
			</g>
		</g>
		<g>
			<g>
				<g>
					<defs>
						<rect id="SVGID_5_" width="720" height="540"/>
					</defs>
					<clipPath id="SVGID_6_">
						<use xlink:href="#SVGID_5_"  style="overflow:visible;"/>
					</clipPath>
					<g class="st2">
						
							<image style="overflow:visible;enable-background:new    ;" width="1167" height="992" xlink:href="32E8762C9886ED55.png"  transform="matrix(0.1191 0 0 0.1194 150.12 14.3999)">
						</image>
					</g>
				</g>
			</g>
		</g>
		<g>
			<g>
				<g>
					<defs>
						<rect id="SVGID_7_" width="720" height="540"/>
					</defs>
					<clipPath id="SVGID_8_">
						<use xlink:href="#SVGID_7_"  style="overflow:visible;"/>
					</clipPath>
					<g class="st3">
						
							<image style="overflow:visible;enable-background:new    ;" width="2783" height="992" xlink:href="32E8762C9886ED53.png"  transform="matrix(0.1197 0 0 0.1194 19.32 144)">
						</image>
					</g>
				</g>
			</g>
		</g>
	</g>
	<g>
		<g>
			<g>
				<g>
					<defs>
						<rect id="SVGID_9_" width="720" height="540"/>
					</defs>
					<clipPath id="SVGID_10_">
						<use xlink:href="#SVGID_9_"  style="overflow:visible;"/>
					</clipPath>
					<g class="st4">
						<text transform="matrix(1 0 0 1 52.6176 81.998)" class="st5 st6">Topic </text>
					</g>
				</g>
			</g>
		</g>
	</g>
	<g>
		<g>
			<g>
				<g>
					<defs>
						<rect id="SVGID_11_" width="720" height="540"/>
					</defs>
					<clipPath id="SVGID_12_">
						<use xlink:href="#SVGID_11_"  style="overflow:visible;"/>
					</clipPath>
					<g class="st7">
						<text transform="matrix(1 0 0 1 183.3988 81.998)" class="st5 st6">02:</text>
					</g>
				</g>
			</g>
		</g>
	</g>
	<g>
		<g>
			<g>
				<g>
					<defs>
						<rect id="SVGID_13_" width="720" height="540"/>
					</defs>
					<clipPath id="SVGID_14_">
						<use xlink:href="#SVGID_13_"  style="overflow:visible;"/>
					</clipPath>
					<g class="st8">
						<text transform="matrix(1 0 0 1 52.6176 211.5684)" class="st5 st6">The</text>
						<text transform="matrix(1 0 0 1 134.2176 211.5684)" class="st5 st6"> </text>
						<text transform="matrix(1 0 0 1 146.5176 211.5684)" class="st5 st6">Ca</text>
						<text transform="matrix(1 0 0 1 201.1176 211.5684)" class="st5 st6">m</text>
						<text transform="matrix(1 0 0 1 244.2176 211.5684)" class="st5 st6">era</text>
					</g>
				</g>
			</g>
		</g>
	</g>
	<g>
		<g>
			<g>
				<g>
					<defs>
						<rect id="SVGID_15_" width="720" height="540"/>
					</defs>
					<clipPath id="SVGID_16_">
						<use xlink:href="#SVGID_15_"  style="overflow:visible;"/>
					</clipPath>
					<g class="st9">
						<text transform="matrix(1 0 0 1 169.1957 275.0527)" class="st5 st10">•</text>
					</g>
				</g>
			</g>
		</g>
	</g>
	<g>
		<g>
			<g>
				<g>
					<defs>
						<rect id="SVGID_17_" width="720" height="540"/>
					</defs>
					<clipPath id="SVGID_18_">
						<use xlink:href="#SVGID_17_"  style="overflow:visible;"/>
					</clipPath>
					<g class="st11">
						<text transform="matrix(1 0 0 1 187.2113 275.0527)" class="st5 st10">Re</text>
						<text transform="matrix(1 0 0 1 212.3113 275.0527)" class="st5 st10">lati</text>
						<text transform="matrix(1 0 0 1 242.6113 275.0527)" class="st5 st10">o</text>
						<text transform="matrix(1 0 0 1 255.3113 275.0527)" class="st5 st10">n</text>
						<text transform="matrix(1 0 0 1 267.9113 275.0527)" class="st5 st10"> </text>
						<text transform="matrix(1 0 0 1 273.1113 275.0527)" class="st5 st10">o</text>
						<text transform="matrix(1 0 0 1 285.8113 275.0527)" class="st5 st10">f</text>
						<text transform="matrix(1 0 0 1 293.1113 275.0527)" class="st5 st10"> </text>
						<text transform="matrix(1 0 0 1 298.5113 275.0527)" class="st5 st10">i</text>
						<text transform="matrix(1 0 0 1 304.0113 275.0527)" class="st5 st10">m</text>
						<text transform="matrix(1 0 0 1 323.2113 275.0527)" class="st5 st10">ag</text>
						<text transform="matrix(1 0 0 1 346.0113 275.0527)" class="st5 st10">e</text>
						<text transform="matrix(1 0 0 1 358.0113 275.0527)" class="st5 st10"> </text>
						<text transform="matrix(1 0 0 1 363.2113 275.0527)" class="st5 st10">i</text>
						<text transform="matrix(1 0 0 1 368.8113 275.0527)" class="st5 st10">rr</text>
						<text transform="matrix(1 0 0 1 385.5113 275.0527)" class="st5 st10">adian</text>
						<text transform="matrix(1 0 0 1 439.3113 275.0527)" class="st5 st10">ce</text>
						<text transform="matrix(1 0 0 1 461.4113 275.0527)" class="st5 st10"> </text>
						<text transform="matrix(1 0 0 1 466.6113 275.0527)" class="st5 st10">t</text>
						<text transform="matrix(1 0 0 1 474.6113 275.0527)" class="st5 st10">o</text>
						<text transform="matrix(1 0 0 1 487.2113 275.0527)" class="st5 st10"> </text>
						<text transform="matrix(1 0 0 1 492.7113 275.0527)" class="st5 st10">th</text>
						<text transform="matrix(1 0 0 1 513.3113 275.0527)" class="st5 st10">e</text>
						<text transform="matrix(1 0 0 1 525.3113 275.0527)" class="st5 st10"> </text>
						<text transform="matrix(1 0 0 1 530.7113 275.0527)" class="st5 st10">l</text>
						<text transform="matrix(1 0 0 1 536.2113 275.0527)" class="st5 st10">e</text>
						<text transform="matrix(1 0 0 1 548.2113 275.0527)" class="st5 st10">n</text>
						<text transform="matrix(1 0 0 1 560.8113 275.0527)" class="st5 st10">s </text>
						<text transform="matrix(1 0 0 1 575.6113 275.0527)" class="st5 st10">&amp;</text>
						<text transform="matrix(1 0 0 1 591.9113 275.0527)" class="st5 st10"> </text>
						<text transform="matrix(1 0 0 1 597.3113 275.0527)" class="st5 st10">ap</text>
						<text transform="matrix(1 0 0 1 621.4113 275.0527)" class="st5 st10">e</text>
						<text transform="matrix(1 0 0 1 633.4113 275.0527)" class="st5 st10">r</text>
						<text transform="matrix(1 0 0 1 641.8113 275.0527)" class="st5 st10">tu</text>
						<text transform="matrix(1 0 0 1 662.4113 275.0527)" class="st5 st10">r</text>
						<text transform="matrix(1 0 0 1 670.8113 275.0527)" class="st5 st10">e</text>
					</g>
				</g>
			</g>
		</g>
	</g>
	<g>
		<g>
			<g>
				<g>
					<defs>
						<rect id="SVGID_19_" width="720" height="540"/>
					</defs>
					<clipPath id="SVGID_20_">
						<use xlink:href="#SVGID_19_"  style="overflow:visible;"/>
					</clipPath>
					<g class="st12">
						<text transform="matrix(1 0 0 1 169.1957 309.6152)" class="st5 st10">•</text>
					</g>
				</g>
			</g>
		</g>
	</g>
	<g>
		<g>
			<g>
				<g>
					<defs>
						<rect id="SVGID_21_" width="720" height="540"/>
					</defs>
					<clipPath id="SVGID_22_">
						<use xlink:href="#SVGID_21_"  style="overflow:visible;"/>
					</clipPath>
					<g class="st13">
						<text transform="matrix(1 0 0 1 187.2113 309.6152)" class="st5 st10">F</text>
						<text transform="matrix(1 0 0 1 198.2113 309.6152)" class="st5 st10">r</text>
						<text transform="matrix(1 0 0 1 206.6113 309.6152)" class="st5 st10">o</text>
						<text transform="matrix(1 0 0 1 219.2113 309.6152)" class="st5 st10">m</text>
						<text transform="matrix(1 0 0 1 238.4113 309.6152)" class="st5 st10"> </text>
						<text transform="matrix(1 0 0 1 243.7113 309.6152)" class="st5 st10">i</text>
						<text transform="matrix(1 0 0 1 249.2113 309.6152)" class="st5 st10">rr</text>
						<text transform="matrix(1 0 0 1 266.0113 309.6152)" class="st5 st10">adian</text>
						<text transform="matrix(1 0 0 1 319.7113 309.6152)" class="st5 st10">ce</text>
						<text transform="matrix(1 0 0 1 341.9113 309.6152)" class="st5 st10"> </text>
						<text transform="matrix(1 0 0 1 347.1113 309.6152)" class="st5 st10">t</text>
						<text transform="matrix(1 0 0 1 355.1113 309.6152)" class="st5 st10">o</text>
						<text transform="matrix(1 0 0 1 367.7113 309.6152)" class="st5 st10"> </text>
						<text transform="matrix(1 0 0 1 373.1113 309.6152)" class="st5 st10">digital</text>
						<text transform="matrix(1 0 0 1 433.1113 309.6152)" class="st5 st10"> </text>
						<text transform="matrix(1 0 0 1 438.4113 309.6152)" class="st5 st10">nu</text>
						<text transform="matrix(1 0 0 1 463.6113 309.6152)" class="st5 st10">m</text>
						<text transform="matrix(1 0 0 1 482.8113 309.6152)" class="st5 st10">b</text>
						<text transform="matrix(1 0 0 1 495.4113 309.6152)" class="st5 st10">e</text>
						<text transform="matrix(1 0 0 1 507.4113 309.6152)" class="st5 st10">r</text>
						<text transform="matrix(1 0 0 1 515.8113 309.6152)" class="st5 st10">s</text>
					</g>
				</g>
			</g>
		</g>
	</g>
	<g>
		<g>
			<g>
				<g>
					<defs>
						<rect id="SVGID_23_" width="720" height="540"/>
					</defs>
					<clipPath id="SVGID_24_">
						<use xlink:href="#SVGID_23_"  style="overflow:visible;"/>
					</clipPath>
					<g class="st14">
						<text transform="matrix(1 0 0 1 169.1957 344.1777)" class="st5 st10">•</text>
					</g>
				</g>
			</g>
		</g>
	</g>
	<g>
		<g>
			<g>
				<g>
					<defs>
						<rect id="SVGID_25_" width="720" height="540"/>
					</defs>
					<clipPath id="SVGID_26_">
						<use xlink:href="#SVGID_25_"  style="overflow:visible;"/>
					</clipPath>
					<g class="st15">
						<text transform="matrix(1 0 0 1 187.2113 344.1777)" class="st5 st10">I</text>
						<text transform="matrix(1 0 0 1 193.2113 344.1777)" class="st5 st10">m</text>
						<text transform="matrix(1 0 0 1 212.4113 344.1777)" class="st5 st10">ag</text>
						<text transform="matrix(1 0 0 1 235.2113 344.1777)" class="st5 st10">e</text>
						<text transform="matrix(1 0 0 1 247.2113 344.1777)" class="st5 st10"> </text>
						<text transform="matrix(1 0 0 1 252.5113 344.1777)" class="st5 st10">n</text>
						<text transform="matrix(1 0 0 1 265.1113 344.1777)" class="st5 st10">o</text>
						<text transform="matrix(1 0 0 1 277.7113 344.1777)" class="st5 st10">i</text>
						<text transform="matrix(1 0 0 1 283.2113 344.1777)" class="st5 st10">s</text>
						<text transform="matrix(1 0 0 1 292.6113 344.1777)" class="st5 st10">e</text>
					</g>
				</g>
			</g>
		</g>
	</g>
	<g>
		<g>
			<g>
				<g>
					<defs>
						<rect id="SVGID_27_" width="720" height="540"/>
					</defs>
					<clipPath id="SVGID_28_">
						<use xlink:href="#SVGID_27_"  style="overflow:visible;"/>
					</clipPath>
					<g class="st16">
						<text transform="matrix(1 0 0 1 169.1957 378.7402)" class="st5 st10">•</text>
					</g>
				</g>
			</g>
		</g>
	</g>
	<g>
		<g>
			<g>
				<g>
					<defs>
						<rect id="SVGID_29_" width="720" height="540"/>
					</defs>
					<clipPath id="SVGID_30_">
						<use xlink:href="#SVGID_29_"  style="overflow:visible;"/>
					</clipPath>
					<g class="st17">
						<text transform="matrix(1 0 0 1 187.2113 378.7402)" class="st5 st10">G</text>
						<text transform="matrix(1 0 0 1 202.3113 378.7402)" class="st5 st10">e</text>
						<text transform="matrix(1 0 0 1 214.3113 378.7402)" class="st5 st10">o</text>
						<text transform="matrix(1 0 0 1 226.9113 378.7402)" class="st5 st10">m</text>
						<text transform="matrix(1 0 0 1 246.1113 378.7402)" class="st5 st10">e</text>
						<text transform="matrix(1 0 0 1 258.1113 378.7402)" class="st5 st10">t</text>
						<text transform="matrix(1 0 0 1 266.2113 378.7402)" class="st5 st10">r</text>
						<text transform="matrix(1 0 0 1 274.6113 378.7402)" class="st5 st10">y</text>
						<text transform="matrix(1 0 0 1 285.5113 378.7402)" class="st5 st10"> </text>
						<text transform="matrix(1 0 0 1 290.6113 378.7402)" class="st5 st10">o</text>
						<text transform="matrix(1 0 0 1 303.2113 378.7402)" class="st5 st10">f</text>
						<text transform="matrix(1 0 0 1 310.6113 378.7402)" class="st5 st10"> </text>
						<text transform="matrix(1 0 0 1 316.1113 378.7402)" class="st5 st10">i</text>
						<text transform="matrix(1 0 0 1 321.6113 378.7402)" class="st5 st10">m</text>
						<text transform="matrix(1 0 0 1 340.8113 378.7402)" class="st5 st10">ag</text>
						<text transform="matrix(1 0 0 1 363.6113 378.7402)" class="st5 st10">e</text>
						<text transform="matrix(1 0 0 1 375.5113 378.7402)" class="st5 st10"> </text>
						<text transform="matrix(1 0 0 1 380.8113 378.7402)" class="st5 st10">p</text>
						<text transform="matrix(1 0 0 1 393.4113 378.7402)" class="st5 st10">r</text>
						<text transform="matrix(1 0 0 1 401.8113 378.7402)" class="st5 st10">o</text>
						<text transform="matrix(1 0 0 1 414.4113 378.7402)" class="st5 st10">j</text>
						<text transform="matrix(1 0 0 1 420.2113 378.7402)" class="st5 st10">ec</text>
						<text transform="matrix(1 0 0 1 442.4113 378.7402)" class="st5 st10">ti</text>
						<text transform="matrix(1 0 0 1 455.7113 378.7402)" class="st5 st10">o</text>
						<text transform="matrix(1 0 0 1 468.3113 378.7402)" class="st5 st10">n</text>
					</g>
				</g>
			</g>
		</g>
	</g>
	<g>
		<g>
			<g>
				<g>
					<defs>
						<rect id="SVGID_31_" width="720" height="540"/>
					</defs>
					<clipPath id="SVGID_32_">
						<use xlink:href="#SVGID_31_"  style="overflow:visible;"/>
					</clipPath>
					<g class="st18">
						<text transform="matrix(1 0 0 1 169.1957 413.2871)" class="st5 st10">•</text>
					</g>
				</g>
			</g>
		</g>
	</g>
	<g>
		<g>
			<g>
				<g>
					<defs>
						<rect id="SVGID_33_" width="720" height="540"/>
					</defs>
					<clipPath id="SVGID_34_">
						<use xlink:href="#SVGID_33_"  style="overflow:visible;"/>
					</clipPath>
					<g class="st19">
						<text transform="matrix(1 0 0 1 187.2113 413.2871)" class="st5 st10">B</text>
						<text transform="matrix(1 0 0 1 200.3113 413.2871)" class="st5 st10">a</text>
						<text transform="matrix(1 0 0 1 211.8113 413.2871)" class="st5 st10">s</text>
						<text transform="matrix(1 0 0 1 221.1113 413.2871)" class="st5 st10">i</text>
						<text transform="matrix(1 0 0 1 226.6113 413.2871)" class="st5 st10">c</text>
						<text transform="matrix(1 0 0 1 236.8113 413.2871)" class="st5 st10"> </text>
						<text transform="matrix(1 0 0 1 242.0113 413.2871)" class="st5 st10">l</text>
						<text transform="matrix(1 0 0 1 247.5113 413.2871)" class="st5 st10">e</text>
						<text transform="matrix(1 0 0 1 259.5113 413.2871)" class="st5 st10">n</text>
						<text transform="matrix(1 0 0 1 272.1113 413.2871)" class="st5 st10">s </text>
						<text transform="matrix(1 0 0 1 286.9113 413.2871)" class="st5 st10">g</text>
						<text transform="matrix(1 0 0 1 298.2113 413.2871)" class="st5 st10">e</text>
						<text transform="matrix(1 0 0 1 310.2113 413.2871)" class="st5 st10">o</text>
						<text transform="matrix(1 0 0 1 322.8113 413.2871)" class="st5 st10">m</text>
						<text transform="matrix(1 0 0 1 342.0113 413.2871)" class="st5 st10">e</text>
						<text transform="matrix(1 0 0 1 354.0113 413.2871)" class="st5 st10">t</text>
						<text transform="matrix(1 0 0 1 362.0113 413.2871)" class="st5 st10">r</text>
						<text transform="matrix(1 0 0 1 370.4113 413.2871)" class="st5 st10">y</text>
					</g>
				</g>
			</g>
		</g>
	</g>
</g>
</svg>
