<?xml version="1.0" encoding="UTF-8" standalone="no"?>
<!-- Created with Inkscape (http://www.inkscape.org/) -->

<svg
   xmlns:dc="http://purl.org/dc/elements/1.1/"
   xmlns:cc="http://creativecommons.org/ns#"
   xmlns:rdf="http://www.w3.org/1999/02/22-rdf-syntax-ns#"
   xmlns:svg="http://www.w3.org/2000/svg"
   xmlns="http://www.w3.org/2000/svg"
   xmlns:sodipodi="http://sodipodi.sourceforge.net/DTD/sodipodi-0.dtd"
   xmlns:inkscape="http://www.inkscape.org/namespaces/inkscape"
   id="svg3336"
   version="1.1"
   inkscape:version="0.91 r13725"
   xml:space="preserve"
   width="900"
   height="675"
   viewBox="0 0 900 675"
   sodipodi:docname="slide10plain.svg"><metadata
     id="metadata3342"><rdf:RDF><cc:Work
         rdf:about=""><dc:format>image/svg+xml</dc:format><dc:type
           rdf:resource="http://purl.org/dc/dcmitype/StillImage" /><dc:title></dc:title></cc:Work></rdf:RDF></metadata><defs
     id="defs3340"><clipPath
       clipPathUnits="userSpaceOnUse"
       id="clipPath3350"><path
         d="m 0,1.2207e-4 720,0 0,539.99999793 -720,0 L 0,1.2207e-4 Z"
         id="path3352"
         inkscape:connector-curvature="0"
         style="clip-rule:evenodd" /></clipPath></defs><sodipodi:namedview
     pagecolor="#ffffff"
     bordercolor="#666666"
     borderopacity="1"
     objecttolerance="10"
     gridtolerance="10"
     guidetolerance="10"
     inkscape:pageopacity="0"
     inkscape:pageshadow="2"
     inkscape:window-width="1598"
     inkscape:window-height="1075"
     id="namedview3338"
     showgrid="false"
     inkscape:zoom="1.3940741"
     inkscape:cx="450"
     inkscape:cy="337.5"
     inkscape:window-x="1945"
     inkscape:window-y="25"
     inkscape:window-maximized="0"
     inkscape:current-layer="g3344" /><g
     id="g3344"
     inkscape:groupmode="layer"
     inkscape:label="KeepinItReal"
     transform="matrix(1.25,0,0,-1.25,0,675)"><g
       id="g3346"
       transform="translate(-0.5738576,39.022317)"><g
         id="g3348"
         clip-path="url(#clipPath3350)"><path
           d="m 0,6.104e-6 720,0 L 720,540.00001 l -720,0 L 0,6.104e-6 Z"
           style="fill:#000000;fill-opacity:1;fill-rule:evenodd;stroke:none"
           id="path3354"
           inkscape:connector-curvature="0" /></g></g><g
       id="g3380"
       transform="translate(1.1477152,-14.34644)"><text
         y="-329.24542"
         x="218.02"
         id="text3356"
         style="font-style:italic;font-variant:normal;font-weight:normal;font-size:44.06399918px;font-family:Arial;-inkscape-font-specification:'Arial Italic';writing-mode:lr-tb;fill:#ffffff;fill-opacity:1;fill-rule:nonzero;stroke:none"
         transform="scale(1,-1)"><tspan
           id="tspan3358"
           sodipodi:role="line"
           y="-329.24542"
           x="218.02 247.41069 271.91025 296.40985 320.90942 330.69165">Keepin’ It Real</tspan></text>
<text
         id="text3364"
         style="font-variant:normal;font-weight:normal;font-size:44.04000092px;font-family:Arial;-inkscape-font-specification:Arial;writing-mode:lr-tb;fill:#ffffff;fill-opacity:1;fill-rule:nonzero;stroke:none"
         transform="matrix(1,0,0,-1,158.11,274.15)"><tspan
           id="tspan3366"
           sodipodi:role="line"
           y="0"
           x="0 31.796881 41.573761 53.816879 78.303123 90.546242 117.5868 142.07304 164.09303 176.33617 200.91048 215.57581 227.81892 261.94992 276.61523 301.10147 325.58771 350.07397 359.85083 382.047">with Vector Graphics</tspan></text>
</g><g
       id="g3386"><text
         id="text3368"
         style="font-variant:normal;font-weight:normal;font-size:24px;font-family:Arial;-inkscape-font-specification:Arial;writing-mode:lr-tb;fill:#ffffff;fill-opacity:1;fill-rule:nonzero;stroke:none"
         transform="matrix(1,0,0,-1,310.66,211.97)"><tspan
           id="tspan3370"
           sodipodi:role="line"
           y="0"
           x="0 22.656 27.983999 33.312 53.304001 66.648003 73.367996 80.040001 93.384003">Wilmot Li</tspan></text>
<text
         id="text3372"
         style="font-variant:normal;font-weight:normal;font-size:24px;font-family:Arial;-inkscape-font-specification:Arial;writing-mode:lr-tb;fill:#558ed5;fill-opacity:1;fill-rule:nonzero;stroke:none"
         transform="matrix(1,0,0,-1,218.74,183.17)"><tspan
           id="tspan3374"
           sodipodi:role="line"
           y="0"
           x="0 17.327999 25.32 38.664001 52.007999 58.68 64.008003 76.008003 89.351997 95.760002 107.784 121.128 133.12801 146.472 159.81599 173.16 178.48801 191.832 205.17599 210.43201 223.776 235.776 242.976 256.32001 269.664">Creative Technologies Lab</tspan></text>
<text
         id="text3376"
         style="font-variant:normal;font-weight:normal;font-size:24px;font-family:Arial;-inkscape-font-specification:Arial;writing-mode:lr-tb;fill:#7f7f7f;fill-opacity:1;fill-rule:nonzero;stroke:none"
         transform="matrix(1,0,0,-1,270.7,154.37)"><tspan
           id="tspan3378"
           sodipodi:role="line"
           y="0"
           x="0 16.007999 29.351999 42.695999 56.040001 69.384003 76.176003 93.503998 106.848 118.848 132.192 145.536 153.528 165.576">Adobe Research</tspan></text>
</g></g></svg>