<?xml version="1.0" encoding="UTF-8" standalone="no"?>
<svg
   xmlns:dc="http://purl.org/dc/elements/1.1/"
   xmlns:cc="http://creativecommons.org/ns#"
   xmlns:rdf="http://www.w3.org/1999/02/22-rdf-syntax-ns#"
   xmlns:svg="http://www.w3.org/2000/svg"
   xmlns="http://www.w3.org/2000/svg"
   xmlns:sodipodi="http://sodipodi.sourceforge.net/DTD/sodipodi-0.dtd"
   xmlns:inkscape="http://www.inkscape.org/namespaces/inkscape"
   version="1.0"
   width="163.62mm"
   height="247.69mm"
   id="svg2"
   inkscape:version="0.91 r13725"
   viewBox="0 0 163.62 247.69"
   sodipodi:docname="bst-average.svg">
  <metadata
     id="metadata64">
    <rdf:RDF>
      <cc:Work
         rdf:about="">
        <dc:format>image/svg+xml</dc:format>
        <dc:type
           rdf:resource="http://purl.org/dc/dcmitype/StillImage" />
      </cc:Work>
    </rdf:RDF>
  </metadata>
  <sodipodi:namedview
     pagecolor="#ffffff"
     bordercolor="#666666"
     borderopacity="1"
     objecttolerance="10"
     gridtolerance="10"
     guidetolerance="10"
     inkscape:pageopacity="0"
     inkscape:pageshadow="2"
     inkscape:window-width="1368"
     inkscape:window-height="849"
     id="namedview62"
     inkscape:document-units="mm"
     showgrid="false"
     inkscape:zoom="0.26890243"
     inkscape:cx="405.16139"
     inkscape:cy="438.82087"
     inkscape:window-x="-8"
     inkscape:window-y="-8"
     inkscape:window-maximized="1"
     inkscape:current-layer="svg2" />
  <defs
     id="defs4">
    <clipPath
       clipPathUnits="userSpaceOnUse"
       id="clipEmfPath1">
      <path
         d="m 21.2871,25.6345 579.2489,0 0,878.4675 -579.2489,0 z"
         id="path7"
         inkscape:connector-curvature="0" />
    </clipPath>
    <pattern
       id="EMFhbasepattern"
       patternUnits="userSpaceOnUse"
       width="6"
       height="6"
       x="0"
       y="0" />
  </defs>
  <path
     style="fill:none;stroke:#0070c0;stroke-width:2.02145219px;stroke-linecap:butt;stroke-linejoin:miter;stroke-miterlimit:8;stroke-dasharray:none;stroke-opacity:1"
     clip-path="url(#clipEmfPath1)"
     d="m 300.943,77.2782 c 0,-26.1592 21.174,-47.3713 47.296,-47.3713 26.122,0 47.296,21.2121 47.296,47.3713 0,26.1968 -21.174,47.3708 -47.296,47.3708 -26.122,0 -47.296,-21.174 -47.296,-47.3708"
     id="path10"
     inkscape:connector-curvature="0"
     transform="matrix(0.26387445,0,0,0.27563433,0.49537481,5.4042455)" />
  <path
     style="fill:none;stroke:#0070c0;stroke-width:2.02145219px;stroke-linecap:butt;stroke-linejoin:miter;stroke-miterlimit:8;stroke-dasharray:none;stroke-opacity:1"
     d="m 29.154515,65.070534 c 0,-7.20012 5.597305,-13.036677 12.499996,-13.036677 6.912719,0 12.50026,5.836557 12.50026,13.036677 0,7.199845 -5.587541,13.036401 -12.50026,13.036401 -6.902691,0 -12.499996,-5.836556 -12.499996,-13.036401"
     id="path12"
     inkscape:connector-curvature="0" />
  <path
     style="fill:none;stroke:#0070c0;stroke-width:2.02145219px;stroke-linecap:butt;stroke-linejoin:miter;stroke-miterlimit:8;stroke-dasharray:none;stroke-opacity:1"
     clip-path="url(#clipEmfPath1)"
     d="m 501.371,216.469 c 0,-26.122 21.212,-47.297 47.371,-47.297 26.197,0 47.372,21.175 47.372,47.297 0,26.121 -21.175,47.296 -47.372,47.296 -26.159,0 -47.371,-21.175 -47.371,-47.296"
     id="path14"
     inkscape:connector-curvature="0"
     transform="matrix(0.26387445,0,0,0.27563433,0.49537481,5.4042455)" />
  <path
     style="fill:none;stroke:#0070c0;stroke-width:2.02145219px;stroke-linecap:butt;stroke-linejoin:miter;stroke-miterlimit:8;stroke-dasharray:none;stroke-opacity:1"
     clip-path="url(#clipEmfPath1)"
     d="m 29.9069,410.526 c 0,-26.159 21.1746,-47.371 47.2963,-47.371 26.1218,0 47.2968,21.212 47.2968,47.371 0,26.197 -21.175,47.371 -47.2968,47.371 -26.1217,0 -47.2963,-21.174 -47.2963,-47.371"
     id="path16"
     inkscape:connector-curvature="0"
     transform="matrix(0.26387445,0,0,0.27563433,0.49537481,5.4042455)" />
  <path
     style="fill:none;stroke:#0070c0;stroke-width:2.02145219px;stroke-linecap:butt;stroke-linejoin:miter;stroke-miterlimit:8;stroke-dasharray:none;stroke-opacity:1"
     d="m 107.7548,118.5593 c 0,-7.21032 5.58727,-13.05707 12.4802,-13.05707 6.89293,0 12.48021,5.84675 12.48021,13.05707 0,7.2208 -5.58728,13.05708 -12.48021,13.05708 -6.89293,0 -12.4802,-5.83628 -12.4802,-13.05708"
     id="path18"
     inkscape:connector-curvature="0" />
  <path
     style="fill:none;stroke:#0070c0;stroke-width:2.02145219px;stroke-linecap:butt;stroke-linejoin:miter;stroke-miterlimit:8;stroke-dasharray:none;stroke-opacity:1"
     d="m 52.137187,118.5593 c 0,-7.21032 5.597569,-13.05707 12.500261,-13.05707 6.912455,0 12.499996,5.84675 12.499996,13.05707 0,7.2208 -5.587541,13.05708 -12.499996,13.05708 -6.902692,0 -12.500261,-5.83628 -12.500261,-13.05708"
     id="path20"
     inkscape:connector-curvature="0" />
  <path
     style="fill:none;stroke:#0070c0;stroke-width:2.02145219px;stroke-linecap:butt;stroke-linejoin:miter;stroke-miterlimit:8;stroke-dasharray:none;stroke-opacity:1"
     d="m 29.906029,181.38657 c 0,-7.20012 5.587542,-13.0364 12.48047,-13.0364 6.892664,0 12.480206,5.83628 12.480206,13.0364 0,7.20012 -5.587542,13.0364 -12.480206,13.0364 -6.892928,0 -12.48047,-5.83628 -12.48047,-13.0364"
     id="path22"
     inkscape:connector-curvature="0" />
  <path
     style="fill:none;stroke:#0070c0;stroke-width:2.02145219px;stroke-linecap:butt;stroke-linejoin:miter;stroke-miterlimit:8;stroke-dasharray:none;stroke-opacity:1"
     d="m 97.944474,181.38657 c 0,-7.20012 5.597306,-13.0364 12.499996,-13.0364 6.91272,0 12.50026,5.83628 12.50026,13.0364 0,7.20012 -5.58754,13.0364 -12.50026,13.0364 -6.90269,0 -12.499996,-5.83628 -12.499996,-13.0364"
     id="path24"
     inkscape:connector-curvature="0" />
  <path
     style="fill:none;stroke:#0070c0;stroke-width:2.02145219px;stroke-linecap:butt;stroke-linejoin:miter;stroke-miterlimit:8;stroke-dasharray:none;stroke-opacity:1"
     d="m 63.925251,181.38657 c 0,-7.20012 5.597304,-13.0364 12.500261,-13.0364 6.912454,0 12.499996,5.83628 12.499996,13.0364 0,7.20012 -5.587542,13.0364 -12.499996,13.0364 -6.902957,0 -12.500261,-5.83628 -12.500261,-13.0364"
     id="path26"
     inkscape:connector-curvature="0" />
  <path
     style="fill:none;stroke:#0070c0;stroke-width:2.02145219px;stroke-linecap:butt;stroke-linejoin:miter;stroke-miterlimit:8;stroke-dasharray:none;stroke-opacity:1"
     d="M 92.386749,39.76179 41.654511,52.044331"
     id="path28"
     inkscape:connector-curvature="0" />
  <path
     style="fill:none;stroke:#0070c0;stroke-width:2.02145219px;stroke-linecap:butt;stroke-linejoin:miter;stroke-miterlimit:8;stroke-dasharray:none;stroke-opacity:1"
     d="M 41.684329,78.106935 20.887117,105.51243"
     id="path30"
     inkscape:connector-curvature="0" />
  <path
     style="fill:none;stroke:#0070c0;stroke-width:2.02145219px;stroke-linecap:butt;stroke-linejoin:miter;stroke-miterlimit:8;stroke-dasharray:none;stroke-opacity:1"
     d="m 64.657239,131.61638 -22.25095,36.72331"
     id="path32"
     inkscape:connector-curvature="0" />
  <path
     style="fill:none;stroke:#0070c0;stroke-width:2.02145219px;stroke-linecap:butt;stroke-linejoin:miter;stroke-miterlimit:8;stroke-dasharray:none;stroke-opacity:1"
     d="m 64.637448,131.61638 11.778036,36.72331"
     id="path34"
     inkscape:connector-curvature="0" />
  <path
     style="fill:none;stroke:#0070c0;stroke-width:2.02145219px;stroke-linecap:butt;stroke-linejoin:miter;stroke-miterlimit:8;stroke-dasharray:none;stroke-opacity:1"
     d="m 120.235,131.61638 -9.79053,36.72331"
     id="path36"
     inkscape:connector-curvature="0" />
  <path
     style="fill:none;stroke:#0070c0;stroke-width:2.02145219px;stroke-linecap:butt;stroke-linejoin:miter;stroke-miterlimit:8;stroke-dasharray:none;stroke-opacity:1"
     d="M 120.21521,105.51243 145.29437,78.106935"
     id="path38"
     inkscape:connector-curvature="0" />
  <path
     style="fill:none;stroke:#0070c0;stroke-width:2.02145219px;stroke-linecap:butt;stroke-linejoin:miter;stroke-miterlimit:8;stroke-dasharray:none;stroke-opacity:1"
     d="M 64.637448,105.51243 41.654511,78.106935"
     id="path40"
     inkscape:connector-curvature="0" />
  <path
     style="fill:none;stroke:#0070c0;stroke-width:2.02145219px;stroke-linecap:butt;stroke-linejoin:miter;stroke-miterlimit:8;stroke-dasharray:none;stroke-opacity:1"
     d="m 92.40654,39.76179 52.91765,12.282541"
     id="path42"
     inkscape:connector-curvature="0" />
  <text
     xml:space="preserve"
     style="font-style:normal;font-variant:normal;font-weight:400;font-size:26.96902847px;line-height:125%;font-family:'Calibri Light';text-align:start;letter-spacing:0px;word-spacing:0px;text-anchor:start;fill:#000000;fill-opacity:1;stroke:none"
     x="22.582672"
     y="225.65439"
     id="text44"
     sodipodi:linespacing="125%"
     transform="scale(0.97843508,1.0220402)"><tspan
       sodipodi:role="line"
       x="22.582672"
       y="225.65439"
       id="tspan46"><tspan
         dx="0"
         dy="0"
         style="font-style:normal;font-variant:normal;font-weight:400;font-size:26.96902847px;font-family:'Calibri Light';fill:#000000"
         id="tspan48">in</tspan></tspan></text>
  <text
     xml:space="preserve"
     style="font-style:normal;font-variant:normal;font-weight:400;font-size:26.96902847px;line-height:125%;font-family:'Calibri Light';text-align:start;letter-spacing:0px;word-spacing:0px;text-anchor:start;fill:#000000;fill-opacity:1;stroke:none"
     x="42.554619"
     y="225.65439"
     id="text50"
     sodipodi:linespacing="125%"
     transform="scale(0.97843508,1.0220402)"><tspan
       sodipodi:role="line"
       x="42.554619"
       y="225.65439"
       id="tspan52"><tspan
         dx="0"
         dy="0"
         style="font-style:normal;font-variant:normal;font-weight:400;font-size:26.96902847px;font-family:'Calibri Light';fill:#000000"
         id="tspan54">-</tspan></tspan></text>
  <text
     xml:space="preserve"
     style="font-style:normal;font-variant:normal;font-weight:400;font-size:26.96902847px;line-height:125%;font-family:'Calibri Light';text-align:start;letter-spacing:0px;word-spacing:0px;text-anchor:start;fill:#000000;fill-opacity:1;stroke:none"
     x="50.802147"
     y="225.65439"
     id="text56"
     sodipodi:linespacing="125%"
     transform="scale(0.97843508,1.0220402)"><tspan
       sodipodi:role="line"
       x="50.802147"
       y="225.65439"
       id="tspan58"><tspan
         dx="0"
         dy="0"
         style="font-style:normal;font-variant:normal;font-weight:400;font-size:26.96902847px;font-family:'Calibri Light';fill:#000000"
         id="tspan60">between</tspan></tspan></text>
</svg>
