<?xml version="1.0" encoding="utf-8"?>
<!-- Generator: Adobe Illustrator 20.1.0, SVG Export Plug-In . SVG Version: 6.00 Build 0)  -->
<svg version="1.1"
	 id="svg2" xmlns:cc="http://creativecommons.org/ns#" xmlns:dc="http://purl.org/dc/elements/1.1/" xmlns:rdf="http://www.w3.org/1999/02/22-rdf-syntax-ns#" xmlns:svg="http://www.w3.org/2000/svg"
	 xmlns="http://www.w3.org/2000/svg" xmlns:xlink="http://www.w3.org/1999/xlink" x="0px" y="0px" viewBox="0 0 718.8 540.3"
	 style="enable-background:new 0 0 718.8 540.3;" xml:space="preserve">
<style type="text/css">
	.st0{font-family:'Calibri';}
	.st1{font-size:39.95px;}
</style>
<g id="g3369">
	<text transform="matrix(1 0 0 1 105.8682 163.6953)" class="st0 st1">Everything you always wanted</text>
	<text transform="matrix(1 0 0 1 157.6104 226.0479)" class="st0 st1">t</text>
	<text transform="matrix(1 0 0 1 170.6016 226.0479)" class="st0 st1">o</text>
	<text transform="matrix(1 0 0 1 191.6689 226.0479)" class="st0 st1"> </text>
	<text transform="matrix(1 0 0 1 200.7012 226.0479)" class="st0 st1">k</text>
	<text transform="matrix(1 0 0 1 218.8613 226.0479)" class="st0 st1">n</text>
	<text transform="matrix(1 0 0 1 239.8506 226.0479)" class="st0 st1">o</text>
	<text transform="matrix(1 0 0 1 260.7627 226.0479)" class="st0 st1">w</text>
	<text transform="matrix(1 0 0 1 289.3203 226.0479)" class="st0 st1"> </text>
	<text transform="matrix(1 0 0 1 298.3516 226.0479)" class="st0 st1">a</text>
	<text transform="matrix(1 0 0 1 317.4883 226.0479)" class="st0 st1">b</text>
	<text transform="matrix(1 0 0 1 338.4775 226.0479)" class="st0 st1">o</text>
	<text transform="matrix(1 0 0 1 359.5449 226.0479)" class="st0 st1">u</text>
	<text transform="matrix(1 0 0 1 380.5342 226.0479)" class="st0 st1">t</text>
	<text transform="matrix(1 0 0 1 393.916 226.0479)" class="st0 st1"> </text>
	<text transform="matrix(1 0 0 1 402.9473 226.0479)" class="st0 st1">c</text>
	<text transform="matrix(1 0 0 1 419.5088 226.0479)" class="st0 st1">a</text>
	<text transform="matrix(1 0 0 1 438.6455 226.0479)" class="st0 st1">m</text>
	<text transform="matrix(1 0 0 1 470.5586 226.0479)" class="st0 st1">e</text>
	<text transform="matrix(1 0 0 1 490.4355 226.0479)" class="st0 st1">r</text>
	<text transform="matrix(1 0 0 1 503.5439 226.0479)" class="st0 st1">a</text>
	<text transform="matrix(1 0 0 1 522.6807 226.0479)" class="st0 st1">s</text>
	<text transform="matrix(1 0 0 1 538.3057 226.0479)" class="st0 st1">,</text>
	<text transform="matrix(1 0 0 1 179.5195 300.8838)" class="st0 st1">b</text>
	<text transform="matrix(1 0 0 1 200.5088 300.8838)" class="st0 st1">u</text>
	<text transform="matrix(1 0 0 1 221.498 300.8838)" class="st0 st1">t</text>
	<text transform="matrix(1 0 0 1 234.8799 300.8838)" class="st0 st1"> </text>
	<text transform="matrix(1 0 0 1 243.9111 300.8838)" class="st0 st1">w</text>
	<text transform="matrix(1 0 0 1 272.1182 300.8838)" class="st0 st1">e</text>
	<text transform="matrix(1 0 0 1 291.9961 300.8838)" class="st0 st1">r</text>
	<text transform="matrix(1 0 0 1 305.3975 300.8838)" class="st0 st1">e</text>
	<text transform="matrix(1 0 0 1 325.2744 300.8838)" class="st0 st1"> </text>
	<text transform="matrix(1 0 0 1 334.3066 300.8838)" class="st0 st1">a</text>
	<text transform="matrix(1 0 0 1 353.208 300.8838)" class="st0 st1">f</text>
	<text transform="matrix(1 0 0 1 365.4004 300.8838)" class="st0 st1">r</text>
	<text transform="matrix(1 0 0 1 378.5088 300.8838)" class="st0 st1">a</text>
	<text transform="matrix(1 0 0 1 397.6445 300.8838)" class="st0 st1">i</text>
	<text transform="matrix(1 0 0 1 406.8135 300.8838)" class="st0 st1">d</text>
	<text transform="matrix(1 0 0 1 427.8027 300.8838)" class="st0 st1"> </text>
	<text transform="matrix(1 0 0 1 436.834 300.8838)" class="st0 st1">t</text>
	<text transform="matrix(1 0 0 1 449.8262 300.8838)" class="st0 st1">o</text>
	<text transform="matrix(1 0 0 1 470.8936 300.8838)" class="st0 st1"> </text>
	<text transform="matrix(1 0 0 1 479.9248 300.8838)" class="st0 st1">a</text>
	<text transform="matrix(1 0 0 1 499.0605 300.8838)" class="st0 st1">s</text>
	<text transform="matrix(1 0 0 1 514.6855 300.8838)" class="st0 st1">k</text>
</g>
</svg>
